<?xml version="1.0" standalone="no"?>
<!DOCTYPE svg PUBLIC "-//W3C//DTD SVG 1.1//EN" "http://www.w3.org/Graphics/SVG/1.1/DTD/svg11.dtd" >
<svg>
<metadata>
Created by FontForge 20090914 at Fri Aug 19 18:50:18 2022
 By www-data
Copyright (c) 2011 by Jos Buivenga. All rights reserved.
</metadata>
<defs>
<font id="MuseoSansRounded-300" horiz-adv-x="565" >
  <font-face 
    font-family="Museo Sans Rounded"
    font-weight="300"
    font-stretch="normal"
    units-per-em="1000"
    panose-1="2 0 0 0 0 0 0 0 0 0"
    ascent="771"
    descent="-229"
    x-height="502.999"
    cap-height="703"
    bbox="-103.6 -214.001 1088 883"
    underline-thickness="50"
    underline-position="-150"
    unicode-range="U+0020-U+FB04"
  />
<missing-glyph horiz-adv-x="529" 
d="M14 25v650c0 16.667 8.33301 25 25 25h451c16 0 24 -8.33301 24 -25v-650c0 -16.667 -8 -25 -24 -25h-451c-16.667 -0 -25 8.33301 -25 25zM94 650l170 -255l170 255h-340zM464 605l-170 -255l170 -255v510zM64 605v-510l170 255zM264 305l-170 -255h340z" />
    <glyph glyph-name="f_f" unicode="ff" horiz-adv-x="611" 
d="M96 25l-0.000976562 421h-40c-16 0 -24 8 -24 24v8c0 16.667 8 25 24 25h40v19c0 74.667 22 125.667 66 153c36 22 70.333 33 103 33h11c16 0 24 -8.33301 24 -25v-12c0 -15.333 -9 -23.333 -27 -24c-26 -0.666992 -49.333 -7.66699 -70 -21
c-26 -17.333 -39 -52.333 -39 -105v-18h237v19c0 74.667 22 125.667 66 153c36.667 22 71.334 33 104.001 33h10c16.667 0 25 -8.33301 25 -25v-12c0 -15.333 -9.33301 -23.333 -28 -24c-26 -0.666992 -49.333 -7.66699 -70 -21c-26 -17.333 -39 -52.333 -39 -105v-18h104
c16.667 0 25 -8.33301 25 -25v-8c0 -16 -7.66699 -24 -23 -24h-106v-421c0 -16.667 -8 -25 -24 -25h-19c-16.667 -0 -25 8.33301 -25 25v421h-237v-421c0 -16.667 -8.33301 -25 -25 -25h-19c-16 -0 -24 8.33301 -24 25z" />
    <glyph glyph-name="fi" unicode="fi" horiz-adv-x="528" 
d="M95 25v421h-40c-16 0 -24 8 -24 24v8c0 16.667 8 25 24 25h40v19c0 74.667 22 125.667 66 153c36.667 22 71 33 103 33h11c16 0 24 -8.33301 24 -25v-12c0 -15.333 -9 -23.333 -27 -24c-26 -0.666992 -49.333 -7.66699 -70 -21c-26 -17.333 -39 -52.333 -39 -105v-18h263
c16.667 0 25 -8.33301 25 -25v-453c0 -16.667 -8.33301 -25 -25 -25h-19c-16 -0 -24 8.33301 -24 25v421h-220v-421c0 -16.667 -8.33301 -25 -25 -25h-19c-16 -0 -24 8.33301 -24 25zM429 618h-24c-16.667 0 -25 8 -25 24v36c0 16.667 8.33301 25 25 25h24
c16.667 0 25 -8.33301 25 -25v-36c0 -16 -8.33301 -24 -25 -24z" />
    <glyph glyph-name="fl" unicode="fl" horiz-adv-x="550" 
d="M95 25v417h-40c-16 0 -24 8 -24 24v8c0 16.667 8 25 24 25h40v23c0 74.667 22 125.667 66 153c36.667 22 71 33 103 33h11c16 0 24 -8.33301 24 -25v-12c0 -15.333 -9 -23.333 -27 -24c-26 -0.666992 -49.333 -7.66699 -70 -21c-26 -17.333 -39 -52.333 -39 -105v-22h104
c16 0 24 -8.33301 24 -25v-8c0 -16 -8 -24 -24 -24h-104v-417c0 -16.667 -8.33301 -25 -25 -25h-19c-16 -0 -24 8.33301 -24 25zM383 119l0.000976562 558.997c0 16.667 8 25 24 25h19c16.667 0 25 -8.33301 25 -25v-547c2 -28 7.33301 -46.833 16 -56.5
s20.667 -15.167 36 -16.5c14 -1.33301 21 -8.66602 21 -21.999v-15c0 -16.667 -8.66699 -25 -26 -25c-10 0 -19.333 0.666992 -28 2s-18.667 4.5 -30 9.5s-20.833 11.833 -28.5 20.5s-14.334 20.834 -20.001 36.501s-8.5 33.834 -8.5 54.501z" />
    <glyph glyph-name="f_f_i" unicode="ffi" horiz-adv-x="834" 
d="M95 25l-1.00098 421h-39c-16 0 -24 8 -24 24v8c0 16.667 8 25 24 25h39l1 19c0 74.667 22 125.667 66 153c36.667 22 71 33 103 33h11c16 0 24 -8.33301 24 -25v-12c0 -15.333 -9 -23.333 -27 -24c-26 -0.666992 -49.333 -7.66699 -70 -21
c-26 -17.333 -39 -52.333 -39 -105v-18h237v19c0 74.667 22 125.667 66 153c36.667 22 71.334 33 104.001 33h10c16.667 0 25 -8.33301 25 -25v-12c0 -15.333 -9.33301 -23.333 -28 -24c-26 -0.666992 -49.333 -7.66699 -70 -21c-26 -17.333 -39 -52.333 -39 -105v-18h264
c16 0 24 -8.33301 24 -25v-453c0 -16.667 -8 -25 -24 -25h-19c-16.667 -0 -25 8.33301 -25 25v421h-220v-421c0 -16.667 -8 -25 -24 -25h-19c-16.667 -0 -25 8.33301 -25 25v421h-237v-421c0 -16.667 -8.33301 -25 -25 -25h-19c-16 -0 -24 8.33301 -24 25zM685.999 642v36
c0 16.667 8 25 24 25h25c16 0 24 -8.33301 24 -25v-36c0 -16 -8 -24 -24 -24h-25c-16 0 -24 8 -24 24z" />
    <glyph glyph-name="f_f_l" unicode="ffl" horiz-adv-x="856" 
d="M96 25l-1.00098 421h-39c-16 0 -24 8 -24 24v8c0 16.667 8 25 24 25h39l1 19c0 74.667 22 125.667 66 153c36 22 70.333 33 103 33h11c16 0 24 -8.33301 24 -25v-12c0 -15.333 -9 -23.333 -27 -24c-26 -0.666992 -49.333 -7.66699 -70 -21
c-26 -17.333 -39 -52.333 -39 -105v-18h237v19c0 74.667 22 125.667 66 153c36.667 22 71.334 33 104.001 33h10c16.667 0 25 -8.33301 25 -25v-12c0 -15.333 -9.33301 -23.333 -28 -24c-26 -0.666992 -49.333 -7.66699 -70 -21c-26 -17.333 -39 -52.333 -39 -105v-18h104
c16.667 0 25 -8.33301 25 -25v-8c0 -16 -7.66699 -24 -23 -24h-106v-421c0 -16.667 -8 -25 -24 -25h-19c-16.667 -0 -25 8.33301 -25 25v421h-237v-421c0 -16.667 -8.33301 -25 -25 -25h-19c-16 -0 -24 8.33301 -24 25zM689.999 119l0.000976562 558.996
c0 16.667 8 25 24 25h19c16.667 0 25 -8.33301 25 -25v-547c0 -19.333 3 -34.666 9 -45.999s12.167 -18.333 18.5 -21s14.5 -4.66699 24.5 -6c14 -1.33301 21 -8.66602 21 -21.999v-15c0 -16.667 -8.66699 -25 -26 -25c-10 0 -19.333 0.666992 -28 2s-18.667 4.5 -30 9.5
s-20.833 11.833 -28.5 20.5s-14.334 20.834 -20.001 36.501s-8.5 33.834 -8.5 54.501z" />
    <glyph glyph-name="f_j" unicode="fj" horiz-adv-x="530" 
d="M96 25v421.001h-40c-16 0 -24 8 -24 24v8c0 16.667 8 25 24 25h40v19c0 74.667 22 125.667 66 153c36 22 70.333 33 103 33h11c16 0 24 -8.33301 24 -25v-12c0 -15.333 -9 -23.333 -27 -24c-26 -0.666992 -49.333 -7.66699 -70 -21c-26 -17.333 -39 -52.333 -39 -105v-18
h264c16 0 24 -8.33301 24 -25v-496c0 -37.333 -6.16699 -69.5 -18.5 -96.5s-28.833 -46.833 -49.5 -59.5c-35.333 -21.333 -69.333 -32 -102 -32h-10c-16 0 -24 8.33301 -24 25v11c0 14.667 8 22.667 24 24c26 0.666992 50 8.66699 72 24
c26.667 17.333 40 52.666 40 105.999v462h-220v-421c0 -16.667 -8.33301 -25 -25 -25h-19c-16 -0 -24 8.33301 -24 25zM430 618.001h-24c-16.667 0 -25 8 -25 24v36c0 16.667 8.33301 25 25 25h24c16.667 0 25 -8.33301 25 -25v-36c0 -16 -8.33301 -24 -25 -24z" />
    <glyph glyph-name=".notdef" horiz-adv-x="529" 
d="M14 25v650c0 16.667 8.33301 25 25 25h451c16 0 24 -8.33301 24 -25v-650c0 -16.667 -8 -25 -24 -25h-451c-16.667 -0 -25 8.33301 -25 25zM94 650l170 -255l170 255h-340zM464 605l-170 -255l170 -255v510zM64 605v-510l170 255zM264 305l-170 -255h340z" />
    <glyph glyph-name="space" unicode=" " horiz-adv-x="250" 
 />
    <glyph glyph-name="exclam" unicode="!" horiz-adv-x="249" 
d="M132 184h-15c-16.667 0 -25 8 -25 24l-3 470c0 16.667 8.33301 25 25 25h21c16 0 24 -8.33301 24 -25l-3 -470c0 -16 -8 -24 -24 -24zM86 25v29c0 16.667 8 25 24 25h30c16 0 24 -8.33301 24 -25v-29c0 -16.667 -8 -25 -24 -25h-30c-16 -0 -24 8.33301 -24 25z" />
    <glyph glyph-name="quotedbl" unicode="&#x22;" horiz-adv-x="305" 
d="M218 512h-10c-16 0 -24 8.33301 -24 25v152c0 16 8 24 24 24h10c16 0 24 -8 24 -24v-152c0 -16.667 -8 -25 -24 -25zM97 512h-10c-16.667 0 -25 8.33301 -25 25v152c0 16 8.33301 24 25 24h10c16 0 24 -8 24 -24v-152c0 -16.667 -8 -25 -24 -25z" />
    <glyph glyph-name="numbersign" unicode="#" horiz-adv-x="708" 
d="M155 26l29.998 169h-114c-18.667 0 -26.334 8.66699 -23.001 26l1 8c2.66699 14.667 11.667 22 27 22h119l35 196h-115c-17.333 0 -25 8.66699 -23 26l2 8c2 14.667 10.667 22 26 22h119l31 178c2.66699 14.667 11.667 22 27 22h11c18.667 0 26.334 -8.66699 23.001 -26
l-31 -174h173l31 178c2.66699 14.667 11.667 22 27 22h11c18.667 0 26.334 -8.66699 23.001 -26l-31 -174h113c18.667 0 26.334 -8.66699 23.001 -26l-1 -8c-2.66699 -14.667 -11.667 -22 -27 -22h-117l-35 -196h113c18 0 25.333 -8.66699 22 -26l-1 -8
c-2 -14.667 -11 -22 -27 -22h-117l-30 -173c-2 -14.667 -11 -22 -27 -22h-11c-17.333 0 -25 8.66699 -23 26l30 169h-173l-30 -173c-2 -14.667 -11 -22 -27 -22h-11c-17.333 0 -25 8.66699 -23 26zM290.998 447l-35 -196h173l35 196h-173z" />
    <glyph glyph-name="dollar" unicode="$" horiz-adv-x="523" 
d="M72 62c-12 10 -12.999 21.333 -2.99902 34l12 15c9.33301 12 20.666 13.333 33.999 4c49.333 -40.667 104.333 -61 165 -61c40.667 0 74.167 11.333 100.5 34s39.5 52 39.5 88c0 55.333 -41.667 100.666 -125 135.999c-71.333 30.667 -118.333 53.667 -141 69
c-59.333 39.333 -88.666 87.666 -87.999 144.999c0 46.667 17 87.667 51 123s78.333 56.333 133 63v70c0 16.667 8 25 24 25h8c16 0 24 -7.66699 24 -23v-70c58 -2.66699 107.667 -20.334 149 -53.001c12.667 -8 14.667 -19.333 6 -34l-9 -16
c-8 -12.667 -19.333 -14.667 -34 -6c-41.333 29.333 -85.666 44 -132.999 44c-44.667 0 -80.334 -12 -107.001 -36c-27.333 -24 -41 -52.333 -41 -85c0 -50.667 41.667 -93.667 125 -129c27.333 -10.667 48.5 -19.167 63.5 -25.5s34.833 -16.666 59.5 -30.999
s43.5 -28.333 56.5 -42s24.667 -31.167 35 -52.5s15.166 -44.666 14.499 -69.999c0 -49.333 -16.667 -91.666 -50 -126.999c-34 -36 -79 -56.333 -135 -61v-68c0 -16.667 -8 -25 -24 -25h-8c-16 0 -24 7.66699 -24 23v70c-70.667 4.66699 -130 28.667 -178 72z" />
    <glyph glyph-name="percent" unicode="%" horiz-adv-x="718" 
d="M190 437c-40 0 -73.333 13.333 -100 40c-27.333 27.333 -41 60.333 -41 99c0 38 13.667 70.667 41 98c28.667 27.333 62 41 100 41c38.667 0 71.667 -13.667 99 -41s41 -60 41 -98c0 -38.667 -13.667 -71.667 -41 -99c-26.667 -26.667 -59.667 -40 -99 -40zM79 30
l501 658c6.66699 10 16.667 15 30 15h15c10.667 0 17.5 -2.83301 20.5 -8.5s1.16699 -12.834 -5.5 -21.501l-501 -658c-7.33301 -10 -17.333 -15 -30 -15h-16c-10 0 -16.5 2.83301 -19.5 8.5s-1.16699 12.834 5.5 21.501zM271 576c0 22.667 -7.83301 42.167 -23.5 58.5
s-34.834 24.5 -57.501 24.5s-41.834 -8.16699 -57.501 -24.5s-23.5 -35.833 -23.5 -58.5c0 -23.333 7.83301 -43 23.5 -59s34.834 -24 57.501 -24s41.834 8 57.501 24s23.5 35.667 23.5 59zM387 126c0 38.667 13.666 71.668 40.999 99.001c28.667 27.333 62 41 100 41
c38.667 0 71.667 -13.667 99 -41c28 -27.333 42 -60.333 42 -99s-14 -71.334 -42 -98.001c-26.667 -26.667 -59.667 -40 -99 -40s-72.666 13.333 -99.999 40c-27.333 27.333 -41 60 -41 98zM446.999 127.001c0 -23.333 7.83301 -43 23.5 -59s34.834 -24 57.501 -24
s41.834 8 57.501 24s23.5 35.667 23.5 59c0 22.667 -7.83301 42.167 -23.5 58.5s-34.834 24.5 -57.501 24.5s-41.834 -8.16699 -57.501 -24.5s-23.5 -35.833 -23.5 -58.5z" />
    <glyph glyph-name="ampersand" unicode="&#x26;" horiz-adv-x="637" 
d="M51 194c0 42.667 11.4971 81.168 34.4971 115.501s54.167 57.5 93.5 69.5v2c-6 1.33301 -17.333 7.66602 -34 18.999c-42 31.333 -63 77 -63 137c0 54 19 97.167 57 129.5s89 48.5 153 48.5h50c16 0 24 -8.33301 24 -25v-11c0 -16.667 -8 -25 -24 -25h-49
c-40.667 0 -74.167 -11.167 -100.5 -33.5s-39.5 -51.5 -39.5 -87.5c0 -14 1.83301 -27.333 5.5 -40s10.334 -26.167 20.001 -40.5s25.334 -25.666 47.001 -33.999s47.834 -12.5 78.501 -12.5h148v75c0 16 8.33301 24 25 24h19c16.667 0 25 -7.33301 25 -22v-77h71
c16 0 24 -8 24 -24v-13c0 -16.667 -8 -25 -24 -25h-71v-103c0 -81.333 -20.667 -143.833 -62 -187.5s-98.333 -65.5 -171 -65.5c-70.667 0 -127.667 19.333 -171 58c-44 39.333 -66 88.666 -66 147.999zM121.997 198.001c0 -41.333 15 -76 45 -104
c30.667 -27.333 71 -41 121 -41c109.333 0 164 63.333 164 190v101h-148c-58.667 0 -103.667 -12.833 -135 -38.5s-47 -61.5 -47 -107.5z" />
    <glyph glyph-name="quotesingle" unicode="'" horiz-adv-x="181" 
d="M96 545h-11c-16 0 -24 8 -24 24v120c0 16 8 24 24 24h11c16 0 24 -8 24 -24v-120c0 -16 -8 -24 -24 -24z" />
    <glyph glyph-name="parenleft" unicode="(" horiz-adv-x="265" 
d="M160 -80c-69.333 127.333 -103.998 266.332 -103.998 416.999c0 134 34.333 259.333 103 376c6 11.333 15.667 17 29 17h11c9.33301 0 15.666 -2.66699 18.999 -8s2.66602 -12.333 -2.00098 -21c-64.667 -117.333 -97 -238.666 -97 -363.999
c0 -142 32.667 -276.333 98 -403c4 -8.66699 4.5 -15.667 1.5 -21s-8.83301 -8 -17.5 -8h-12c-14 0 -23.667 5 -29 15z" />
    <glyph glyph-name="parenright" unicode=")" horiz-adv-x="265" 
d="M51 -65c65.333 125.333 98 259.333 98 402c0 125.333 -32.333 246.666 -97 363.999c-4.66699 8.66699 -5.5 15.667 -2.5 21s8.83301 8 17.5 8h13c13.333 0 23 -5.66699 29 -17c68.667 -116.667 103 -242 103 -376c0 -152 -34.333 -290.333 -103 -415
c-7.33301 -11.333 -17.333 -17 -30 -17h-11c-9.33301 0 -15.5 2.83301 -18.5 8.5s-2.5 12.834 1.5 21.501z" />
    <glyph glyph-name="asterisk" unicode="*" horiz-adv-x="477" 
d="M138 352l-11.998 8.00098c-14 9.33301 -15.333 20.666 -4 33.999l78 101v2l-123 36c-16 4 -21.333 14 -16 30l4 14c5.33301 16 15.666 21 30.999 15l121 -43l-4 129c-2 16.667 5.66699 25 23 25h18c17.333 0 25 -8.33301 23 -25l-4 -129l122 43
c15.333 7.33301 25.666 2.33301 30.999 -15l4 -14c6 -16 0.666992 -26 -16 -30l-123 -36v-2l78 -100c10 -14 8.33301 -25.667 -5 -35l-11 -8c-14 -10 -25.667 -8.33301 -35 5l-72 106h-2l-71 -105c-10 -13.333 -21.667 -15.333 -35 -6z" />
    <glyph glyph-name="plus" unicode="+" horiz-adv-x="606" 
d="M273 255h-206c-16.667 0 -25 8 -25 24v9c0 16.667 8.33301 25 25 25h206v230c0 16.667 8 25 24 25h13c16 0 24 -8.33301 24 -25v-230h205c16.667 0 25 -8.33301 25 -25v-9c0 -16 -8.33301 -24 -25 -24h-205v-230c0 -16.667 -8 -25 -24 -25h-13c-16 -0 -24 8.33301 -24 25
v230z" />
    <glyph glyph-name="comma" unicode="," horiz-adv-x="230" 
d="M37 -102l54.001 163c4 14 13.667 21 29 21h24c9.33301 0 15.833 -2.66699 19.5 -8s3.5 -12.333 -0.5 -21l-67 -163c-4.66699 -12.667 -14.334 -19 -29.001 -19h-9c-18.667 0 -25.667 9 -21 27z" />
    <glyph glyph-name="hyphen" unicode="-" horiz-adv-x="423" 
d="M329 253h-235c-16 0 -24 8 -24 24v13c0 16.667 8 25 24 25h235c16 0 24 -8.33301 24 -25v-13c0 -16 -8 -24 -24 -24z" />
    <glyph glyph-name="period" unicode="." horiz-adv-x="219" 
d="M69 25v34c0 16 8 24 24 24h33c16 0 24 -8 24 -24v-34c0 -16.667 -8 -25 -24 -25h-33c-16 -0 -24 8.33301 -24 25z" />
    <glyph glyph-name="slash" unicode="/" horiz-adv-x="385" 
d="M47 -14l238 736c5.33301 13.333 14.666 20 27.999 20h14c18.667 0 25.334 -9.33301 20.001 -28l-238 -736c-5.33301 -13.333 -14.666 -20 -27.999 -20h-14c-18.667 0 -25.334 9.33301 -20.001 28z" />
    <glyph glyph-name="zero" unicode="0" horiz-adv-x="620" 
d="M67 352c0 71.333 7 133 21 185c15.333 54 42 97.167 80 129.5s85.333 48.5 142 48.5c58.667 0 106.667 -16.667 144 -50c36 -32 61.5 -73.333 76.5 -124s22.5 -113.667 22.5 -189c0 -242.667 -81 -364 -243 -364s-243 121.333 -243 364zM481 352
c0 198.667 -57 298 -171 298s-171 -99.333 -171 -298c0 -199.333 57 -299 171 -299s171 99.667 171 299z" />
    <glyph glyph-name="one" unicode="1" horiz-adv-x="447" 
d="M46 25v12c0 16.667 8.33301 25 25 25h133v516l1 39h-2c-4.66699 -9.33301 -16 -23 -34 -41l-59 -58c-10.667 -12 -22 -12 -34 0l-9 10c-12.667 10.667 -13 22 -1 34l129 128c8.66699 8.66699 18.667 13 30 13h23c16 0 24 -8.33301 24 -25v-616h130
c16.667 0 25 -8.33301 25 -25v-12c0 -16.667 -8.33301 -25 -25 -25h-331c-16.667 -0 -25 8.33301 -25 25z" />
    <glyph glyph-name="two" unicode="2" horiz-adv-x="551" 
d="M52 25l0.000976562 19.999c0 33.333 6.66699 64.5 20 93.5s30.5 54 51.5 75s44.333 41 70 60l77 54.5c25.667 17.333 49 35 70 53s38.167 38.333 51.5 61s20 46.667 20 72c0 40 -13.333 72.5 -40 97.5s-62 37.5 -106 37.5c-58.667 0 -106.334 -25.333 -143.001 -76
c-11.333 -13.333 -23 -15.333 -35 -6l-11 9c-12.667 9.33301 -14.667 20.333 -6 33c18 26.667 43.333 50.667 76 72c32.667 22.667 73.667 34 123 34c64.667 0 116.667 -18.667 156 -56s59 -84.333 59 -141c0 -36.667 -9 -71 -27 -103
c-10.667 -19.333 -25.334 -38.5 -44.001 -57.5s-33.667 -32.667 -45 -41l-63 -45.5l-86 -61c-27.333 -18.667 -49.666 -41.167 -66.999 -67.5s-26 -53.166 -26 -80.499h344c16.667 0 25 -8.33301 25 -25v-12c0 -16.667 -8.33301 -25 -25 -25h-392c-18 -0 -27 8.33301 -27 25
z" />
    <glyph glyph-name="three" unicode="3" horiz-adv-x="552" 
d="M68 68c-10.667 10.667 -11.3311 22.333 -1.99805 35l12 15c9.33301 11.333 20.666 12 33.999 2c50 -44 103.667 -66 161 -66c44 0 81.667 14.333 113 43c32 28.667 48 65 48 109c0 47.333 -17.333 84 -52 110c-33.333 26.667 -75 40 -125 40h-28
c-12.667 0 -21.667 6 -27 18l-3 5c-4.66699 11.333 -2.66699 22.333 6 33l163 191l37 39v2c-12.667 -2 -31.667 -3 -57 -3h-239c-16.667 0 -25 8.33301 -25 25v12c0 16.667 8.33301 25 25 25h361c16.667 0 25 -7.66699 25 -23v-5c0 -12 -3.66699 -22.333 -11 -31l-199 -229
c24 -2 47.833 -6.66699 71.5 -14s47.167 -18.5 70.5 -33.5s42.166 -36.333 56.499 -64s21.5 -59.5 21.5 -95.5c0 -61.333 -22 -113.333 -66 -156c-43.333 -42.667 -98.333 -64 -165 -64c-74 0 -142.667 26.667 -206 80z" />
    <glyph glyph-name="four" unicode="4" horiz-adv-x="588" 
d="M378 195h-327c-16 0 -24 8 -24 24v4c0 12 3 22 9 30l326 435c8 10 18 15 30 15h31c16 0 24 -8.33301 24 -25v-423h76c16 0 24 -8 24 -24v-12c0 -16 -7.33301 -24 -22 -24h-78v-170c0 -16.667 -8 -25 -24 -25h-20c-16.667 -0 -25 8.33301 -25 25v170zM110 257v-2h268v295
l4 67h-2c-9.33301 -16.667 -21 -34.667 -35 -54z" />
    <glyph glyph-name="five" unicode="5" horiz-adv-x="547" 
d="M79 70c-11.333 11.333 -11.3311 22.667 0.00195312 34l12 14c11.333 11.333 22.666 11.333 33.999 0c38.667 -42.667 86 -64 142 -64c49.333 0 90.666 15.667 123.999 47c34 31.333 51 70.666 51 117.999c0 48.667 -17 88.334 -51 119.001c-34.667 31.333 -77 47 -127 47
c-34.667 0 -72 -10 -112 -30c-10.667 -6 -21.667 -7 -33 -3l-7 2c-13.333 5.33301 -19.333 15 -18 29l33 297c2 15.333 10.667 23 26 23h292c16.667 0 25 -8.33301 25 -25v-12c0 -16.667 -8.33301 -25 -25 -25h-255l-20 -180l-7 -40h2c28.667 18 64.334 27 107.001 27
c70.667 0 128.334 -22.333 173.001 -67c46 -44 69 -98 69 -162s-23.667 -118.667 -71 -164c-46.667 -44.667 -104.334 -67 -173.001 -67c-74.667 0 -138.334 27.333 -191.001 82z" />
    <glyph glyph-name="six" unicode="6" horiz-adv-x="585" 
d="M60 317c0 36.667 3.66895 73.3311 11.002 109.998s19.166 72.334 35.499 107.001s36.166 65.334 59.499 92.001s52.5 48.167 87.5 64.5s73.5 24.5 115.5 24.5c40.667 0 76 -6.33301 106 -19c15.333 -6 20 -16.667 14 -32l-7 -16c-6 -13.333 -16.667 -18 -32 -14
c-25.333 10.667 -52 16 -80 16c-68 0 -122.667 -28 -164 -84c-40.667 -56.667 -64.334 -123.334 -71.001 -200.001h2c17.333 26 42.333 46.5 75 61.5s68 22.5 106 22.5c62.667 0 114.667 -21 156 -63c40.667 -40.667 61 -94.667 61 -162
c0 -71.333 -21 -128.666 -63 -171.999s-94.667 -65 -158 -65c-75.333 0 -136.666 31 -183.999 93c-46.667 61.333 -70 140 -70 236zM135.002 265.997c0 -49.333 17.001 -97.333 51.001 -144c34.667 -46 77 -69 127 -69c46 0 82.833 15.667 110.5 47s41.5 72.333 41.5 123
c0 50 -14.667 90 -44 120s-68.333 45 -117 45c-44.667 0 -84.334 -12.667 -119.001 -38c-33.333 -25.333 -50 -53.333 -50 -84z" />
    <glyph glyph-name="seven" unicode="7" horiz-adv-x="503" 
d="M102 29l269.999 546.999l38 65v2c-14.667 -1.33301 -32 -2 -52 -2h-304c-16.667 0 -25 8.33301 -25 25v12c0 16.667 8.33301 25 25 25h407c16.667 0 25 -7.66699 25 -23v-9c0 -11.333 -2.33301 -21.666 -7 -30.999l-310 -622c-6 -12 -15.667 -18 -29 -18h-20
c-9.33301 0 -15.666 2.66699 -18.999 8s-3 12.333 1 21z" />
    <glyph glyph-name="eight" unicode="8" horiz-adv-x="593" 
d="M59 198c0 56.667 17.666 103.331 52.999 139.998c26 26.667 47.333 45.334 64 56.001c-59.333 39.333 -89 87 -89 143c0 49.333 18.333 91.333 55 126s89.334 52 158.001 52c64.667 0 116.667 -16.667 156 -50s59 -77 59 -131c0 -31.333 -7.33301 -62.666 -22 -93.999
c-18 -40 -39.667 -72.667 -65 -98c68.667 -38.667 103 -89.334 103 -152.001c0 -55.333 -22.333 -103 -67 -143c-44.667 -39.333 -100 -59 -166 -59s-122.333 19.333 -169 58s-70 89.334 -70 152.001zM319.999 389.997l51 -21c50 50 75 102.667 75 158
c0 38 -13.333 68.333 -40 91s-62 34 -106 34c-43.333 0 -78 -10.833 -104 -32.5s-39 -49.167 -39 -82.5c0 -15.333 3.33301 -29.333 10 -42c6.66699 -14 14 -25 22 -33s20.667 -17 38 -27c19.333 -11.333 33.333 -19 42 -23zM129.999 202.997
c0 -44 16.668 -80.668 50.001 -110.001c33.333 -28 72.333 -42 117 -42c42 0 79.667 13 113 39c33.333 27.333 50 60 50 98c0 36.667 -16.333 66 -49 88c-14.667 10 -30.334 19.333 -47.001 28l-66 30l-67 29c-67.333 -47.333 -101 -100.666 -101 -159.999z" />
    <glyph glyph-name="nine" unicode="9" horiz-adv-x="585" 
d="M97 38l7.00098 18c5.33301 13.333 15.666 17.666 30.999 12.999c26 -10.667 52.667 -16 80 -16c48 0 89.333 14.333 124 43c65.333 54 102.333 134.333 111 241h-2c-17.333 -25.333 -42.5 -45.666 -75.5 -60.999s-68.5 -23 -106.5 -23c-62.667 0 -114.334 21 -155.001 63
c-40.667 42.667 -61 97 -61 163c0 71.333 21 128.333 63 171c42 43.333 94.667 65 158 65c75.333 0 136.333 -31 183 -93c47.333 -62.667 71 -141.334 71 -236.001c0 -95.333 -24.333 -183.666 -73 -264.999c-24 -40.667 -56.667 -73 -98 -97s-87.333 -36 -138 -36
c-38.667 0 -74 6.33301 -106 19c-15.333 6 -19.666 16.333 -12.999 31zM282.001 315c45.333 0 84.667 12.667 118 38s50 53.333 50 84c0 50 -17.333 97.667 -52 143c-34 46.667 -76 70 -126 70c-46 0 -82.667 -15.667 -110 -47s-41 -72.333 -41 -123
c0 -50 14.5 -90 43.5 -120s68.167 -45 117.5 -45z" />
    <glyph glyph-name="colon" unicode=":" horiz-adv-x="219" 
d="M125 423h-29c-16.667 0 -25 8.33301 -25 25v30c0 16.667 8.33301 25 25 25h29c16 0 24 -8.33301 24 -25v-30c0 -16.667 -8 -25 -24 -25zM71 25v30c0 16.667 8.33301 25 25 25h29c16 0 24 -8.33301 24 -25v-30c0 -16.667 -8 -25 -24 -25h-29
c-16.667 -0 -25 8.33301 -25 25z" />
    <glyph glyph-name="semicolon" unicode=";" horiz-adv-x="270" 
d="M169 420h-31c-16.667 0 -25 8 -25 24v34c0 16.667 8.33301 25 25 25h31c16.667 0 25 -8.33301 25 -25v-34c0 -16 -8.33301 -24 -25 -24zM66 -102l46 163c3.33301 14 12.666 21 27.999 21h25c8.66699 0 14.834 -2.66699 18.501 -8s3.83398 -12.333 0.500977 -21l-59 -163
c-4.66699 -12.667 -14.334 -19 -29.001 -19h-9c-19.333 0 -26.333 9 -21 27z" />
    <glyph glyph-name="less" unicode="&#x3c;" horiz-adv-x="606" 
d="M485 69l-405 180.998c-12.667 6 -19 15.667 -19 29v10c0 14 6.33301 23.333 19 28l405 181c8.66699 4 15.5 4.33301 20.5 1s7.5 -9.66602 7.5 -18.999v-16c0 -14 -6.33301 -23.333 -19 -28l-348 -151v-2l348 -151c12.667 -4.66699 19 -14 19 -28v-16
c0 -9.33301 -2.5 -15.666 -7.5 -18.999s-11.833 -3.33301 -20.5 0z" />
    <glyph glyph-name="equal" unicode="=" horiz-adv-x="606" 
d="M511 342h-416c-16.667 0 -25 8 -25 24v9c0 16.667 8.33301 25 25 25h416c16.667 0 25 -8.33301 25 -25v-9c0 -16 -8.33301 -24 -25 -24zM511 168h-416c-16.667 0 -25 8 -25 24v9c0 16.667 8.33301 25 25 25h416c16.667 0 25 -8.33301 25 -25v-9
c0 -16 -8.33301 -24 -25 -24z" />
    <glyph glyph-name="greater" unicode="&#x3e;" horiz-adv-x="606" 
d="M93 88v16.002c0 14 6.33301 23.333 19 28l348 151v2l-348 151c-12.667 4.66699 -19 14 -19 28v16c0 9.33301 2.5 15.666 7.5 18.999s11.833 3 20.5 -1l405 -181c12.667 -4.66699 19 -14 19 -28v-10c0 -13.333 -6.33301 -23 -19 -29l-405 -180
c-8.66699 -4 -15.5 -4.33301 -20.5 -1s-7.5 9.66602 -7.5 18.999z" />
    <glyph glyph-name="question" unicode="?" horiz-adv-x="444" 
d="M206 184l-19.001 0.00195312c-16.667 0 -25 8.33301 -25 25v23c0 51.333 20.333 96.666 61 135.999l25.5 23l27 25c5.66699 5.33301 13.167 13.5 22.5 24.5s16.333 20.667 21 29s8.83398 18.5 12.501 30.5s5.5 24 5.5 36c0 32.667 -12.333 60 -37 82s-56 33 -94 33
c-34.667 0 -68.334 -9.66699 -101.001 -29c-15.333 -8 -26.666 -6 -33.999 6l-8 12c-10.667 13.333 -9 24.666 5 33.999c42 28 89 42 141 42c56.667 0 104.334 -16.667 143.001 -50c38 -33.333 57 -75.666 57 -126.999c0 -56.667 -20.667 -104.334 -62 -143.001
c-4.66699 -4.66699 -14.667 -13.834 -30 -27.501s-26.333 -24.167 -33 -31.5s-15 -17.166 -25 -29.499s-17.167 -25 -21.5 -38s-6.83301 -26.5 -7.5 -40.5l-1 -24c-0.666992 -14 -8.33398 -21 -23.001 -21zM156.999 25.002v29c0 16.667 8 25 24 25h30
c16 0 24 -8.33301 24 -25v-29c0 -16.667 -8 -25 -24 -25h-30c-16 0 -24 8.33301 -24 25z" />
    <glyph glyph-name="at" unicode="@" horiz-adv-x="777" 
d="M57 242c0 102 34.667 188.668 104 260.001s153.333 107 252 107c84.667 0 146.334 -18 185.001 -54c40 -36 60 -81 60 -135v-315h46c16 0 24 -8.33301 24 -25v-6c0 -16.667 -8 -25 -24 -25h-244c-56.667 0 -104.334 18.667 -143.001 56c-38 38 -57 83.333 -57 136
s19 97.667 57 135c38 38 85.667 57 143 57h130c-1.33301 35.333 -16.833 63.833 -46.5 85.5s-71.5 32.5 -125.5 32.5c-81.333 0 -150.333 -30.333 -207 -91c-56 -60.667 -84 -133.334 -84 -218.001c0 -80.667 25.667 -150.667 77 -210
c51.333 -58.667 116.333 -90.334 195 -95.001c16 -2 24 -10.333 24 -25v-11c0 -16.667 -8.33301 -24.667 -25 -24c-98 6 -179.333 44 -244 114c-64.667 68.667 -97 152.334 -97 251.001zM466 105.001l124 -0.00195312v275h-122c-38.667 0 -71.667 -13.667 -99 -41
c-26 -27.333 -39 -59.666 -39 -96.999s13 -69.666 39 -96.999c26.667 -26.667 59 -40 97 -40z" />
    <glyph glyph-name="A" unicode="A" horiz-adv-x="609" 
d="M27 29l242.001 654c4 13.333 13 20 27 20h33c14 0 23 -6.66699 27 -20l242 -654c5.33301 -19.333 -1.33398 -29 -20.001 -29h-22c-14.667 0 -24 6.66699 -28 20l-75 204h-282l-74 -204c-4 -13.333 -13.333 -20 -28 -20h-21c-19.333 0 -26.333 9.66699 -21 29z
M285.001 539l-94 -255h242l-93 255l-26 92h-2c-12 -42 -21 -72.667 -27 -92z" />
    <glyph glyph-name="B" unicode="B" horiz-adv-x="611" 
d="M98 25v653c0 16.667 8 25 24 25h216c56.667 0 102.667 -16.167 138 -48.5s53 -75.166 53 -128.499c0 -72 -30 -123 -90 -153v-2c36 -10 64.667 -30.833 86 -62.5s32 -68.834 32 -111.501c0 -60.667 -20 -108.667 -60 -144c-40.667 -35.333 -91 -53 -151 -53h-224
c-16 -0 -24 8.33301 -24 25zM167 641l-0.000976562 -243.002h171c35.333 0 64 11.333 86 34s33 52.334 33 89.001s-10.667 65.834 -32 87.501s-50.666 32.5 -87.999 32.5h-170zM166.999 337.998l-0.000976562 -276h180c42.667 0 76.334 12.333 101.001 37s37 58 37 100
s-12.833 75.667 -38.5 101s-59.167 38 -100.5 38h-179z" />
    <glyph glyph-name="C" unicode="C" horiz-adv-x="710" 
d="M51 356c0 102.667 32.998 188.001 98.998 256.001c66.667 68.667 151.334 103 254.001 103c93.333 0 172 -25 236 -75c11.333 -9.33301 12.666 -21 3.99902 -35l-9 -13c-9.33301 -12 -20.666 -13.333 -33.999 -4c-59.333 41.333 -124.333 62 -195 62
c-84 0 -152.333 -28 -205 -84c-52 -54.667 -78 -124.334 -78 -209.001c0 -85.333 26.333 -157.333 79 -216s121.667 -88 207 -88c76.667 0 146.334 25.333 209.001 76c12.667 10.667 24 9.66699 34 -3l9 -11c10 -12 9.33301 -23.667 -2 -35
c-72.667 -61.333 -156.667 -92 -252 -92c-105.333 0 -191 35 -257 105c-66 71.333 -99 159 -99 263z" />
    <glyph glyph-name="D" unicode="D" horiz-adv-x="731" 
d="M98 25l0.000976562 653c0 16.667 8 25 24 25h203c107.333 0 192.666 -31.333 255.999 -94c64.667 -62 97 -147.667 97 -257c0 -110.667 -32 -197 -96 -259s-149.667 -93 -257 -93h-203c-16 -0 -24 8.33301 -24 25zM167.001 641v-579h151
c88.667 0 158.834 25.5 210.501 76.5s77.5 122.167 77.5 213.5s-25.833 162.333 -77.5 213s-121.834 76 -210.501 76h-151z" />
    <glyph glyph-name="E" unicode="E" horiz-adv-x="553" 
d="M98 25v653c0 16.667 8 25 24 25h347c16.667 0 25 -8.33301 25 -25v-12c0 -16.667 -8.33301 -25 -25 -25h-302v-256h242c16.667 0 25 -8 25 -24v-13c0 -16.667 -8.33301 -25 -25 -25h-242v-261h320c16.667 0 25 -8.33301 25 -25v-12c0 -16.667 -8.33301 -25 -25 -25h-365
c-16 -0 -24 8.33301 -24 25z" />
    <glyph glyph-name="F" unicode="F" horiz-adv-x="498" 
d="M98 25v653c0 16.667 8 25 24 25h321c16.667 0 25 -8.33301 25 -25v-12c0 -16.667 -8.33301 -25 -25 -25h-276v-264h234c16 0 24 -8 24 -24v-13c0 -16.667 -8 -25 -24 -25h-234v-290c0 -16.667 -8 -25 -24 -25h-21c-16 -0 -24 8.33301 -24 25z" />
    <glyph glyph-name="G" unicode="G" horiz-adv-x="748" 
d="M51 351c0 102 33.666 188.333 100.999 259c68 70 152.667 105 254 105c90.667 0 167.667 -22.333 231 -67c13.333 -10 14.666 -21.333 3.99902 -34l-9 -13c-9.33301 -13.333 -20.666 -15.333 -33.999 -6c-57.333 36.667 -120.666 55 -189.999 55
c-84 0 -152.667 -28.667 -206 -86c-52.667 -56.667 -79 -127 -79 -211c0 -86.667 26.333 -158.334 79 -215.001s119.334 -85 200.001 -85c48 0 91.167 10.333 129.5 31s66.166 41.334 83.499 62.001l9 10v118h-96c-16 0 -24 8.33301 -24 25v12c0 16.667 8 25 24 25h137
c16 0 24 -8.33301 24 -25v-286c0 -16.667 -8 -25 -24 -25h-14c-16.667 -0 -25 7.33301 -25 22v36l1 26h-2c-5.33301 -7.33301 -18 -18.666 -38 -33.999c-52 -39.333 -115.667 -60 -191 -62c-96.667 0 -178.667 34.667 -246 104c-66 69.333 -99 155.666 -99 258.999z" />
    <glyph glyph-name="H" unicode="H" horiz-adv-x="742" 
d="M98 25v653c0 16.667 8 25 24 25h21c16 0 24 -8.33301 24 -25v-295h408v295c0 16.667 8 25 24 25h20c16.667 0 25 -8.33301 25 -25v-653c0 -16.667 -8.33301 -25 -25 -25h-20c-16 -0 -24 8.33301 -24 25v296h-408v-296c0 -16.667 -8 -25 -24 -25h-21
c-16 -0 -24 8.33301 -24 25z" />
    <glyph glyph-name="I" unicode="I" horiz-adv-x="265" 
d="M98 25v653c0 16.667 8 25 24 25h21c16 0 24 -8.33301 24 -25v-653c0 -16.667 -8 -25 -24 -25h-21c-16 -0 -24 8.33301 -24 25z" />
    <glyph glyph-name="J" unicode="J" horiz-adv-x="510" 
d="M26 201c0 16 8 24.001 24 24.001h22c8 0 13.5 -1.83301 16.5 -5.5s5.16699 -10.834 6.5 -21.501c4.66699 -96.667 47.334 -145 128.001 -145c38 0 68.833 12 92.5 36s35.5 60 35.5 108v444h-147c-16 0 -24 8.33301 -24 25v12c0 16.667 8 25 24 25h192
c16.667 0 25 -8.33301 25 -25v-481c0 -70.667 -19.333 -123.334 -58 -158.001c-39.333 -34 -86 -51 -140 -51c-54.667 0 -101.334 17.333 -140.001 52c-38 34.667 -57 88.334 -57 161.001z" />
    <glyph glyph-name="K" unicode="K" horiz-adv-x="583" 
d="M98 25l-0.000976562 653.001c0 16.667 8 25 24 25h21c16 0 24 -8.33301 24 -25v-280h119l179 288c7.33301 11.333 17 17 29 17h25c10 0 16.667 -2.83301 20 -8.5s2.33301 -12.834 -3 -21.501l-192 -302v-2l206 -340c5.33301 -8 6.33301 -14.833 3 -20.5
s-9.66602 -8.5 -18.999 -8.5h-28c-12 0 -21.667 5.66699 -29 17l-191 319h-119v-311c0 -16.667 -8 -25 -24 -25h-21c-16 -0 -24 8.33301 -24 25z" />
    <glyph glyph-name="L" unicode="L" horiz-adv-x="499" 
d="M98 25v653c0 16.667 8 25 24 25h21c16 0 24 -8.33301 24 -25v-616h301c16.667 0 25 -8.33301 25 -25v-12c0 -16.667 -8.33301 -25 -25 -25h-346c-16 -0 -24 8.33301 -24 25z" />
    <glyph glyph-name="M" unicode="M" horiz-adv-x="837" 
d="M75 26l53 653.999c1.33301 15.333 9.66602 23 24.999 23h27c14.667 0 24.334 -6.33301 29.001 -19l176 -394l35 -86h2c14 38 25.333 66.667 34 86l176 394c6 12.667 15.667 19 29 19h27c15.333 0 23.666 -7.66699 24.999 -23l53 -654
c1.33301 -17.333 -6.66699 -26 -24 -26h-20c-15.333 0 -23.666 7.66699 -24.999 23l-37 469l-3 98h-2c-13.333 -42 -25.333 -74.667 -36 -98l-158 -342c-4.66699 -12.667 -14 -19 -28 -19h-24c-14.667 0 -24.334 6.33301 -29.001 19l-157 342l-37 100h-2
c0 -41.333 -1 -74.666 -3 -99.999l-37 -469c-1.33301 -15.333 -9.66602 -23 -24.999 -23h-20c-17.333 0 -25.333 8.66699 -24 26z" />
    <glyph glyph-name="N" unicode="N" horiz-adv-x="745" 
d="M98 25l0.000976562 652.999c0 16.667 8 25 24 25h24c12 0 22 -5.33301 30 -16l348 -490l58 -95h2c-4 38.667 -6 70.334 -6 95.001v481c0 16.667 8.33301 25 25 25h20c16 0 24 -8.33301 24 -25v-653c0 -16.667 -8 -25 -24 -25h-24c-12.667 -0 -22.334 5.33301 -29.001 16
l-349 490l-58 95h-2c4 -39.333 6 -71 6 -95v-481c0 -16.667 -8 -25 -24 -25h-21c-16 -0 -24 8.33301 -24 25z" />
    <glyph glyph-name="O" unicode="O" horiz-adv-x="817" 
d="M50 356c0 101.333 34.001 186.333 102.001 255c69.333 69.333 154.666 104 255.999 104c102.667 0 188 -34.667 256 -104c68 -68.667 102 -153.667 102 -255c0 -104 -34 -191.333 -102 -262s-153.333 -106 -256 -106c-102 0 -187.333 35.333 -256 106
c-68 70.667 -102 158 -102 262zM122.001 356c0 -86 27.001 -158 81.001 -216c55.333 -58 123.666 -87 204.999 -87c82 0 150 29 204 87c54.667 57.333 82 129.333 82 216c0 84.667 -27.333 154.667 -82 210c-54 56 -122 84 -204 84s-150.333 -28 -205 -84
c-54 -56 -81 -126 -81 -210z" />
    <glyph glyph-name="P" unicode="P" horiz-adv-x="589" 
d="M98 25v653c0 16.667 8 25 24 25h219c64.667 0 116.667 -19.333 156 -58c40.667 -38.667 61 -90 61 -154c0 -65.333 -20.333 -117.333 -61 -156c-40.667 -39.333 -92.667 -59 -156 -59h-174v-251c0 -16.667 -8 -25 -24 -25h-21c-16 -0 -24 8.33301 -24 25zM167 641v-303
h165c47.333 0 85 13.667 113 41s42 64.666 42 111.999c0 46.667 -13.833 83.334 -41.5 110.001s-65.167 40 -112.5 40h-166z" />
    <glyph glyph-name="Q" unicode="Q" horiz-adv-x="817" 
d="M51 356c0 101.333 34.001 186.333 102.001 255c69.333 69.333 154.333 104 255 104c103.333 0 189 -34.333 257 -103c68 -69.333 102 -154.666 102 -255.999c0 -96 -29.333 -176.667 -88 -242l69 -70c13.333 -10.667 13.666 -22.334 0.999023 -35.001l-8 -8
c-12 -12 -23 -12.333 -33 -1l-70 71c-65.333 -55.333 -142 -83 -230 -83c-102 0 -187 35.333 -255 106s-102 158 -102 262zM123.001 356c0 -85.333 27.333 -157.334 82 -216.001c55.333 -58 123 -87 203 -87c70 0 130.667 21.667 182 65l-69 71
c-12 11.333 -12.333 22.666 -1 33.999l8 8c10.667 12.667 22 13.334 34 2.00098l68 -71c43.333 54.667 65 119.334 65 194.001c0 83.333 -27.667 153.333 -83 210c-54.667 56 -122.667 84 -204 84c-80 0 -147.667 -28 -203 -84c-54.667 -55.333 -82 -125.333 -82 -210z" />
    <glyph glyph-name="R" unicode="R" horiz-adv-x="609" 
d="M98 25l-0.00195312 652.998c0 16.667 8 25 24 25h190c55.333 0 98 -6.66699 128 -20c69.333 -33.333 104 -92 104 -176c0 -47.333 -12.167 -88.666 -36.5 -123.999s-56.5 -58.666 -96.5 -69.999v-2c5.33301 -6.66699 11.333 -16 18 -28l137 -254
c4.66699 -8.66699 5.33398 -15.667 2.00098 -21s-9.66602 -8 -18.999 -8h-26c-13.333 0 -23 5.66699 -29 17l-150 279h-177v-271c0 -16.667 -8 -25 -24 -25h-21c-16 -0 -24 8.33301 -24 25zM166.998 640.998v-283.001h167c42 0 75.667 13.5 101 40.5s38 62.5 38 106.5
c0 28 -6.5 52.833 -19.5 74.5s-31.167 37.834 -54.5 48.501c-18 8.66699 -48.667 13 -92 13h-140z" />
    <glyph glyph-name="S" unicode="S" horiz-adv-x="526" 
d="M72 62c-10.667 10.667 -11.665 22.335 -2.99805 35.002l12 15c10 12 21.667 13 35 3c48.667 -40.667 102.667 -61 162 -61c42.667 0 77.167 11 103.5 33s39.5 51 39.5 87c0 32 -12 59.5 -36 82.5s-53.167 41.833 -87.5 56.5l-103 46c-34.333 16 -63.5 38 -87.5 66
s-36 62 -36 102c0 56.667 21 102 63 136c41.333 34.667 93.666 52 156.999 52c67.333 0 124.333 -18.333 171 -55c12 -9.33301 14 -20.333 6 -33l-9 -16c-8.66699 -13.333 -20.334 -15.666 -35.001 -6.99902c-44 30 -89 45 -135 45c-42 0 -77 -10.833 -105 -32.5
s-42 -50.167 -42 -85.5c0 -22.667 6.5 -42.834 19.5 -60.501s29.667 -32.167 50 -43.5s43 -22.333 68 -33s50 -22 75 -34s47.667 -25.333 68 -40s37 -33.834 50 -57.501s19.5 -50.834 19.5 -81.501c0 -55.333 -19.333 -101.333 -58 -138s-90.667 -55 -156 -55
c-78 0 -146.667 24.667 -206 74z" />
    <glyph glyph-name="T" unicode="T" horiz-adv-x="586" 
d="M258 25v616h-227c-16.667 0 -25 8.33301 -25 25v12c0 16.667 8.33301 25 25 25h524c16.667 0 25 -8.33301 25 -25v-12c0 -16.667 -8.33301 -25 -25 -25h-228v-616c0 -16.667 -8 -25 -24 -25h-20c-16.667 -0 -25 8.33301 -25 25z" />
    <glyph glyph-name="U" unicode="U" horiz-adv-x="715" 
d="M88 245v432.999c0 16.667 8.33301 25 25 25h20c16.667 0 25 -8.33301 25 -25v-432c0 -60 18 -107.167 54 -141.5s84.333 -51.5 145 -51.5c61.333 0 110 17.333 146 52s54 82.334 54 143.001v430c0 16.667 8.33301 25 25 25h20c16 0 24 -8.33301 24 -25v-433
c0 -77.333 -24.667 -139.666 -74 -186.999c-48.667 -46.667 -113.334 -70 -194.001 -70c-81.333 0 -146.666 23.333 -195.999 70c-49.333 47.333 -74 109.666 -74 186.999z" />
    <glyph glyph-name="V" unicode="V" horiz-adv-x="610" 
d="M271 20l-243.003 654.001c-7.33301 19.333 -0.666016 29 20.001 29h23c14.667 0 24 -6.66699 28 -20l187 -514l27 -91h2c9.33301 35.333 18.333 65.666 27 90.999l189 514c4 13.333 13 20 27 20h24c18.667 0 25.334 -9.66699 20.001 -29l-243 -654
c-5.33301 -13.333 -14.666 -20 -27.999 -20h-33c-14 0 -23 6.66699 -27 20z" />
    <glyph glyph-name="W" unicode="W" horiz-adv-x="930" 
d="M219 22l-170 654.001c-4 18 3.33301 27 22 27h22c14 0 23 -7.33301 27 -22l131 -524l16 -75h2c6 32.667 11.667 57.667 17 75l145 525c4 14 13 21 27 21h23c14 0 23 -7 27 -21l144 -525l18 -75h2c4 26 9 51 15 75l137 524c4 14.667 13 22 27 22h22
c8.66699 0 15 -2.33301 19 -7s4.66699 -11.334 2 -20.001l-174 -655c-4 -14 -13.333 -21 -28 -21h-38c-14.667 0 -24 7 -28 21l-130 474l-25 105h-3c-8.66699 -43.333 -17 -78.333 -25 -105l-131 -474c-4 -14 -13 -21 -27 -21h-39c-14 -0 -23 7.33301 -27 22z" />
    <glyph glyph-name="X" unicode="X" horiz-adv-x="566" 
d="M37 29l206 337.999l-186 307c-5.33301 8 -6.33301 14.833 -3 20.5s10 8.5 20 8.5h27c12 0 21.667 -5.66699 29 -17l113 -191l46 -81h2c14.667 32 29 59 43 81l114 191c7.33301 11.333 17 17 29 17h27c10 0 16.667 -2.83301 20 -8.5s2.33301 -12.5 -3 -20.5l-188 -307
l206 -338c6 -8 7.33301 -14.833 4 -20.5s-10 -8.5 -20 -8.5h-25c-12 0 -21.667 5.66699 -29 17l-137 226l-44 78h-2c-14.667 -29.333 -29 -55.666 -43 -78.999l-135 -225c-7.33301 -11.333 -17 -17 -29 -17h-25c-10 -0 -16.667 2.83301 -20 8.5s-2.33301 12.5 3 20.5z" />
    <glyph glyph-name="Y" unicode="Y" horiz-adv-x="554" 
d="M248 25l0.00292969 277l-221 372c-5.33301 8 -6.33301 14.833 -3 20.5s10 8.5 20 8.5h25c13.333 0 23 -5.66699 29 -17l140 -238l43 -84h2c17.333 35.333 31.666 63.333 42.999 84l140 238c6 11.333 15.333 17 28 17h26c9.33301 0 15.666 -2.83301 18.999 -8.5
s2.66602 -12.5 -2.00098 -20.5l-220 -372v-277c0 -16.667 -8.33301 -25 -25 -25h-20c-16 -0 -24 8.33301 -24 25z" />
    <glyph glyph-name="Z" unicode="Z" horiz-adv-x="575" 
d="M33 25l0.000976562 7c0 12 3.33301 22.333 10 31l354 514c9.33301 14.667 23.666 33.667 42.999 57l6 7v2c-14.667 -1.33301 -32 -2 -52 -2h-317c-16 0 -24 8.33301 -24 25v12c0 16.667 8 25 24 25h430c16.667 0 25 -8 25 -24v-8c0 -12 -3.33301 -22.333 -10 -31
l-354 -514c-14 -22 -28 -40.667 -42 -56l-7 -8v-2c14.667 1.33301 32 2 52 2h340c16 0 24 -8.33301 24 -25v-12c0 -16.667 -8 -25 -24 -25h-453c-16.667 -0 -25 8.33301 -25 25z" />
    <glyph glyph-name="bracketleft" unicode="[" horiz-adv-x="267" 
d="M87 -70v775c0 16.667 8 25 24 25h87c16 0 24 -8.33301 24 -25v-6c0 -16.667 -8 -25 -24 -25h-48v-713h48c16 0 24 -8.33301 24 -25v-6c0 -16.667 -8 -25 -24 -25h-87c-16 0 -24 8.33301 -24 25z" />
    <glyph glyph-name="backslash" unicode="\" horiz-adv-x="385" 
d="M288 -22l-237.998 736c-4.66699 18.667 2.33301 28 21 28h13c13.333 0 22.666 -6.66699 27.999 -20l238 -736c5.33301 -18.667 -1.33398 -28 -20.001 -28h-13c-14 0 -23.667 6.66699 -29 20z" />
    <glyph glyph-name="bracketright" unicode="]" horiz-adv-x="267" 
d="M45 -70v6c0 16.667 8.33301 25 25 25h47v713h-47c-16.667 0 -25 8.33301 -25 25v6c0 16.667 8.33301 25 25 25h86c16 0 24 -8.33301 24 -25v-775c0 -16.667 -8 -25 -24 -25h-86c-16.667 0 -25 8.33301 -25 25z" />
    <glyph glyph-name="asciicircum" unicode="^" horiz-adv-x="606" 
d="M129 250h-13c-20 0 -26.333 9.66699 -19 29l177 405c6 12.667 15.667 19 29 19h6c13.333 0 23 -6.33301 29 -19l177 -405c7.33301 -19.333 1 -29 -19 -29h-14c-14 0 -23.333 6.33301 -28 19l-148 351l-148 -351c-6 -12.667 -15.667 -19 -29 -19z" />
    <glyph glyph-name="underscore" unicode="_" horiz-adv-x="538" 
d="M11 -33v8c0 16.667 8 25 24 25h467c16.667 0 25 -8.33301 25 -25v-8c0 -16.667 -8.33301 -25 -25 -25h-467c-16 0 -24 8.33301 -24 25z" />
    <glyph glyph-name="grave" unicode="`" horiz-adv-x="504" 
d="M300 752l-14.001 -0.000976562c-12 0 -22 5.33301 -30 16l-53 73c-6 8.66699 -7.83301 15.834 -5.5 21.501s8.83301 8.5 19.5 8.5h23c12 0 21.667 -5.66699 29 -17l44 -74c4.66699 -7.33301 5.83398 -13.833 3.50098 -19.5s-7.83301 -8.5 -16.5 -8.5z" />
    <glyph glyph-name="a" unicode="a" horiz-adv-x="508" 
d="M34 135c0 115.333 102.333 172.999 307 172.999h29v16c0 86.667 -41.333 130 -124 130c-42 0 -82.667 -11.667 -122 -35c-14 -7.33301 -25.333 -4.66602 -34 8.00098l-6 10c-8.66699 14.667 -6.33398 26 6.99902 34c47.333 29.333 100.666 44 159.999 44
c60 0 106.167 -16.5 138.5 -49.5s48.5 -80.833 48.5 -143.5v-297c0 -16.667 -8 -25 -24 -25h-16c-16.667 -0 -25 8.33301 -25 25v40l3 38h-2c0.666992 0 -1 -4 -5 -12s-10.333 -17.5 -19 -28.5s-19.167 -22.167 -31.5 -33.5s-28.666 -21 -48.999 -29
s-42.166 -12 -65.499 -12c-46 0 -86 13 -120 39c-33.333 26 -50 62 -50 108zM104 140.999c0 -26.667 10.166 -49.333 30.499 -68s47.5 -28 81.5 -28c46 0 83 19.333 111 58c28.667 38.667 43 82 43 130v24h-28c-22 0 -37.333 -0.333008 -46 -1
c-47.333 -2 -81.666 -7 -102.999 -15c-28 -10 -49.833 -22.5 -65.5 -37.5s-23.5 -35.833 -23.5 -62.5z" />
    <glyph glyph-name="b" unicode="b" horiz-adv-x="581" 
d="M78 25v653c0 16.667 8 25 24 25h19c16.667 0 25 -8.33301 25 -25v-225l-4 -41h2c11.333 19.333 19 31.333 23 36c32.667 42.667 82.667 65 150 67c67.333 0 120.333 -24.333 159 -73c40 -48 60 -111.333 60 -190c0 -79.333 -21.333 -143.333 -64 -192
c-42 -48 -96.333 -72 -163 -72c-42 0 -76.833 10.333 -104.5 31s-47.167 41.667 -58.5 63l-5 11h-2c2.66699 -8.66699 4 -21 4 -37v-33c0 -15.333 -8.33301 -23 -25 -23h-16c-16 -0 -24 8.33301 -24 25zM144 251c0 -54.667 13.668 -102.332 41.001 -142.999
c28 -39.333 67.333 -59 118 -59c46 0 84.667 18 116 54c31.333 37.333 47 86.666 47 147.999c0 60 -14.833 108.667 -44.5 146s-67.834 56 -114.501 56c-48 0 -87.167 -17.667 -117.5 -53s-45.5 -85 -45.5 -149z" />
    <glyph glyph-name="c" unicode="c" horiz-adv-x="532" 
d="M43 251c0 76.667 25.001 139.668 75.001 189.001c50.667 50 113.667 75 189 75c64 0 119.667 -19 167 -57c12 -9.33301 13 -20.666 3 -33.999l-7 -11c-7.33301 -12.667 -18.666 -14.334 -33.999 -5.00098c-39.333 30.667 -81.666 46 -126.999 46
c-56.667 0 -103.334 -19 -140.001 -57c-37.333 -38.667 -56 -87.334 -56 -146.001c0 -58 18.667 -106.333 56 -145c38 -38 85 -57 141 -57c51.333 0 98.666 17.667 141.999 53c13.333 10 24.333 8 33 -6l7 -10c6.66699 -12 4.66699 -23.333 -6 -34
c-52.667 -42.667 -112.334 -64 -179.001 -64c-76.667 0 -139.667 24.333 -189 73c-50 48.667 -75 112 -75 190z" />
    <glyph glyph-name="d" unicode="d" horiz-adv-x="581" 
d="M271 515c42 0 76.999 -10.168 104.999 -30.501s46.333 -40.5 55 -60.5l5 -10h2c-2 10.667 -3 23.334 -3 38.001v226c0 16.667 8.33301 25 25 25h19c16 0 24 -8.33301 24 -25v-653c0 -16.667 -8 -25 -24 -25h-17c-16.667 0 -25 8 -25 24v38l4 31h-2
c-11.333 -18.667 -19.333 -31 -24 -37c-31.333 -43.333 -81.666 -66 -150.999 -68c-66.667 0 -120 24.333 -160 73c-39.333 49.333 -59 113 -59 191c0 78.667 21 142 63 190c42 48.667 96.333 73 163 73zM273.999 48.999c48 0 87.168 17.5 117.501 52.5
s45.5 85.167 45.5 150.5c0 56 -14 103.333 -42 142c-27.333 39.333 -66.666 59 -117.999 59c-46.667 0 -85.334 -18.333 -116.001 -55c-30.667 -35.333 -46 -84 -46 -146c0 -61.333 14.667 -110.5 44 -147.5s67.666 -55.5 114.999 -55.5z" />
    <glyph glyph-name="e" unicode="e" horiz-adv-x="544" 
d="M44 251c0 79.333 23.6689 143.332 71.002 191.999c48 48 107 72 177 72c65.333 0 116.666 -21.667 153.999 -65s56 -101.666 56 -174.999c0 -7.33301 -2.5 -13.333 -7.5 -18s-11.167 -7 -18.5 -7h-362c0.666992 -61.333 20 -110.333 58 -147c37.333 -36 83 -54 137 -54
c49.333 0 93.333 15.333 132 46c14 8.66699 25 6.66699 33 -6l8 -12c7.33301 -13.333 5 -24.333 -7 -33c-51.333 -37.333 -107.333 -56 -168 -56c-74.667 0 -137.334 24.667 -188.001 74c-50 49.333 -75 112.333 -75 189zM117.002 300.999h316
c-2 49.333 -16.167 88 -42.5 116s-59.833 42 -100.5 42c-44 0 -81.833 -14.167 -113.5 -42.5s-51.5 -66.833 -59.5 -115.5z" />
    <glyph glyph-name="f" unicode="f" horiz-adv-x="305" 
d="M95 25v417h-40c-16 0 -24 8 -24 24v8c0 16.667 8 25 24 25h40v23c0 74.667 22 125.667 66 153c36.667 22 71 33 103 33h11c16 0 24 -8.33301 24 -25v-12c0 -15.333 -9 -23.333 -27 -24c-26 -0.666992 -49.333 -7.66699 -70 -21c-26 -17.333 -39 -52.333 -39 -105v-22h104
c16 0 24 -8.33301 24 -25v-8c0 -16 -8 -24 -24 -24h-104v-417c0 -16.667 -8.33301 -25 -25 -25h-19c-16 -0 -24 8.33301 -24 25z" />
    <glyph glyph-name="g" unicode="g" horiz-adv-x="574" 
d="M101 -148l5.99902 13.998c6.66699 12 17.334 15.667 32.001 11c38.667 -17.333 77.667 -26 117 -26c52 0 93.833 13.667 125.5 41s47.5 66.333 47.5 117v52l3 36h-2c-32.667 -62.667 -86 -94 -160 -94c-68 0 -122.333 24 -163 72c-40.667 47.333 -61 110.333 -61 189
c0 74.667 19.667 135.334 59 182.001c40 46 94.333 69 163 69c73.333 0 126.666 -27.667 159.999 -83l4 -9h2c-1.33301 6.66699 -2 12.334 -2 17.001v41c0 14.667 8 22 24 22h16c16.667 0 25 -8.33301 25 -25v-466c0 -74.667 -23.333 -130.334 -70 -167.001
c-45.333 -36.667 -101.666 -55 -168.999 -55c-52.667 0 -101 10 -145 30c-14.667 6.66699 -18.667 17.334 -12 32.001zM279.999 63.998c46 0 82.501 16.167 109.501 48.5s40.5 81.166 40.5 146.499c0 66.667 -13.833 115.834 -41.5 147.501s-65.834 47.5 -114.501 47.5
c-50 0 -88.833 -16.667 -116.5 -50s-41.5 -79.333 -41.5 -138c0 -62 14.833 -111.167 44.5 -147.5s69.5 -54.5 119.5 -54.5z" />
    <glyph glyph-name="h" unicode="h" horiz-adv-x="585" 
d="M78 25l0.000976562 653.002c0 16.667 8 25 24 25h19c16.667 0 25 -8.33301 25 -25v-251l-4 -41h2c12 30.667 35.667 59.667 71 87c36 28 79.333 42 130 42c59.333 0 102.333 -16 129 -48s40 -81 40 -147v-295c0 -16.667 -8 -25 -24 -25h-19c-16.667 0 -25 8.33301 -25 25
v277c0 45.333 -6 79.666 -18 102.999c-14.667 30.667 -45.334 46 -92.001 46c-52.667 0 -97.667 -19.667 -135 -59c-36.667 -38.667 -55 -88.334 -55 -149.001v-218c0 -16.667 -8.33301 -25 -25 -25h-19c-16 -0 -24 8.33301 -24 25z" />
    <glyph glyph-name="i" unicode="i" horiz-adv-x="223" 
d="M124 618h-25c-16 0 -24 8 -24 24v36c0 16.667 8 25 24 25h25c16 0 24 -8.33301 24 -25v-36c0 -16 -8 -24 -24 -24zM77 25v453c0 16.667 8.33301 25 25 25h19c16 0 24 -8.33301 24 -25v-453c0 -16.667 -8 -25 -24 -25h-19c-16.667 -0 -25 8.33301 -25 25z" />
    <glyph glyph-name="j" unicode="j" horiz-adv-x="223" 
d="M124 618h-25c-16 0 -24 8 -24 24v36c0 16.667 8 25 24 25h25c16 0 24 -8.33301 24 -25v-36c0 -16 -8 -24 -24 -24zM78 -16v494c0 16.667 8 25 24 25h19c16.667 0 25 -8.33301 25 -25v-496c0 -37.333 -6.16699 -69.5 -18.5 -96.5s-28.833 -46.833 -49.5 -59.5
c-35.333 -21.333 -69.333 -32 -102 -32h-10c-16.667 0 -25 8.33301 -25 25v11c0 15.333 8.33301 23.333 25 24c25.333 0.666992 49 8.66699 71 24c27.333 16 41 51.333 41 106z" />
    <glyph glyph-name="k" unicode="k" horiz-adv-x="486" 
d="M78 25v653.001c0 16.667 8 25 24 25h19c16.667 0 25 -8.33301 25 -25v-367h81l139 177c8 10 18 15 30 15h25c10 0 16.5 -3 19.5 -9s1.16699 -13 -5.5 -21l-152 -189v-2l174 -252c5.33301 -8.66699 6.5 -15.834 3.5 -21.501s-9.83301 -8.5 -20.5 -8.5h-26
c-12 0 -21.667 5.66699 -29 17l-157 234h-82v-226c0 -16.667 -8.33301 -25 -25 -25h-19c-16 -0 -24 8.33301 -24 25z" />
    <glyph glyph-name="l" unicode="l" horiz-adv-x="244" 
d="M78 119l0.000976562 558.997c0 16.667 8 25 24 25h19c16.667 0 25 -8.33301 25 -25v-547c2 -28 7.33301 -46.833 16 -56.5s20.667 -15.167 36 -16.5c14 -1.33301 21 -8.66602 21 -21.999v-15c0 -16.667 -8.66699 -25 -26 -25c-10 0 -19.333 0.666992 -28 2
s-18.667 4.5 -30 9.5s-20.833 11.833 -28.5 20.5s-14.334 20.834 -20.001 36.501s-8.5 33.834 -8.5 54.501z" />
    <glyph glyph-name="m" unicode="m" horiz-adv-x="906" 
d="M77 25l0.00195312 452.999c0 16.667 8.33301 25 25 25h18c16 0 24 -8.33301 24 -25v-58l-4 -36h2c12.667 34.667 37 65 73 91c35.333 26.667 72.666 40 111.999 40c89.333 0 141 -42 155 -126h2c14.667 34 39 63.333 73 88c35.333 25.333 72.666 38 111.999 38
c58.667 0 101.167 -16 127.5 -48s39.5 -81 39.5 -147v-295c0 -16.667 -8.33301 -25 -25 -25h-18c-16.667 0 -25 8.33301 -25 25v278c0 50.667 -8 88.334 -24 113.001s-44 37 -84 37c-48.667 0 -89 -21.333 -121 -64c-32 -43.333 -48 -92 -48 -146v-218
c0 -16.667 -8 -25 -24 -25h-19c-16.667 -0 -25 8.33301 -25 25v278c0 40.667 -5.66699 74.667 -17 102c-13.333 32 -43 48 -89 48c-48.667 0 -89.667 -21.667 -123 -65c-32.667 -42.667 -49 -91 -49 -145v-218c0 -16.667 -8 -25 -24 -25h-19c-16.667 -0 -25 8.33301 -25 25z
" />
    <glyph glyph-name="n" unicode="n" horiz-adv-x="584" 
d="M77 25l-0.000976562 453.002c0 16.667 8.33301 25 25 25h18c16 0 24 -8.33301 24 -25v-58l-4 -36h2c13.333 31.333 37 60.666 71 87.999c34.667 28.667 78.667 43 132 43c59.333 0 102.333 -16 129 -48s40 -81 40 -147v-295c0 -16.667 -8.33301 -25 -25 -25h-19
c-16 0 -24 8.33301 -24 25v277c0 50.667 -7.83301 88.167 -23.5 112.5s-44.5 36.5 -86.5 36.5c-53.333 0 -98.666 -19.667 -135.999 -59c-36.667 -38.667 -55 -87.334 -55 -146.001v-221c0 -16.667 -8 -25 -24 -25h-19c-16.667 -0 -25 8.33301 -25 25z" />
    <glyph glyph-name="o" unicode="o" horiz-adv-x="615" 
d="M42 254c0 74 25.667 136.001 77 186.001c52 50 114.667 75 188 75c74 0 136.667 -25 188 -75c52 -50 78 -112 78 -186c0 -76 -26 -139.333 -78 -190c-50.667 -50.667 -113 -76 -187 -76c-74.667 0 -137.667 25.333 -189 76c-51.333 51.333 -77 114.666 -77 189.999z
M112 254.001c0 -58.667 19 -107.334 57 -146.001c38 -39.333 84.333 -59 139 -59c54 0 100 19.667 138 59c38 38.667 57 87.334 57 146.001c0 56.667 -19 104 -57 142c-38 38.667 -84 58 -138 58c-54.667 0 -101 -19.333 -139 -58c-38 -38 -57 -85.333 -57 -142z" />
    <glyph glyph-name="p" unicode="p" horiz-adv-x="581" 
d="M78 -175v653.003c0 16.667 8 25 24 25h16c16 0 24 -7.66699 24 -23v-36l-3 -34h2c11.333 19.333 19 31.333 23 36c32 43.333 83 66.333 153 69c67.333 0 120.333 -24.333 159 -73c40 -48.667 60 -112.334 60 -191.001s-21.333 -142.334 -64 -191.001
c-42 -48 -96 -72 -162 -72c-42 0 -76.833 10.167 -104.5 30.5s-46.167 40.833 -55.5 61.5l-6 10h-2c2.66699 -10.667 4 -25.334 4 -44.001v-221c0 -16.667 -8.33301 -25 -25 -25h-19c-16 0 -24 8.33301 -24 25zM144 250.003c0 -54.667 14.334 -101.666 43.001 -140.999
c29.333 -40 68 -60 116 -60c46 0 84.667 18 116 54c31.333 37.333 47 86.666 47 147.999c0 60 -14.833 108.667 -44.5 146s-67.834 56 -114.501 56c-48 0 -87.167 -17.5 -117.5 -52.5s-45.5 -85.167 -45.5 -150.5z" />
    <glyph glyph-name="q" unicode="q" horiz-adv-x="581" 
d="M272 515c42 0 76.5 -10 103.5 -30s46.5 -41 58.5 -63l5 -10h2c-2 8.66699 -3 20 -3 34v35c0 14.667 8.33301 22 25 22h16c16 0 24 -8.33301 24 -25v-653c0 -16.667 -8 -25 -24 -25h-19c-16.667 0 -25 8.33301 -25 25v223l4 44h-2c-10 -17.333 -18 -29.333 -24 -36
c-35.333 -45.333 -85.333 -68 -150 -68c-67.333 0 -120.333 24.333 -159 73c-39.333 49.333 -59 113 -59 191c0 78.667 21 142 63 190c42 48.667 96.667 73 164 73zM274 49c48 0 87.168 17.5 117.501 52.5s45.5 85.167 45.5 150.5c0 56 -14 103.333 -42 142
c-27.333 39.333 -66.666 59 -117.999 59c-46.667 0 -85.334 -18.333 -116.001 -55c-30.667 -35.333 -46 -84 -46 -146c0 -61.333 14.667 -110.5 44 -147.5s67.666 -55.5 114.999 -55.5z" />
    <glyph glyph-name="r" unicode="r" horiz-adv-x="338" 
d="M77 25v453c0 16.667 8.33301 25 25 25h18c16 0 24 -8.33301 24 -25v-68l-4 -40h2c12.667 40 33.667 72.667 63 98s62.333 38 99 38c17.333 0 26 -8 26 -24v-18c0 -16.667 -9.33301 -25 -28 -25c-49.333 0 -88 -23 -116 -69c-27.333 -46.667 -41 -99 -41 -157v-188
c0 -16.667 -8 -25 -24 -25h-19c-16.667 -0 -25 8.33301 -25 25z" />
    <glyph glyph-name="s" unicode="s" horiz-adv-x="431" 
d="M64 46c-12 9.33301 -13.333 20.667 -4 34l8 10c9.33301 11.333 20.666 12.666 33.999 3.99902c39.333 -30.667 83.666 -46 132.999 -46c30 0 54.5 7.16699 73.5 21.5s28.5 34.166 28.5 59.499c0 36 -31.667 65.333 -95 88l-40.5 15c-7 2.66699 -19.5 8 -37.5 16
s-31 15.333 -39 22s-17.333 15.334 -28 26.001s-18.167 22.5 -22.5 35.5s-6.5 27.167 -6.5 42.5c0 43.333 16 77.666 48 102.999s73 38 123 38c53.333 0 99.333 -13.667 138 -41c13.333 -8 15.666 -19 6.99902 -33l-7 -11c-7.33301 -14 -18.666 -16.333 -33.999 -7
c-31.333 21.333 -67.333 32 -108 32c-29.333 0 -53.166 -6.66699 -71.499 -20s-27.5 -32.666 -27.5 -57.999c0 -36 31.333 -66 94 -90c18.667 -6.66699 32.334 -11.667 41.001 -15s21.334 -8.66602 38.001 -15.999s29.334 -14.5 38.001 -21.5s18.167 -15.667 28.5 -26
s17.666 -22 21.999 -35s6.5 -27.5 6.5 -43.5c0 -41.333 -16 -75.333 -48 -102c-30.667 -26.667 -71.334 -40 -122.001 -40c-68 0 -124.667 19.333 -170 58z" />
    <glyph glyph-name="t" unicode="t" horiz-adv-x="320" 
d="M97 181l-0.000976562 261h-42c-16 0 -24 8 -24 24v8c0 16.667 8 25 24 25h43v118c0 16.667 8.33301 25 25 25h18c16 0 24 -8.33301 24 -25v-118h102c16.667 0 25 -8.33301 25 -25v-8c0 -16 -8.33301 -24 -25 -24h-102v-252c0 -84 36.667 -128 110 -132
c10 -1.33301 17 -3.83301 21 -7.5s6 -9.5 6 -17.5v-13c0 -16 -9.33301 -24 -28 -24c-55.333 0 -98.666 16.167 -129.999 48.5s-47 77.833 -47 136.5z" />
    <glyph glyph-name="u" unicode="u" horiz-adv-x="580" 
d="M71 183v294.999c0 16.667 8 25 24 25h19c16.667 0 25 -8.33301 25 -25v-277c0 -51.333 7.66699 -89 23 -113s44 -36 86 -36c55.333 0 100 20.667 134 62c34.667 40.667 52 90 52 148v216c0 16.667 8.33301 25 25 25h19c16 0 24 -8.33301 24 -25v-453
c0 -16.667 -8 -25 -24 -25h-18c-16 0 -24 8.33301 -24 25v58l3 36h-2c-12 -31.333 -35.667 -61 -71 -89c-34.667 -28 -77 -42 -127 -42c-58 0 -100.5 15.833 -127.5 47.5s-40.5 80.834 -40.5 147.501z" />
    <glyph glyph-name="v" unicode="v" horiz-adv-x="478" 
d="M206 19l-175.001 455c-7.33301 19.333 -1 29 19 29h22c14 0 23 -6.66699 27 -20l133 -349l17 -61h2c5.33301 24.667 11.333 45 18 61l132 349c4 13.333 13 20 27 20h21c20.667 0 27.334 -9.66699 20.001 -29l-175 -455c-4 -12.667 -13 -19 -27 -19h-33
c-14 -0 -23.333 6.33301 -28 19z" />
    <glyph glyph-name="w" unicode="w" horiz-adv-x="796" 
d="M185 21l-153.999 454c-4.66699 18.667 2.33301 28 21 28h21c14.667 0 24 -7 28 -21l115 -354l15 -54h2c2 9.33301 7.33301 27.333 16 54l117 353c4 13.333 13.333 20 28 20h24c14.667 0 24 -6.66699 28 -20l117 -353l16 -54h2c4 18.667 9 36.667 15 54l115 354
c4 14 13.333 21 28 21h21c18 0 24.667 -9.33301 20 -28l-154 -454c-4 -14 -13.333 -21 -28 -21h-31c-14.667 0 -24 7 -28 21l-117 337l-15 54h-2c-6 -22.667 -11.333 -40.667 -16 -54l-116 -337c-4 -14 -13.333 -21 -28 -21h-31c-14.667 0 -24.334 7 -29.001 21z" />
    <glyph glyph-name="x" unicode="x" horiz-adv-x="468" 
d="M37 30l157 232l-142 211c-5.33301 8.66699 -6.5 15.834 -3.5 21.501s9.5 8.5 19.5 8.5h25c12.667 0 22 -5.66699 28 -17l99 -152l17 -29h2l17 29l98 152c7.33301 11.333 17 17 29 17h25c10 0 16.5 -2.83301 19.5 -8.5s1.83301 -12.834 -3.5 -21.501l-143 -211l157 -232
c5.33301 -8.66699 6.5 -15.834 3.5 -21.501s-9.5 -8.5 -19.5 -8.5h-24c-12 0 -21.667 5.66699 -29 17l-113 172l-17 28h-2l-17 -28l-113 -172c-7.33301 -11.333 -17 -17 -29 -17h-24c-10.667 0 -17.5 2.83301 -20.5 8.5s-1.83301 12.834 3.5 21.501z" />
    <glyph glyph-name="y" unicode="y" horiz-adv-x="491" 
d="M22 -160l6.00195 10.999c6.66699 12.667 16.667 16.667 30 12c18 -8.66699 32.667 -13 44 -13c38.667 0 70 27.667 94 83l30 71l-198 470c-3.33301 8.66699 -3.33301 15.667 0 21s9.66602 8 18.999 8h23c14 0 23.333 -6.33301 28 -19l141 -348l18 -53h2
c6 21.333 11.667 39 17 53l138 347c5.33301 13.333 14.666 20 27.999 20h22c19.333 0 26 -9.66699 20 -29l-237 -576c-13.333 -34 -32.833 -60.5 -58.5 -79.5s-54.5 -28.5 -86.5 -28.5c-22 0 -45 6 -69 18c-14 6.66699 -17.667 17.334 -11 32.001z" />
    <glyph glyph-name="z" unicode="z" horiz-adv-x="491" 
d="M34 22l0.000976562 7c0 10.667 3.33301 20.334 10 29.001l270 339l40 46v2c-14.667 -1.33301 -31.334 -2 -50.001 -2h-234c-16 0 -24 8 -24 24v11c0 16.667 8 25 24 25h352c16 0 24 -7.33301 24 -22v-7c0 -10.667 -3.33301 -20.334 -10 -29.001l-271 -339l-41 -46v-2
c16 1.33301 33 2 51 2h257c16 0 24 -8 24 -24v-11c0 -16.667 -8 -25 -24 -25h-374c-16 -0 -24 7.33301 -24 22z" />
    <glyph glyph-name="braceleft" unicode="{" horiz-adv-x="307" 
d="M115 83l-0.000976562 95.001c0 54 -21.667 90 -65 108c-13.333 8 -20 17 -20 27v20c0 10 6.66699 19 20 27c43.333 16 65 52.333 65 109v82c0 74.667 18 124.334 54 149.001c28 20 54 30 78 30h8c16 0 24 -8 24 -24v-9c0 -16.667 -8 -25 -24 -25
c-7.33301 0 -14.5 -1.16699 -21.5 -3.5s-15.167 -7.33301 -24.5 -15s-16.833 -20.5 -22.5 -38.5s-8.5 -40.667 -8.5 -68v-96c0 -34 -8.16699 -61.5 -24.5 -82.5s-32.166 -34.5 -47.499 -40.5l-8 -4v-2c2 -0.666992 4.83301 -1.83398 8.5 -3.50098s10.167 -5.66699 19.5 -12
s17.5 -13.833 24.5 -22.5s13.333 -20.834 19 -36.501s8.5 -33.167 8.5 -52.5v-109c0 -27.333 2.83301 -50 8.5 -68s13.167 -30.833 22.5 -38.5s17.5 -12.667 24.5 -15s14.167 -3.5 21.5 -3.5c16 0 24 -8 24 -24v-9c0 -16.667 -8 -25 -24 -25h-8c-24 0 -50 10 -78 30
c-36 24.667 -54 74.667 -54 150z" />
    <glyph glyph-name="bar" unicode="|" horiz-adv-x="234" 
d="M86 -132v896c0 16 8 24 24 24h14c16.667 0 25 -8 25 -24v-896c0 -16.667 -8.33301 -25 -25 -25h-14c-16 0 -24 8.33301 -24 25z" />
    <glyph glyph-name="braceright" unicode="}" horiz-adv-x="308" 
d="M28 -72l0.000976562 8.99805c0 16 8.33301 24 25 24c14.667 0 29.667 6.33301 45 19c20.667 16 31 51.333 31 106v109c0 35.333 8 63.333 24 84s32 34 48 40l8 3v2c-2 0.666992 -4.83301 1.83398 -8.5 3.50098s-10.167 6 -19.5 13s-17.5 14.833 -24.5 23.5
s-13.333 20.834 -19 36.501s-8.5 32.5 -8.5 50.5v96c0 54.667 -10.333 90 -31 106c-15.333 12.667 -30.333 19 -45 19c-16.667 0 -25 8.33301 -25 25v9c0 16 8.33301 24 25 24h7c8.66699 0 17.667 -1 27 -3s20.666 -6.83301 33.999 -14.5s25 -17.5 35 -29.5
s18.5 -29.5 25.5 -52.5s10.5 -49.5 10.5 -79.5v-82c0 -56.667 22 -93 66 -109c12.667 -6.66699 19 -15.667 19 -27v-20c0 -10.667 -6.66699 -19.667 -20 -27c-43.333 -18 -65 -54 -65 -108v-95c0 -76.667 -18 -126.667 -54 -150c-28 -20 -54 -30 -78 -30h-7
c-16.667 0 -25 8.33301 -25 25z" />
    <glyph glyph-name="asciitilde" unicode="~" horiz-adv-x="585" 
d="M103 209h-10.001c-17.333 0 -25 11.333 -23 34c8.66699 80.667 50.334 121 125.001 121c20 0 38 -3.5 54 -10.5s29.167 -15.667 39.5 -26l30 -31c9.66699 -10.333 20.834 -19 33.501 -26s26.667 -10.5 42 -10.5c20.667 0 36.667 7.33301 48 22s18 33 20 55
c4 15.333 12.667 23 26 23h11c17.333 0 25 -8.66699 23 -26c-6.66699 -86 -48.334 -129 -125.001 -129c-44.667 0 -81 17.333 -109 52s-58 52 -90 52c-40 0 -62.667 -25.667 -68 -77c-4 -15.333 -13 -23 -27 -23z" />
    <glyph glyph-name="uni00A0" unicode="&#xa0;" horiz-adv-x="250" 
 />
    <glyph glyph-name="exclamdown" unicode="&#xa1;" horiz-adv-x="245" 
d="M114 318h15c16.667 0 25 -8 25 -24l3 -470c0 -16.667 -8.33301 -25 -25 -25h-21c-16 0 -24 8.33301 -24 25l3 470c0 16 8 24 24 24zM160 477v-29c0 -16.667 -8 -25 -24 -25h-30c-16 0 -24 8.33301 -24 25v29c0 16.667 8 25 24 25h30c16 0 24 -8.33301 24 -25z" />
    <glyph glyph-name="cent" unicode="&#xa2;" horiz-adv-x="555" 
d="M263 12l-0.000976562 59.9971c-66 6.66699 -117.667 36 -155 88c-36.667 51.333 -55 115.333 -55 192c0 76 18.333 139.333 55 190c37.333 52.667 89 82.334 155 89.001v59c0 16.667 8 25 24 25h8c16 0 24 -7.33301 24 -22v-62c37.333 -4 71.5 -17.167 102.5 -39.5
s55.5 -50.833 73.5 -85.5c6.66699 -14.667 2.33398 -25.334 -12.999 -32.001l-18 -7c-12.667 -4.66699 -23.334 -0.666992 -32.001 12c-32.667 58.667 -78.667 88 -138 88c-54 0 -95.833 -19.667 -125.5 -59s-44.5 -91.666 -44.5 -156.999s14.667 -117.333 44 -156
s71.333 -58 126 -58c59.333 0 105.333 29.333 138 88c8 12.667 18.667 16.334 32 11.001l18 -7c15.333 -6.66699 19.666 -17.334 12.999 -32.001c-19.333 -35.333 -44.166 -64.166 -74.499 -86.499s-64.166 -35.166 -101.499 -38.499v-60c0 -16.667 -8 -25 -24 -25h-8
c-16 0 -24 8.33301 -24 25z" />
    <glyph glyph-name="sterling" unicode="&#xa3;" 
d="M54 25l-0.000976562 11.998c0 16.667 8.33301 25 25 25h39v264h-24c-16 0 -24 8 -24 24v6c0 16.667 8 25 24 25h24v149c0 53.333 19.333 97.333 58 132c39.333 35.333 88.666 53 147.999 53c50.667 0 96.334 -14 137.001 -42c14.667 -9.33301 15.667 -20.666 3 -33.999
l-10 -13c-9.33301 -11.333 -20.666 -12.666 -33.999 -3.99902c-31.333 18.667 -63 28 -95 28c-42 0 -75.333 -11.667 -100 -35s-37 -53 -37 -89v-145h167c16 0 24 -8.33301 24 -25v-6c0 -16 -8 -24 -24 -24h-167v-264h314c16.667 0 25 -8.33301 25 -25v-12
c0 -16.667 -8.33301 -25 -25 -25h-423c-16.667 -0 -25 8.33301 -25 25z" />
    <glyph glyph-name="yen" unicode="&#xa5;" horiz-adv-x="579" 
d="M260 211l-137.998 -0.000976562c-16.667 0 -25 7.66699 -25 23v6c0 14.667 8.33301 22 25 22h138v39l-28 49h-110c-16.667 0 -25 7.33301 -25 22v6c0 15.333 7.66699 23 23 23h83l-159 273c-4.66699 8 -5.33398 14.833 -2.00098 20.5s10 8.5 20 8.5h25
c13.333 0 23 -6 29 -18l135 -232l43 -89h2c14 32.667 28.333 62.334 43 89.001l135 232c6 12 15.333 18 28 18h26c10 0 16.667 -2.83301 20 -8.5s2.66602 -12.5 -2.00098 -20.5l-160 -273h80c16.667 0 25 -7.66699 25 -23v-6c0 -14.667 -8.33301 -22 -25 -22h-109l-27 -49
v-39h136c16.667 0 25 -7.33301 25 -22v-6c0 -15.333 -8.33301 -23 -25 -23h-136v-186c0 -16.667 -8 -25 -24 -25h-21c-16.667 -0 -25 8.33301 -25 25v186z" />
    <glyph glyph-name="section" unicode="&#xa7;" horiz-adv-x="412" 
d="M152 107l-65.002 412c-2 12 -3 23.667 -3 35c0 46.667 15.667 85 47 115c31.333 30.667 73 46 125 46c34 0 66 -9 96 -27c14.667 -9.33301 16.334 -21 5.00098 -35l-7 -8c-8 -11.333 -19 -13.333 -33 -6c-19.333 10.667 -39.666 16 -60.999 16
c-32 0 -58.333 -9.66699 -79 -29s-31 -45.333 -31 -78c0 -10 1 -20 3 -30l62 -406c3.33301 -18 -4 -27 -22 -27h-10c-15.333 0 -24.333 7.33301 -27 22zM85.998 0l6 8.00098c8 12 19 14.333 33 7c24 -11.333 44.667 -17 62 -17c32.667 0 59.167 9.83301 79.5 29.5
s30.5 46.167 30.5 79.5c0 12.667 -1.33301 23.334 -4 32.001l-60 402c-3.33301 18 4 27 22 27h10c15.333 0 24.333 -7.33301 27 -22l64 -412c2 -12.667 3 -24.334 3 -35.001c0 -46.667 -16 -85 -48 -115c-30.667 -30.667 -72 -46 -124 -46c-35.333 0 -67.333 9.33301 -96 28
c-14 9.33301 -15.667 20.666 -5 33.999z" />
    <glyph glyph-name="dieresis" unicode="&#xa8;" horiz-adv-x="504" 
d="M334 785h-13c-16 0 -24 8 -24 24v37c0 16.667 8 25 24 25h13c16.667 0 25 -8.33301 25 -25v-37c0 -16 -8.33301 -24 -25 -24zM183 785h-13c-16 0 -24 8 -24 24v37c0 16.667 8 25 24 25h13c16 0 24 -8.33301 24 -25v-37c0 -16 -8 -24 -24 -24z" />
    <glyph glyph-name="copyright" unicode="&#xa9;" horiz-adv-x="823" 
d="M56 352c0 100.667 34.333 186.332 103 256.999s152.334 106 251.001 106c100 0 184.333 -35.333 253 -106c69.333 -71.333 104 -157 104 -257c0 -101.333 -34.667 -187.666 -104 -258.999c-68.667 -70 -153 -105 -253 -105c-98.667 0 -182.334 35 -251.001 105
c-68.667 70.667 -103 157 -103 259zM115 351.998c0 -88 28.333 -161.668 85 -221.001c57.333 -59.333 127.333 -89 210 -89c84.667 0 155.667 29.667 213 89c57.333 60.667 86 134.334 86 221.001s-29 159.667 -87 219c-57.333 60 -128 90 -212 90
c-82.667 0 -152.667 -30 -210 -90c-56.667 -58.667 -85 -131.667 -85 -219zM420 555.997c59.333 0 108.998 -24 148.998 -72c9.33301 -11.333 8.33301 -21.666 -3 -30.999l-10 -9c-10.667 -8.66699 -21 -7 -31 5c-28.667 34.667 -63 52 -103 52
c-45.333 0 -81.666 -14.333 -108.999 -43s-41 -64.667 -41 -108c0 -41.333 13.333 -76.333 40 -105c27.333 -29.333 64 -44 110 -44c40.667 0 75.334 17.333 104.001 52c11.333 11.333 21.333 12.666 30 3.99902l9 -8c12 -9.33301 13.333 -19.666 4 -30.999
c-42 -48 -91.667 -72 -149 -72c-64 0 -114.667 20 -152 60c-36.667 39.333 -55 87.333 -55 144c0 55.333 18.667 103.666 56 144.999c36.667 40.667 87 61 151 61z" />
    <glyph glyph-name="ordfeminine" unicode="&#xaa;" horiz-adv-x="402" 
d="M181 382c-31.333 0 -57.499 8.50098 -78.499 25.501s-31.5 40.167 -31.5 69.5c0 74 63.667 111 191 111h12v4c0 49.333 -23.333 74 -70 74c-22.667 0 -44.667 -6 -66 -18c-13.333 -6 -23.333 -3.66699 -30 7l-3 4c-8 13.333 -4.66699 23.333 10 30c28.667 16 60 24 94 24
c80 0 120 -41 120 -123v-177c0 -16.667 -7.66699 -25 -23 -25h-5c-15.333 0 -23 8 -23 24v28h-2c-2 -4.66699 -5.33301 -10 -10 -16c-4.66699 -6.66699 -15.334 -15.334 -32.001 -26.001c-15.333 -10.667 -33 -16 -53 -16zM188.001 430.001c25.333 0 46 10.667 62 32
c16 22 24 46.333 24 73v9h-12c-90 0 -135 -20.667 -135 -62c0 -15.333 5.5 -27.833 16.5 -37.5s25.833 -14.5 44.5 -14.5zM308.001 264.001h-215c-16 0 -24 7.33301 -24 22v3c0 14.667 8 22 24 22h215c16 0 24 -7.33301 24 -22v-3c0 -14.667 -8 -22 -24 -22z" />
    <glyph glyph-name="guillemotleft" unicode="&#xab;" horiz-adv-x="493" 
d="M383 91l-138.002 174.003c-10 11.333 -10 22.666 0 33.999l138 175c7.33301 9.33301 17.333 14 30 14h17c10.667 0 17.334 -2.83301 20.001 -8.5s0.666992 -12.834 -6 -21.501l-140 -176l140 -175c6.66699 -8.66699 8.83398 -15.834 6.50098 -21.501
s-8.5 -8.5 -18.5 -8.5h-19c-12.667 0 -22.667 4.66699 -30 14zM202.998 91.0029l-138.002 174.003c-10 11.333 -10 22.666 0 33.999l138 175c7.33301 9.33301 17.333 14 30 14h17c10.667 0 17.334 -2.83301 20.001 -8.5s0.666992 -12.834 -6 -21.501l-140 -176l140 -175
c6.66699 -8.66699 8.83398 -15.834 6.50098 -21.501s-8.5 -8.5 -18.5 -8.5h-19c-12.667 0 -22.667 4.66699 -30 14z" />
    <glyph glyph-name="logicalnot" unicode="&#xac;" horiz-adv-x="623" 
d="M483 342h-381c-16.667 0 -25 8 -25 24v9c0 16.667 8.33301 25 25 25h417c16 0 24 -8.33301 24 -25v-193c0 -16 -8 -24 -24 -24h-12c-16 0 -24 8 -24 24v160z" />
    <glyph glyph-name="uni00AD" unicode="&#xad;" horiz-adv-x="423" 
d="M329 253h-235c-16 0 -24 8 -24 24v13c0 16.667 8 25 24 25h235c16 0 24 -8.33301 24 -25v-13c0 -16 -8 -24 -24 -24z" />
    <glyph glyph-name="registered" unicode="&#xae;" horiz-adv-x="823" 
d="M56 352c0 100.667 34.333 186.332 103 256.999s152.334 106 251.001 106c100 0 184.333 -35.333 253 -106c69.333 -71.333 104 -157 104 -257c0 -101.333 -34.667 -187.666 -104 -258.999c-68.667 -70 -153 -105 -253 -105c-98.667 0 -182.334 35 -251.001 105
c-68.667 70.667 -103 157 -103 259zM115 351.998c0 -88 28.333 -161.668 85 -221.001c57.333 -59.333 127.333 -89 210 -89c84.667 0 155.667 29.667 213 89c57.333 60.667 86 134.334 86 221.001s-29 159.667 -87 219c-57.333 60 -128 90 -212 90
c-82.667 0 -152.667 -30 -210 -90c-56.667 -58.667 -85 -131.667 -85 -219zM291 181.997l-0.000976562 340.001c0 16.667 8 25 24 25h115c34.667 0 62.834 -10.667 84.501 -32s32.5 -49.333 32.5 -84c0 -26.667 -7 -49.334 -21 -68.001s-31.333 -30.334 -52 -35.001v-2
c1.33301 -1.33301 5.66602 -8.66602 12.999 -21.999l61 -118c4.66699 -8.66699 5.5 -15.667 2.5 -21s-9.16699 -8 -18.5 -8h-12c-13.333 0 -22.666 6 -27.999 18l-70 140h-74v-133c0 -16.667 -8 -25 -24 -25h-9c-16 0 -24 8.33301 -24 25zM347.999 499.998
l0.000976562 -141.001h72c21.333 0 38.166 6.33301 50.499 19s18.5 30.334 18.5 53.001c0 22 -6.16699 39 -18.5 51s-28.833 18 -49.5 18h-73z" />
    <glyph glyph-name="overscore" unicode="&#xaf;" horiz-adv-x="504" 
d="M351 785h-197c-16.667 0 -25 8 -25 24v7c0 16 8.33301 24 25 24h197c16 0 24 -8 24 -24v-7c0 -16 -8 -24 -24 -24z" />
    <glyph glyph-name="degree" unicode="&#xb0;" horiz-adv-x="372" 
d="M186 436c-40 0 -73.333 13.333 -100 40c-27.333 27.333 -41 60.333 -41 99c0 38 13.667 70.667 41 98c28.667 27.333 62 41 100 41c38.667 0 71.667 -13.667 99 -41s41 -60 41 -98c0 -38.667 -13.667 -71.667 -41 -99c-26.667 -26.667 -59.667 -40 -99 -40zM267 575
c0 22.667 -7.83301 42.167 -23.5 58.5s-34.834 24.5 -57.501 24.5s-41.834 -8.16699 -57.501 -24.5s-23.5 -35.833 -23.5 -58.5c0 -23.333 7.83301 -43 23.5 -59s34.834 -24 57.501 -24s41.834 8 57.501 24s23.5 35.667 23.5 59z" />
    <glyph glyph-name="plusminus" unicode="&#xb1;" horiz-adv-x="606" 
d="M273 255h-206c-16.667 0 -25 8 -25 24v9c0 16.667 8.33301 25 25 25h206v230c0 16.667 8 25 24 25h13c16 0 24 -8.33301 24 -25v-230h205c16.667 0 25 -8.33301 25 -25v-9c0 -16 -8.33301 -24 -25 -24h-205v-230c0 -16.667 -8 -25 -24 -25h-13c-16 -0 -24 8.33301 -24 25
v230zM85 -104h436c16.667 0 25 -8.33301 25 -25v-9c0 -16 -8.33301 -24 -25 -24h-436c-16.667 0 -25 8 -25 24v9c0 16.667 8.33301 25 25 25z" />
    <glyph glyph-name="twosuperior" unicode="&#xb2;" horiz-adv-x="348" 
d="M288 423l-230.999 -0.00292969c-16.667 0 -25 10 -25 30c0 30.667 7.33301 58.167 22 82.5s32.667 44.166 54 59.499s42.666 29.833 63.999 43.5s39.333 28.834 54 45.501s22 35.334 22 56.001c0 22 -7.66699 40.333 -23 55s-35 22 -59 22
c-24.667 0 -48.667 -10.667 -72 -32c-11.333 -10 -22.666 -10.333 -33.999 -1l-2 2c-12.667 12.667 -13.334 24 -2.00098 34c32 32 69.333 48 112 48c41.333 0 74.5 -12 99.5 -36s37.5 -54.333 37.5 -91c0 -50 -24.667 -92 -74 -126l-36 -23
c-18 -11.333 -31.167 -20.166 -39.5 -26.499s-18.333 -14.666 -30 -24.999s-20.167 -21 -25.5 -32s-8.33301 -22.833 -9 -35.5h197c16 0 24 -7.66699 24 -23v-3c0 -16 -8 -24 -24 -24z" />
    <glyph glyph-name="threesuperior" unicode="&#xb3;" horiz-adv-x="353" 
d="M180 413c-51.333 0 -93.334 16.3311 -126.001 48.998c-12 10 -12.667 21 -2 33l4 4c8.66699 10.667 19.667 11.334 33 2.00098c24.667 -24 54.667 -36 90 -36c24.667 0 46.334 8.66699 65.001 26s28 38.333 28 63s-9.33301 44.834 -28 60.501s-41.334 23.5 -68.001 23.5
h-16c-12.667 0 -21 5 -25 15c-4.66699 10 -2.66699 20.333 6 31l86 100l24 25v2c-12 -2 -24.333 -3 -37 -3h-129c-16 0 -24 8 -24 24v3c0 15.333 8 23 24 23h214c16.667 0 25 -6 25 -18v-4c0 -9.33301 -4 -18.333 -12 -27l-107 -125c36 -4 65.667 -17.167 89 -39.5
s35 -52.5 35 -90.5c0 -38.667 -14.333 -72 -43 -100c-29.333 -27.333 -64.666 -41 -105.999 -41z" />
    <glyph glyph-name="acute" unicode="&#xb4;" horiz-adv-x="504" 
d="M226 752l-11.001 0.000976562c-9.33301 0 -15.666 2.83301 -18.999 8.5s-2.33301 12.167 3 19.5l44 74c7.33301 11.333 17 17 29 17h23c10.667 0 17.167 -2.83301 19.5 -8.5s0.5 -12.834 -5.5 -21.501l-53 -73c-8 -10.667 -18 -16 -30 -16z" />
    <glyph glyph-name="mu" unicode="&#xb5;" horiz-adv-x="623" 
d="M92 -175l0.00292969 652.999c0 16.667 8 25 24 25h19c16.667 0 25 -8.33301 25 -25v-277c0 -50.667 7.66699 -88.167 23 -112.5s43.666 -36.5 84.999 -36.5c56 0 101 20.667 135 62c34.667 40.667 52 90 52 148v216c0 16.667 8.33301 25 25 25h19
c16 0 24 -8.33301 24 -25v-453c0 -16.667 -8 -25 -24 -25h-18c-16 0 -24 8.33301 -24 25v54l1 36h-2c-7.33301 -17.333 -23.333 -39.666 -48 -66.999c-35.333 -40 -85 -60 -149 -60c-22.667 0 -43.334 3.33301 -62.001 10s-31.334 14 -38.001 22l-9 10h-2
c4 -34 6 -59.333 6 -76v-129c0 -16.667 -8 -25 -24 -25h-14c-16 0 -24 8.33301 -24 25z" />
    <glyph glyph-name="paragraph" unicode="&#xb6;" horiz-adv-x="564" 
d="M277 -25v266c-66 0 -122.333 22.333 -169 67s-70 99.667 -70 165c0 64.667 23.333 119 70 163c46.667 44.667 102.667 67 168 67h215c16 0 24 -8.33301 24 -25v-12c0 -16.667 -8 -25 -24 -25h-157v-666c0 -16.667 -8 -25 -24 -25h-9c-16 0 -24 8.33301 -24 25zM396 -25
v581c0 16.667 8.33301 25 25 25h8c16.667 0 25 -8.33301 25 -25v-581c0 -16.667 -8.33301 -25 -25 -25h-8c-16.667 0 -25 8.33301 -25 25z" />
    <glyph glyph-name="middot" unicode="&#xb7;" horiz-adv-x="220" 
d="M126 247h-31c-16.667 0 -25 8 -25 24v34c0 16.667 8.33301 25 25 25h31c16 0 24 -8.33301 24 -25v-34c0 -16 -8 -24 -24 -24z" />
    <glyph glyph-name="cedilla" unicode="&#xb8;" horiz-adv-x="504" 
d="M206 -64l18.999 81h43l-13 -72c21.333 -3.33301 38.333 -11.333 51 -24s19 -28.334 19 -47.001c0 -26.667 -8.66699 -46.5 -26 -59.5s-40.666 -19.5 -69.999 -19.5c-32 0 -48 8 -48 24c0 16.667 5.33301 25 16 25c0.666992 0 4.33398 -0.5 11.001 -1.5
s11.667 -1.5 15 -1.5c32.667 0 49 11.333 49 34c0 20.667 -16.333 32.334 -49 35.001c-14.667 1.33301 -20.334 10 -17.001 26z" />
    <glyph glyph-name="onesuperior" unicode="&#xb9;" horiz-adv-x="289" 
d="M250 423l-193.001 0.000976562c-16.667 0 -25 8 -25 24v3c0 15.333 7.66699 23 23 23h72v289l1 24h-1c-4 -6.66699 -10.667 -14.667 -20 -24l-27 -26c-9.33301 -9.33301 -18.666 -9 -27.999 1l-6 6c-10 11.333 -9 22.666 3 33.999l68 69c8.66699 8 19 12 31 12h10
c16 0 24 -8 24 -24v-361h68c16 0 24 -7.66699 24 -23v-3c0 -16 -8 -24 -24 -24z" />
    <glyph glyph-name="ordmasculine" unicode="&#xba;" horiz-adv-x="459" 
d="M62 550c0 46.667 15.999 85.334 47.999 116.001c32.667 32 72 48 118 48c46.667 0 86.334 -16 119.001 -48c32.667 -30.667 49 -69.334 49 -116.001c0 -47.333 -16.333 -87 -49 -119c-32 -32 -71.333 -48 -118 -48c-46 0 -85.667 16 -119 48c-32 32 -48 71.667 -48 119z
M340.999 550c0 32.667 -10.833 59.834 -32.5 81.501s-48.167 32.5 -79.5 32.5s-57.833 -10.833 -79.5 -32.5s-32.5 -48.834 -32.5 -81.501c0 -33.333 10.667 -61 32 -83s48 -33 80 -33s58.667 11 80 33s32 49.667 32 83zM356.999 264h-254c-16 0 -24 7.33301 -24 22v3
c0 14.667 8 22 24 22h254c16.667 0 25 -7.33301 25 -22v-3c0 -14.667 -8.33301 -22 -25 -22z" />
    <glyph glyph-name="guillemotright" unicode="&#xbb;" horiz-adv-x="493" 
d="M247 107l140.001 174.997l-140 176c-6.66699 8.66699 -8.66699 15.834 -6 21.501s9 8.5 19 8.5h18c11.333 0 21.666 -4.66699 30.999 -14l138 -175c10 -11.333 10 -22.666 0 -33.999l-138 -174c-9.33301 -9.33301 -19.666 -14 -30.999 -14h-16
c-10.667 0 -17.334 2.83301 -20.001 8.5s-1 12.834 5 21.501zM99.001 76.9971l-16.998 -0.00292969c-10.667 0 -17.334 2.83301 -20.001 8.5s-0.666992 12.834 6 21.501l139 175l-139 176c-6.66699 8.66699 -8.83398 15.834 -6.50098 21.501s8.83301 8.5 19.5 8.5h18
c10.667 0 20.667 -4.66699 30 -14l138 -175c10 -11.333 10 -22.666 0 -33.999l-138 -174c-9.33301 -9.33301 -19.333 -14 -30 -14z" />
    <glyph glyph-name="onequarter" unicode="&#xbc;" horiz-adv-x="918" 
d="M792 0h-6c-16 -0 -24 8.33301 -24 25v89h-187c-16.667 0 -25 6.33301 -25 19v7c0 8 3.33301 16.333 10 25l191 255c7.33301 10 17.333 15 30 15h11c16.667 0 25 -8 25 -24v-247h43c15.333 0 23 -7.66699 23 -23v-3c0 -16 -7.66699 -24 -23 -24h-43v-89
c0 -16.667 -8.33301 -25 -25 -25zM618 166v-2h144v136l3 62h-2c-8 -14.667 -18.667 -31 -32 -49zM272 268l-193.001 0.00195312c-16.667 0 -25 8 -25 24v3c0 15.333 7.66699 23 23 23h72v289l1 24h-1c-4 -6.66699 -10.667 -14.667 -20 -24l-27 -26
c-9.33301 -8.66699 -18.666 -8.33398 -27.999 0.999023l-6 6c-10 11.333 -9 22.666 3 33.999l68 69c8.66699 8 19 12 31 12h10c16 0 24 -8 24 -24v-361h68c16 0 24 -7.66699 24 -23v-3c0 -16 -8 -24 -24 -24zM627.999 674.002l-312.999 -655
c-4.66699 -12.667 -14 -19 -28 -19h-10c-8.66699 0 -14.334 2.66699 -17.001 8s-2 12.333 2 21l313 655c6 12.667 15.667 19 29 19h9c8.66699 0 14.5 -2.66699 17.5 -8s2.16699 -12.333 -2.5 -21z" />
    <glyph glyph-name="onehalf" unicode="&#xbd;" horiz-adv-x="904" 
d="M834 0l-230.999 -0.00292969c-16.667 0 -25 10 -25 30c0 30.667 7.33301 58.167 22 82.5s32.667 44.166 54 59.499s42.666 29.833 63.999 43.5s39.333 28.834 54 45.501s22 35.334 22 56.001c0 22 -7.66699 40.333 -23 55s-35 22 -59 22
c-24.667 0 -48.667 -10.667 -72 -32c-11.333 -10 -22.666 -10.333 -33.999 -1l-2 2c-12.667 12.667 -13.334 24 -2.00098 34c32 32 69.333 48 112 48c41.333 0 74.5 -12 99.5 -36s37.5 -54.333 37.5 -91c0 -50 -24.667 -92 -74 -126l-36 -23
c-18 -11.333 -31.167 -20.166 -39.5 -26.499s-18.333 -14.666 -30 -24.999s-20.167 -21 -25.5 -32s-8.33301 -22.833 -9 -35.5h197c16 0 24 -7.66699 24 -23v-3c0 -16 -8 -24 -24 -24zM627.001 673.997l-312.999 -655c-4.66699 -12.667 -14 -19 -28 -19h-10
c-8.66699 0 -14.334 2.66699 -17.001 8s-2 12.333 2 21l313 655c6 12.667 15.667 19 29 19h9c8.66699 0 14.5 -2.66699 17.5 -8s2.16699 -12.333 -2.5 -21zM270.002 267.997l-193 0.00195312c-16.667 0 -25 8 -25 24v3c0 15.333 7.66699 23 23 23h72v289l1 24h-1
c-4 -6.66699 -10.667 -14.667 -20 -24l-27 -26c-9.33301 -8.66699 -18.666 -8.33398 -27.999 0.999023l-6 6c-10 11.333 -9 22.666 3 33.999l68 69c9.33301 8 19.666 12 30.999 12h10c16 0 24 -8 24 -24v-361h68c16 0 24 -7.66699 24 -23v-3c0 -16 -8 -24 -24 -24z" />
    <glyph glyph-name="threequarters" unicode="&#xbe;" horiz-adv-x="937" 
d="M826 0h-6c-16 -0 -24 8.33301 -24 25v89h-187c-16.667 0 -25 6.33301 -25 19v7c0 8 3.33301 16.333 10 25l191 255c7.33301 10 17.333 15 30 15h11c16.667 0 25 -8 25 -24v-247h43c15.333 0 23 -7.66699 23 -23v-3c0 -16 -7.66699 -24 -23 -24h-43v-89
c0 -16.667 -8.33301 -25 -25 -25zM652 166v-2h144v136l3 62h-2c-8 -14.667 -18.667 -31 -32 -49zM197 258c-51.333 0 -93.334 16.3311 -126.001 48.998c-12 10 -12.667 21 -2 33l4 4c8.66699 10.667 19.667 11.334 33 2.00098c25.333 -24 55.333 -36 90 -36
c24.667 0 46.334 8.66699 65.001 26s28 38.333 28 63s-9.33301 44.834 -28 60.501s-41.334 23.5 -68.001 23.5h-16c-12.667 0 -21 5 -25 15c-4.66699 10 -2.66699 20.333 6 31l86 100l24 25v2c-12 -2 -24.333 -3 -37 -3h-129c-16 0 -24 8 -24 24v3c0 15.333 8 23 24 23h214
c16.667 0 25 -6 25 -18v-4c0 -8.66699 -4 -17.667 -12 -27l-107 -125c36 -4 65.667 -17.167 89 -39.5s35 -52.5 35 -90.5c0 -38.667 -14.333 -72 -43 -100c-29.333 -27.333 -64.666 -41 -105.999 -41zM661.999 673.998l-312.999 -655c-4.66699 -12.667 -14 -19 -28 -19h-10
c-8.66699 0 -14.334 2.66699 -17.001 8s-2 12.333 2 21l313 655c6 12.667 15.667 19 29 19h9c8.66699 0 14.5 -2.66699 17.5 -8s2.16699 -12.333 -2.5 -21z" />
    <glyph glyph-name="questiondown" unicode="&#xbf;" horiz-adv-x="453" 
d="M274 318l19.002 -0.00292969c16.667 0 25 -8.33301 25 -25v-23c0 -52.667 -20.667 -98 -62 -136c-2 -1.33301 -10.333 -8.66602 -25 -21.999s-23.834 -22 -27.501 -26l-21.5 -24c-10.667 -12 -17.834 -21.833 -21.501 -29.5s-7.5 -17.667 -11.5 -30s-6 -24.5 -6 -36.5
c0 -32.667 12.333 -60 37 -82s56 -33 94 -33c34.667 0 68.334 9.66699 101.001 29c15.333 8 26.666 6 33.999 -6l8 -12c10.667 -13.333 9 -24.666 -5 -33.999c-42 -28 -89 -42 -141 -42c-56.667 0 -104.334 16.667 -143.001 50c-38 32.667 -57 75 -57 127
c0 56.667 20.667 104.334 62 143.001c4.66699 4.66699 14.667 13.834 30 27.501s26.333 24.167 33 31.5s15 17.166 25 29.499s17.167 25 21.5 38s6.83301 26.5 7.5 40.5l1 24c0.666992 14 8.33398 21 23.001 21zM323.002 476.997v-29c0 -16.667 -8 -25 -24 -25h-30
c-16 0 -24 8.33301 -24 25v29c0 16.667 8 25 24 25h30c16 0 24 -8.33301 24 -25z" />
    <glyph glyph-name="Agrave" unicode="&#xc0;" horiz-adv-x="609" 
d="M27 29l242.001 654c4 13.333 13 20 27 20h33c14 0 23 -6.66699 27 -20l242 -654c5.33301 -19.333 -1.33398 -29 -20.001 -29h-22c-14.667 0 -24 6.66699 -28 20l-75 204h-282l-74 -204c-4 -13.333 -13.333 -20 -28 -20h-21c-19.333 0 -26.333 9.66699 -21 29z
M285.001 539l-94 -255h242l-93 255l-26 92h-2c-12 -42 -21 -72.667 -27 -92zM315.001 752l-14.001 -0.000976562c-12 0 -22 5.33301 -30 16l-53 73c-6 8.66699 -7.83301 15.834 -5.5 21.501s8.83301 8.5 19.5 8.5h23c12 0 21.667 -5.66699 29 -17l44 -74
c4.66699 -7.33301 5.83398 -13.833 3.50098 -19.5s-7.83301 -8.5 -16.5 -8.5z" />
    <glyph glyph-name="Aacute" unicode="&#xc1;" horiz-adv-x="609" 
d="M27 29l242.001 654c4 13.333 13 20 27 20h33c14 0 23 -6.66699 27 -20l242 -654c5.33301 -19.333 -1.33398 -29 -20.001 -29h-22c-14.667 0 -24 6.66699 -28 20l-75 204h-282l-74 -204c-4 -13.333 -13.333 -20 -28 -20h-21c-19.333 0 -26.333 9.66699 -21 29z
M285.001 539l-94 -255h242l-93 255l-26 92h-2c-12 -42 -21 -72.667 -27 -92zM323.001 752l-11.001 0.000976562c-9.33301 0 -15.666 2.83301 -18.999 8.5s-2.33301 12.167 3 19.5l44 74c7.33301 11.333 17 17 29 17h23c10.667 0 17.167 -2.83301 19.5 -8.5
s0.5 -12.834 -5.5 -21.501l-53 -73c-8 -10.667 -18 -16 -30 -16z" />
    <glyph glyph-name="Acircumflex" unicode="&#xc2;" horiz-adv-x="609" 
d="M27 29l242.001 654c4 13.333 13 20 27 20h33c14 0 23 -6.66699 27 -20l242 -654c5.33301 -19.333 -1.33398 -29 -20.001 -29h-22c-14.667 0 -24 6.66699 -28 20l-75 204h-282l-74 -204c-4 -13.333 -13.333 -20 -28 -20h-21c-19.333 0 -26.333 9.66699 -21 29z
M285.001 539l-94 -255h242l-93 255l-26 92h-2c-12 -42 -21 -72.667 -27 -92zM239.001 752h-15.002c-9.33301 0 -15.166 2.83301 -17.499 8.5s-0.833008 12.834 4.5 21.501l52 73c8 10.667 18 16 30 16h37c12 0 22.333 -5.33301 31 -16l51 -73
c6 -8.66699 8 -15.834 6 -21.501s-7.66699 -8.5 -17 -8.5h-17c-10.667 0 -19.667 5.66699 -27 17l-44 64h-2l-44 -64c-7.33301 -11.333 -16.666 -17 -27.999 -17z" />
    <glyph glyph-name="Atilde" unicode="&#xc3;" horiz-adv-x="609" 
d="M27 29l242.001 654c4 13.333 13 20 27 20h33c14 0 23 -6.66699 27 -20l242 -654c5.33301 -19.333 -1.33398 -29 -20.001 -29h-22c-14.667 0 -24 6.66699 -28 20l-75 204h-282l-74 -204c-4 -13.333 -13.333 -20 -28 -20h-21c-19.333 0 -26.333 9.66699 -21 29z
M285.001 539l-94 -255h242l-93 255l-26 92h-2c-12 -42 -21 -72.667 -27 -92zM187.001 755l-7.00098 0.000976562c-14.667 0 -22 8.66699 -22 26c0 26.667 8.16699 48.5 24.5 65.5s37.5 25.5 63.5 25.5c19.333 0 36.5 -6 51.5 -18s28.667 -24 41 -36s24.5 -18 36.5 -18
c11.333 0 20.5 4.66699 27.5 14s10.833 21.333 11.5 36c0 12.667 7.66699 19 23 19h8c14 0 21 -7.66699 21 -23c0 -28.667 -7.83301 -51.5 -23.5 -68.5s-37.167 -25.5 -64.5 -25.5c-25.333 0 -56.333 17.667 -93 53c-19.333 18 -36.666 22.667 -51.999 14
s-23 -24.334 -23 -47.001c-1.33301 -11.333 -9 -17 -23 -17z" />
    <glyph glyph-name="Adieresis" unicode="&#xc4;" horiz-adv-x="609" 
d="M27 29l242.001 654c4 13.333 13 20 27 20h33c14 0 23 -6.66699 27 -20l242 -654c5.33301 -19.333 -1.33398 -29 -20.001 -29h-22c-14.667 0 -24 6.66699 -28 20l-75 204h-282l-74 -204c-4 -13.333 -13.333 -20 -28 -20h-21c-19.333 0 -26.333 9.66699 -21 29z
M285.001 539l-94 -255h242l-93 255l-26 92h-2c-12 -42 -21 -72.667 -27 -92zM394.001 785h-13c-16 0 -24 8 -24 24v37c0 16.667 8 25 24 25h13c16.667 0 25 -8.33301 25 -25v-37c0 -16 -8.33301 -24 -25 -24zM243.001 785h-13c-16 0 -24 8 -24 24v37c0 16.667 8 25 24 25h13
c16 0 24 -8.33301 24 -25v-37c0 -16 -8 -24 -24 -24z" />
    <glyph glyph-name="Aring" unicode="&#xc5;" horiz-adv-x="609" 
d="M27 29l242.001 654c4 13.333 13 20 27 20h33c14 0 23 -6.66699 27 -20l242 -654c5.33301 -19.333 -1.33398 -29 -20.001 -29h-22c-14.667 0 -24 6.66699 -28 20l-75 204h-282l-74 -204c-4 -13.333 -13.333 -20 -28 -20h-21c-19.333 0 -26.333 9.66699 -21 29z
M285.001 539l-94 -255h242l-93 255l-26 92h-2c-12 -42 -21 -72.667 -27 -92zM365.001 761c-14.667 -13.333 -32.334 -20 -53.001 -20s-38.334 6.66699 -53.001 20s-22 30.333 -22 51s7.33301 37.667 22 51s32.334 20 53.001 20s38.334 -6.66699 53.001 -20
c15.333 -13.333 23 -30.333 23 -51s-7.66699 -37.667 -23 -51zM312.001 779c10 0 18 3.16699 24 9.5s9 14.166 9 23.499c0 10 -3 18.167 -9 24.5s-14 9.5 -24 9.5c-9.33301 0 -17 -3.16699 -23 -9.5s-9 -14.5 -9 -24.5c0 -9.33301 3 -17.166 9 -23.499s13.667 -9.5 23 -9.5z
" />
    <glyph glyph-name="AE" unicode="&#xc6;" horiz-adv-x="833" 
d="M20 29l269.999 655c4.66699 12.667 14 19 28 19h436c16.667 0 25 -8.33301 25 -25v-12c0 -16.667 -8.33301 -25 -25 -25h-302v-256h243c16 0 24 -8 24 -24v-13c0 -16.667 -8 -25 -24 -25h-243v-261h320c16.667 0 25 -8.33301 25 -25v-12c0 -16.667 -8.33301 -25 -25 -25
h-364c-16.667 -0 -25 8.33301 -25 25v299h-170l-124 -305c-4.66699 -12.667 -14 -19 -28 -19h-22c-9.33301 0 -15.666 2.66699 -18.999 8s-3.33301 12.333 0 21zM341.999 641l-105 -257h146v257h-41z" />
    <glyph glyph-name="Ccedilla" unicode="&#xc7;" horiz-adv-x="712" 
d="M361 -64l11.9971 54c-96.667 8 -174.334 46.333 -233.001 115s-88 152.334 -88 251.001c0 102.667 33 188 99 256c66.667 68.667 151.334 103 254.001 103c93.333 0 172 -25 236 -75c11.333 -9.33301 12.666 -21 3.99902 -35l-9 -13
c-9.33301 -12 -20.666 -13.333 -33.999 -4c-59.333 41.333 -124.333 62 -195 62c-83.333 0 -151.666 -28 -204.999 -84c-52 -54.667 -78 -124.334 -78 -209.001c0 -85.333 26.333 -157.333 79 -216s121.667 -88 207 -88c76.667 0 146.334 25.333 209.001 76
c12.667 10.667 24 9.66699 34 -3l9 -11c10 -12 9.33301 -23.667 -2 -35c-67.333 -59.333 -148 -90 -242 -92l-8 -43c21.333 -3.33301 38.333 -11.333 51 -24s19 -28.334 19 -47.001c0 -26.667 -8.66699 -46.5 -26 -59.5s-40.666 -19.5 -69.999 -19.5c-32 0 -48 8 -48 24
c0 16.667 5.33301 25 16 25c0.666992 0 4.33398 -0.5 11.001 -1.5s11.667 -1.5 15 -1.5c32.667 0 49 11.333 49 34c0 20.667 -16.333 32.334 -49 35.001c-14.667 1.33301 -20.334 10 -17.001 26z" />
    <glyph glyph-name="Egrave" unicode="&#xc8;" horiz-adv-x="553" 
d="M98 25v653c0 16.667 8 25 24 25h347c16.667 0 25 -8.33301 25 -25v-12c0 -16.667 -8.33301 -25 -25 -25h-302v-256h242c16.667 0 25 -8 25 -24v-13c0 -16.667 -8.33301 -25 -25 -25h-242v-261h320c16.667 0 25 -8.33301 25 -25v-12c0 -16.667 -8.33301 -25 -25 -25h-365
c-16 -0 -24 8.33301 -24 25zM310 752l-14.001 -0.000976562c-12 0 -22 5.33301 -30 16l-53 73c-6 8.66699 -7.83301 15.834 -5.5 21.501s8.83301 8.5 19.5 8.5h23c12 0 21.667 -5.66699 29 -17l44 -74c4.66699 -7.33301 5.83398 -13.833 3.50098 -19.5
s-7.83301 -8.5 -16.5 -8.5z" />
    <glyph glyph-name="Eacute" unicode="&#xc9;" horiz-adv-x="553" 
d="M98 25v653c0 16.667 8 25 24 25h347c16.667 0 25 -8.33301 25 -25v-12c0 -16.667 -8.33301 -25 -25 -25h-302v-256h242c16.667 0 25 -8 25 -24v-13c0 -16.667 -8.33301 -25 -25 -25h-242v-261h320c16.667 0 25 -8.33301 25 -25v-12c0 -16.667 -8.33301 -25 -25 -25h-365
c-16 -0 -24 8.33301 -24 25zM317 752l-11.001 0.000976562c-9.33301 0 -15.666 2.83301 -18.999 8.5s-2.33301 12.167 3 19.5l44 74c7.33301 11.333 17 17 29 17h23c10.667 0 17.167 -2.83301 19.5 -8.5s0.5 -12.834 -5.5 -21.501l-53 -73c-8 -10.667 -18 -16 -30 -16z" />
    <glyph glyph-name="Ecircumflex" unicode="&#xca;" horiz-adv-x="553" 
d="M234 752h-15.002c-9.33301 0 -15.166 2.83301 -17.499 8.5s-0.833008 12.834 4.5 21.501l52 73c8 10.667 18 16 30 16h37c12 0 22.333 -5.33301 31 -16l51 -73c6 -8.66699 8 -15.834 6 -21.501s-7.66699 -8.5 -17 -8.5h-17c-10.667 0 -19.667 5.66699 -27 17l-44 64h-2
l-44 -64c-7.33301 -11.333 -16.666 -17 -27.999 -17zM97.998 25v653c0 16.667 8 25 24 25h347c16.667 0 25 -8.33301 25 -25v-12c0 -16.667 -8.33301 -25 -25 -25h-302v-256h242c16.667 0 25 -8 25 -24v-13c0 -16.667 -8.33301 -25 -25 -25h-242v-261h320
c16.667 0 25 -8.33301 25 -25v-12c0 -16.667 -8.33301 -25 -25 -25h-365c-16 -0 -24 8.33301 -24 25z" />
    <glyph glyph-name="Edieresis" unicode="&#xcb;" horiz-adv-x="553" 
d="M98 25v653c0 16.667 8 25 24 25h347c16.667 0 25 -8.33301 25 -25v-12c0 -16.667 -8.33301 -25 -25 -25h-302v-256h242c16.667 0 25 -8 25 -24v-13c0 -16.667 -8.33301 -25 -25 -25h-242v-261h320c16.667 0 25 -8.33301 25 -25v-12c0 -16.667 -8.33301 -25 -25 -25h-365
c-16 -0 -24 8.33301 -24 25zM389 785h-13c-16 0 -24 8 -24 24v37c0 16.667 8 25 24 25h13c16.667 0 25 -8.33301 25 -25v-37c0 -16 -8.33301 -24 -25 -24zM238 785h-13c-16 0 -24 8 -24 24v37c0 16.667 8 25 24 25h13c16 0 24 -8.33301 24 -25v-37c0 -16 -8 -24 -24 -24z
" />
    <glyph glyph-name="Igrave" unicode="&#xcc;" horiz-adv-x="265" 
d="M139 752l-14.001 -0.000976562c-12 0 -22 5.33301 -30 16l-53 73c-6 8.66699 -7.83301 15.834 -5.5 21.501s8.83301 8.5 19.5 8.5h23c12 0 21.667 -5.66699 29 -17l44 -74c4.66699 -7.33301 5.83398 -13.833 3.50098 -19.5s-7.83301 -8.5 -16.5 -8.5zM100.999 24.999v653
c0 16.667 8 25 24 25h21c16 0 24 -8.33301 24 -25v-653c0 -16.667 -8 -25 -24 -25h-21c-16 0 -24 8.33301 -24 25z" />
    <glyph glyph-name="Iacute" unicode="&#xcd;" horiz-adv-x="265" 
d="M144 752l-11.001 0.000976562c-9.33301 0 -15.666 2.83301 -18.999 8.5s-2.33301 12.167 3 19.5l44 74c7.33301 11.333 17 17 29 17h23c10.667 0 17.167 -2.83301 19.5 -8.5s0.5 -12.834 -5.5 -21.501l-53 -73c-8 -10.667 -18 -16 -30 -16zM97.999 25.001v653
c0 16.667 8 25 24 25h21c16 0 24 -8.33301 24 -25v-653c0 -16.667 -8 -25 -24 -25h-21c-16 0 -24 8.33301 -24 25z" />
    <glyph glyph-name="Icircumflex" unicode="&#xce;" horiz-adv-x="265" 
d="M64 752h-15.002c-9.33301 0 -15.166 2.83301 -17.499 8.5s-0.833008 12.834 4.5 21.501l52 73c8 10.667 18 16 30 16h37c12 0 22.333 -5.33301 31 -16l51 -73c6 -8.66699 8 -15.834 6 -21.501s-7.66699 -8.5 -17 -8.5h-17c-10.667 0 -19.667 5.66699 -27 17l-44 64h-2
l-44 -64c-7.33301 -11.333 -16.666 -17 -27.999 -17zM100.998 25v653c0 16.667 8 25 24 25h21c16 0 24 -8.33301 24 -25v-653c0 -16.667 -8 -25 -24 -25h-21c-16 -0 -24 8.33301 -24 25z" />
    <glyph glyph-name="Idieresis" unicode="&#xcf;" horiz-adv-x="265" 
d="M216 785h-13c-16 0 -24 8 -24 24v37c0 16.667 8 25 24 25h13c16.667 0 25 -8.33301 25 -25v-37c0 -16 -8.33301 -24 -25 -24zM65 785h-13c-16 0 -24 8 -24 24v37c0 16.667 8 25 24 25h13c16 0 24 -8.33301 24 -25v-37c0 -16 -8 -24 -24 -24zM98 25v653
c0 16.667 8 25 24 25h21c16 0 24 -8.33301 24 -25v-653c0 -16.667 -8 -25 -24 -25h-21c-16 -0 -24 8.33301 -24 25z" />
    <glyph glyph-name="Eth" unicode="&#xd0;" horiz-adv-x="731" 
d="M98 25l0.000976562 298h-35c-16 0 -24 8.33301 -24 25v11c0 16 6.33301 24 19 24h40v295c0 16.667 8.33301 25 25 25h202c107.333 0 192.666 -31.333 255.999 -94c64.667 -62 97 -147.667 97 -257c0 -110.667 -32 -197 -96 -259s-149.667 -93 -257 -93h-202
c-16.667 -0 -25 8.33301 -25 25zM167.001 323v-261h151c88.667 0 158.834 25.5 210.501 76.5s77.5 122.167 77.5 213.5s-25.833 162.333 -77.5 213s-121.834 76 -210.501 76h-151v-258h143c16.667 0 25 -8 25 -24v-11c0 -16.667 -8 -25 -24 -25h-144z" />
    <glyph glyph-name="Ntilde" unicode="&#xd1;" horiz-adv-x="745" 
d="M98 25l0.000976562 652.999c0 16.667 8 25 24 25h24c12 0 22 -5.33301 30 -16l348 -490l58 -95h2c-4 38.667 -6 70.334 -6 95.001v481c0 16.667 8.33301 25 25 25h20c16 0 24 -8.33301 24 -25v-653c0 -16.667 -8 -25 -24 -25h-24c-12.667 -0 -22.334 5.33301 -29.001 16
l-349 490l-58 95h-2c4 -39.333 6 -71 6 -95v-481c0 -16.667 -8 -25 -24 -25h-21c-16 -0 -24 8.33301 -24 25zM247.001 754.999l-7.00098 0.000976562c-14.667 0 -22 8.66699 -22 26c0 26.667 8.16699 48.5 24.5 65.5s37.5 25.5 63.5 25.5c19.333 0 36.5 -6 51.5 -18
s28.667 -24 41 -36s24.5 -18 36.5 -18c11.333 0 20.5 4.66699 27.5 14s10.833 21.333 11.5 36c0 12.667 7.66699 19 23 19h8c14 0 21 -7.66699 21 -23c0 -28.667 -7.83301 -51.5 -23.5 -68.5s-37.167 -25.5 -64.5 -25.5c-25.333 0 -56.333 17.667 -93 53
c-19.333 18 -36.666 22.667 -51.999 14s-23 -24.334 -23 -47.001c-1.33301 -11.333 -9 -17 -23 -17z" />
    <glyph glyph-name="Ograve" unicode="&#xd2;" horiz-adv-x="817" 
d="M50 356c0 101.333 34.001 186.333 102.001 255c69.333 69.333 154.666 104 255.999 104c102.667 0 188 -34.667 256 -104c68 -68.667 102 -153.667 102 -255c0 -104 -34 -191.333 -102 -262s-153.333 -106 -256 -106c-102 0 -187.333 35.333 -256 106
c-68 70.667 -102 158 -102 262zM122.001 356c0 -86 27.001 -158 81.001 -216c55.333 -58 123.666 -87 204.999 -87c82 0 150 29 204 87c54.667 57.333 82 129.333 82 216c0 84.667 -27.333 154.667 -82 210c-54 56 -122 84 -204 84s-150.333 -28 -205 -84
c-54 -56 -81 -126 -81 -210zM411.002 752l-14.001 -0.000976562c-12 0 -22 5.33301 -30 16l-53 73c-6 8.66699 -7.83301 15.834 -5.5 21.501s8.83301 8.5 19.5 8.5h23c12 0 21.667 -5.66699 29 -17l44 -74c4.66699 -7.33301 5.83398 -13.833 3.50098 -19.5
s-7.83301 -8.5 -16.5 -8.5z" />
    <glyph glyph-name="Oacute" unicode="&#xd3;" horiz-adv-x="817" 
d="M50 356c0 101.333 34.001 186.333 102.001 255c69.333 69.333 154.666 104 255.999 104c102.667 0 188 -34.667 256 -104c68 -68.667 102 -153.667 102 -255c0 -104 -34 -191.333 -102 -262s-153.333 -106 -256 -106c-102 0 -187.333 35.333 -256 106
c-68 70.667 -102 158 -102 262zM122.001 356c0 -86 27.001 -158 81.001 -216c55.333 -58 123.666 -87 204.999 -87c82 0 150 29 204 87c54.667 57.333 82 129.333 82 216c0 84.667 -27.333 154.667 -82 210c-54 56 -122 84 -204 84s-150.333 -28 -205 -84
c-54 -56 -81 -126 -81 -210zM418.002 752l-11.001 0.000976562c-9.33301 0 -15.666 2.83301 -18.999 8.5s-2.33301 12.167 3 19.5l44 74c7.33301 11.333 17 17 29 17h23c10.667 0 17.167 -2.83301 19.5 -8.5s0.5 -12.834 -5.5 -21.501l-53 -73c-8 -10.667 -18 -16 -30 -16z
" />
    <glyph glyph-name="Ocircumflex" unicode="&#xd4;" horiz-adv-x="817" 
d="M335 752h-15.002c-9.33301 0 -15.166 2.83301 -17.499 8.5s-0.833008 12.834 4.5 21.501l52 73c8 10.667 18 16 30 16h37c12 0 22.333 -5.33301 31 -16l51 -73c6 -8.66699 8 -15.834 6 -21.501s-7.66699 -8.5 -17 -8.5h-17c-10.667 0 -19.667 5.66699 -27 17l-44 64h-2
l-44 -64c-7.33301 -11.333 -16.666 -17 -27.999 -17zM49.998 356c0 101.333 34.001 186.333 102.001 255c69.333 69.333 154.666 104 255.999 104c102.667 0 188 -34.667 256 -104c68 -68.667 102 -153.667 102 -255c0 -104 -34 -191.333 -102 -262s-153.333 -106 -256 -106
c-102 0 -187.333 35.333 -256 106c-68 70.667 -102 158 -102 262zM121.999 356c0 -86 27.001 -158 81.001 -216c55.333 -58 123.666 -87 204.999 -87c82 0 150 29 204 87c54.667 57.333 82 129.333 82 216c0 84.667 -27.333 154.667 -82 210c-54 56 -122 84 -204 84
s-150.333 -28 -205 -84c-54 -56 -81 -126 -81 -210z" />
    <glyph glyph-name="Otilde" unicode="&#xd5;" horiz-adv-x="817" 
d="M283 755l-7.00098 0.000976562c-14.667 0 -22 8.66699 -22 26c0 26.667 8.16699 48.5 24.5 65.5s37.5 25.5 63.5 25.5c19.333 0 36.5 -6 51.5 -18s28.667 -24 41 -36s24.5 -18 36.5 -18c11.333 0 20.5 4.66699 27.5 14s10.833 21.333 11.5 36c0 12.667 7.66699 19 23 19
h8c14 0 21 -7.66699 21 -23c0 -28.667 -7.83301 -51.5 -23.5 -68.5s-37.167 -25.5 -64.5 -25.5c-25.333 0 -56.333 17.667 -93 53c-19.333 18 -36.666 22.667 -51.999 14s-23 -24.334 -23 -47.001c-1.33301 -11.333 -9 -17 -23 -17zM49.999 356.001
c0 101.333 34.001 186.333 102.001 255c69.333 69.333 154.666 104 255.999 104c102.667 0 188 -34.667 256 -104c68 -68.667 102 -153.667 102 -255c0 -104 -34 -191.333 -102 -262s-153.333 -106 -256 -106c-102 0 -187.333 35.333 -256 106c-68 70.667 -102 158 -102 262
zM122 356.001c0 -86 27.001 -158 81.001 -216c55.333 -58 123.666 -87 204.999 -87c82 0 150 29 204 87c54.667 57.333 82 129.333 82 216c0 84.667 -27.333 154.667 -82 210c-54 56 -122 84 -204 84s-150.333 -28 -205 -84c-54 -56 -81 -126 -81 -210z" />
    <glyph glyph-name="Odieresis" unicode="&#xd6;" horiz-adv-x="817" 
d="M50 356c0 101.333 34.001 186.333 102.001 255c69.333 69.333 154.666 104 255.999 104c102.667 0 188 -34.667 256 -104c68 -68.667 102 -153.667 102 -255c0 -104 -34 -191.333 -102 -262s-153.333 -106 -256 -106c-102 0 -187.333 35.333 -256 106
c-68 70.667 -102 158 -102 262zM122.001 356c0 -86 27.001 -158 81.001 -216c55.333 -58 123.666 -87 204.999 -87c82 0 150 29 204 87c54.667 57.333 82 129.333 82 216c0 84.667 -27.333 154.667 -82 210c-54 56 -122 84 -204 84s-150.333 -28 -205 -84
c-54 -56 -81 -126 -81 -210zM490.002 785h-13c-16 0 -24 8 -24 24v37c0 16.667 8 25 24 25h13c16.667 0 25 -8.33301 25 -25v-37c0 -16 -8.33301 -24 -25 -24zM339.002 785h-13c-16 0 -24 8 -24 24v37c0 16.667 8 25 24 25h13c16 0 24 -8.33301 24 -25v-37
c0 -16 -8 -24 -24 -24z" />
    <glyph glyph-name="multiply" unicode="&#xd7;" horiz-adv-x="606" 
d="M87 18l-6.99805 5.99902c-10.667 10.667 -11 22.334 -1 35.001l200 225l-200 225c-10.667 12.667 -10.334 24 0.999023 34l7 7c12.667 12 24.334 11.667 35.001 -1l197 -221l197 221c10.667 12.667 22.334 13 35.001 1l7 -7c11.333 -10 11.666 -21.333 0.999023 -34
l-201 -225l201 -225c10 -12.667 9.66699 -24.334 -1 -35.001l-7 -6c-12.667 -12 -24.334 -11.667 -35.001 1l-197 221l-197 -221c-10.667 -13.333 -22.334 -13.666 -35.001 -0.999023z" />
    <glyph glyph-name="Oslash" unicode="&#xd8;" horiz-adv-x="816" 
d="M139 23l37.001 51.001c-40 34 -71 75.667 -93 125s-33 101.666 -33 156.999c0 100.667 34.667 185.667 104 255s154 104 254 104c68 0 131 -18 189 -54l33 47c10 13.333 22 15 36 5c13.333 -11.333 16 -21.666 8 -30.999l-35 -50c40.667 -34 72 -74.833 94 -122.5
s33 -98.834 33 -153.501c0 -102.667 -34.667 -189.667 -104 -261s-154 -107 -254 -107c-68.667 0 -132.334 18.667 -191.001 56l-34 -48c-10 -13.333 -22 -15.333 -36 -6c-13.333 10 -16 21 -8 33zM217.001 131.001l341 476c-43.333 28.667 -93.333 43 -150 43
c-79.333 0 -147 -28.333 -203 -85c-55.333 -57.333 -83 -127 -83 -209c0 -92 31.667 -167 95 -225zM598.001 577.001l-343 -479.001c44.667 -30 95.667 -45 153 -45c80 0 147.667 29 203 87c55.333 58.667 83 130.334 83 215.001c0 91.333 -32 165.333 -96 222z" />
    <glyph glyph-name="Ugrave" unicode="&#xd9;" horiz-adv-x="715" 
d="M88 245v432.999c0 16.667 8.33301 25 25 25h20c16.667 0 25 -8.33301 25 -25v-432c0 -60 18 -107.167 54 -141.5s84.333 -51.5 145 -51.5c61.333 0 110 17.333 146 52s54 82.334 54 143.001v430c0 16.667 8.33301 25 25 25h20c16 0 24 -8.33301 24 -25v-433
c0 -77.333 -24.667 -139.666 -74 -186.999c-48.667 -46.667 -113.334 -70 -194.001 -70c-81.333 0 -146.666 23.333 -195.999 70c-49.333 47.333 -74 109.666 -74 186.999zM359 751.999l-14.001 -0.000976562c-12 0 -22 5.33301 -30 16l-53 73
c-6 8.66699 -7.83301 15.834 -5.5 21.501s8.83301 8.5 19.5 8.5h23c12 0 21.667 -5.66699 29 -17l44 -74c4.66699 -7.33301 5.83398 -13.833 3.50098 -19.5s-7.83301 -8.5 -16.5 -8.5z" />
    <glyph glyph-name="Uacute" unicode="&#xda;" horiz-adv-x="715" 
d="M88 245v432.999c0 16.667 8.33301 25 25 25h20c16.667 0 25 -8.33301 25 -25v-432c0 -60 18 -107.167 54 -141.5s84.333 -51.5 145 -51.5c61.333 0 110 17.333 146 52s54 82.334 54 143.001v430c0 16.667 8.33301 25 25 25h20c16 0 24 -8.33301 24 -25v-433
c0 -77.333 -24.667 -139.666 -74 -186.999c-48.667 -46.667 -113.334 -70 -194.001 -70c-81.333 0 -146.666 23.333 -195.999 70c-49.333 47.333 -74 109.666 -74 186.999zM367 751.999l-11.001 0.000976562c-9.33301 0 -15.666 2.83301 -18.999 8.5s-2.33301 12.167 3 19.5
l44 74c7.33301 11.333 17 17 29 17h23c10.667 0 17.167 -2.83301 19.5 -8.5s0.5 -12.834 -5.5 -21.501l-53 -73c-8 -10.667 -18 -16 -30 -16z" />
    <glyph glyph-name="Ucircumflex" unicode="&#xdb;" horiz-adv-x="715" 
d="M284 752h-15.002c-9.33301 0 -15.166 2.83301 -17.499 8.5s-0.833008 12.834 4.5 21.501l52 73c8 10.667 18 16 30 16h37c12 0 22.333 -5.33301 31 -16l51 -73c6 -8.66699 8 -15.834 6 -21.501s-7.66699 -8.5 -17 -8.5h-17c-10.667 0 -19.667 5.66699 -27 17l-44 64h-2
l-44 -64c-7.33301 -11.333 -16.666 -17 -27.999 -17zM87.998 245v432.999c0 16.667 8.33301 25 25 25h20c16.667 0 25 -8.33301 25 -25v-432c0 -60 18 -107.167 54 -141.5s84.333 -51.5 145 -51.5c61.333 0 110 17.333 146 52s54 82.334 54 143.001v430
c0 16.667 8.33301 25 25 25h20c16 0 24 -8.33301 24 -25v-433c0 -77.333 -24.667 -139.666 -74 -186.999c-48.667 -46.667 -113.334 -70 -194.001 -70c-81.333 0 -146.666 23.333 -195.999 70c-49.333 47.333 -74 109.666 -74 186.999z" />
    <glyph glyph-name="Udieresis" unicode="&#xdc;" horiz-adv-x="715" 
d="M88 245v432.999c0 16.667 8.33301 25 25 25h20c16.667 0 25 -8.33301 25 -25v-432c0 -60 18 -107.167 54 -141.5s84.333 -51.5 145 -51.5c61.333 0 110 17.333 146 52s54 82.334 54 143.001v430c0 16.667 8.33301 25 25 25h20c16 0 24 -8.33301 24 -25v-433
c0 -77.333 -24.667 -139.666 -74 -186.999c-48.667 -46.667 -113.334 -70 -194.001 -70c-81.333 0 -146.666 23.333 -195.999 70c-49.333 47.333 -74 109.666 -74 186.999zM439 784.999h-13c-16 0 -24 8 -24 24v37c0 16.667 8 25 24 25h13c16.667 0 25 -8.33301 25 -25v-37
c0 -16 -8.33301 -24 -25 -24zM288 784.999h-13c-16 0 -24 8 -24 24v37c0 16.667 8 25 24 25h13c16 0 24 -8.33301 24 -25v-37c0 -16 -8 -24 -24 -24z" />
    <glyph glyph-name="Yacute" unicode="&#xdd;" horiz-adv-x="554" 
d="M248 25l0.00292969 277l-221 372c-5.33301 8 -6.33301 14.833 -3 20.5s10 8.5 20 8.5h25c13.333 0 23 -5.66699 29 -17l140 -238l43 -84h2c17.333 35.333 31.666 63.333 42.999 84l140 238c6 11.333 15.333 17 28 17h26c9.33301 0 15.666 -2.83301 18.999 -8.5
s2.66602 -12.5 -2.00098 -20.5l-220 -372v-277c0 -16.667 -8.33301 -25 -25 -25h-20c-16 -0 -24 8.33301 -24 25zM292.003 752l-11.001 0.000976562c-9.33301 0 -15.666 2.83301 -18.999 8.5s-2.33301 12.167 3 19.5l44 74c7.33301 11.333 17 17 29 17h23
c10.667 0 17.167 -2.83301 19.5 -8.5s0.5 -12.834 -5.5 -21.501l-53 -73c-8 -10.667 -18 -16 -30 -16z" />
    <glyph glyph-name="Thorn" unicode="&#xde;" horiz-adv-x="591" 
d="M98 25v653.001c0 16.667 8 25 24 25h21c16 0 24 -8 24 -24v-101h174c64.667 0 116.667 -19.333 156 -58c40.667 -38.667 61 -90.334 61 -155.001c0 -65.333 -20.333 -117.333 -61 -156s-93 -58 -157 -58h-173v-126c0 -16.667 -8 -25 -24 -25h-21
c-16 -0 -24 8.33301 -24 25zM167 516.001v-303h165c48 0 85.833 13.5 113.5 40.5s41.5 64.167 41.5 111.5s-13.667 84.333 -41 111s-65 40 -113 40h-166z" />
    <glyph glyph-name="germandbls" unicode="&#xdf;" horiz-adv-x="567" 
d="M78 25l0.000976562 506.001c0 56.667 20 101.334 60 134.001c40.667 33.333 87.667 50 141 50c51.333 0 93.333 -14.667 126 -44c32.667 -28.667 49 -63.667 49 -105c0 -44 -18.667 -82 -56 -114c-36.667 -32.667 -55 -60.334 -55 -83.001c0 -24 32.333 -55.667 97 -95
c26.667 -15.333 49.667 -35.5 69 -60.5s29 -50.833 29 -77.5c0 -45.333 -15.667 -80.666 -47 -105.999c-30.667 -24.667 -69 -37 -115 -37c-48 0 -91 8.33301 -129 25c-12.667 4 -19 13.333 -19 28v14c0 20 8.66699 26.333 26 19c36 -16.667 75 -25 117 -25
c29.333 0 53 7.16699 71 21.5s27 35.166 27 62.499c0 19.333 -9.5 38.666 -28.5 57.999s-42.167 36.666 -69.5 51.999s-50.5 33.5 -69.5 54.5s-28.5 42.5 -28.5 64.5c0 34.667 18.333 68.334 55 101.001c37.333 32 56 64.333 56 97c0 24.667 -9.83301 45.667 -29.5 63
s-45.834 26 -78.501 26c-34 0 -64.333 -11.667 -91 -35c-26 -23.333 -39 -54.333 -39 -93v-501c0 -16.667 -8.33301 -25 -25 -25h-19c-16 -0 -24 8.33301 -24 25z" />
    <glyph glyph-name="agrave" unicode="&#xe0;" horiz-adv-x="508" 
d="M34 135c0 115.333 102.333 172.999 307 172.999h29v16c0 86.667 -41.333 130 -124 130c-42 0 -82.667 -11.667 -122 -35c-14 -7.33301 -25.333 -4.66602 -34 8.00098l-6 10c-8.66699 14.667 -6.33398 26 6.99902 34c47.333 29.333 100.666 44 159.999 44
c60 0 106.167 -16.5 138.5 -49.5s48.5 -80.833 48.5 -143.5v-297c0 -16.667 -8 -25 -24 -25h-16c-16.667 -0 -25 8.33301 -25 25v40l3 38h-2c0.666992 0 -1 -4 -5 -12s-10.333 -17.5 -19 -28.5s-19.167 -22.167 -31.5 -33.5s-28.666 -21 -48.999 -29
s-42.166 -12 -65.499 -12c-46 0 -86 13 -120 39c-33.333 26 -50 62 -50 108zM104 140.999c0 -26.667 10.166 -49.333 30.499 -68s47.5 -28 81.5 -28c46 0 83 19.333 111 58c28.667 38.667 43 82 43 130v24h-28c-22 0 -37.333 -0.333008 -46 -1
c-47.333 -2 -81.666 -7 -102.999 -15c-28 -10 -49.833 -22.5 -65.5 -37.5s-23.5 -35.833 -23.5 -62.5zM254.999 585l-14.001 -0.000976562c-12 0 -22 5.33301 -30 16l-53 73c-6 8.66699 -7.83301 15.834 -5.5 21.501s8.83301 8.5 19.5 8.5h23c12 0 21.667 -5.66699 29 -17
l44 -74c4.66699 -7.33301 5.83398 -13.833 3.50098 -19.5s-7.83301 -8.5 -16.5 -8.5z" />
    <glyph glyph-name="aacute" unicode="&#xe1;" horiz-adv-x="508" 
d="M34 135c0 115.333 102.333 172.999 307 172.999h29v16c0 86.667 -41.333 130 -124 130c-42 0 -82.667 -11.667 -122 -35c-14 -7.33301 -25.333 -4.66602 -34 8.00098l-6 10c-8.66699 14.667 -6.33398 26 6.99902 34c47.333 29.333 100.666 44 159.999 44
c60 0 106.167 -16.5 138.5 -49.5s48.5 -80.833 48.5 -143.5v-297c0 -16.667 -8 -25 -24 -25h-16c-16.667 -0 -25 8.33301 -25 25v40l3 38h-2c0.666992 0 -1 -4 -5 -12s-10.333 -17.5 -19 -28.5s-19.167 -22.167 -31.5 -33.5s-28.666 -21 -48.999 -29
s-42.166 -12 -65.499 -12c-46 0 -86 13 -120 39c-33.333 26 -50 62 -50 108zM104 140.999c0 -26.667 10.166 -49.333 30.499 -68s47.5 -28 81.5 -28c46 0 83 19.333 111 58c28.667 38.667 43 82 43 130v24h-28c-22 0 -37.333 -0.333008 -46 -1
c-47.333 -2 -81.666 -7 -102.999 -15c-28 -10 -49.833 -22.5 -65.5 -37.5s-23.5 -35.833 -23.5 -62.5zM260.999 585l-11.001 0.000976562c-9.33301 0 -15.666 2.83301 -18.999 8.5s-2.33301 12.167 3 19.5l44 74c7.33301 11.333 17 17 29 17h23
c10.667 0 17.167 -2.83301 19.5 -8.5s0.5 -12.834 -5.5 -21.501l-53 -73c-8 -10.667 -18 -16 -30 -16z" />
    <glyph glyph-name="acircumflex" unicode="&#xe2;" horiz-adv-x="508" 
d="M34 135c0 115.333 102.333 172.999 307 172.999h29v16c0 86.667 -41.333 130 -124 130c-42 0 -82.667 -11.667 -122 -35c-14 -7.33301 -25.333 -4.66602 -34 8.00098l-6 10c-8.66699 14.667 -6.33398 26 6.99902 34c47.333 29.333 100.666 44 159.999 44
c60 0 106.167 -16.5 138.5 -49.5s48.5 -80.833 48.5 -143.5v-297c0 -16.667 -8 -25 -24 -25h-16c-16.667 -0 -25 8.33301 -25 25v40l3 38h-2c0.666992 0 -1 -4 -5 -12s-10.333 -17.5 -19 -28.5s-19.167 -22.167 -31.5 -33.5s-28.666 -21 -48.999 -29
s-42.166 -12 -65.499 -12c-46 0 -86 13 -120 39c-33.333 26 -50 62 -50 108zM104 140.999c0 -26.667 10.166 -49.333 30.499 -68s47.5 -28 81.5 -28c46 0 83 19.333 111 58c28.667 38.667 43 82 43 130v24h-28c-22 0 -37.333 -0.333008 -46 -1
c-47.333 -2 -81.666 -7 -102.999 -15c-28 -10 -49.833 -22.5 -65.5 -37.5s-23.5 -35.833 -23.5 -62.5zM178.999 585h-15.002c-9.33301 0 -15.166 2.83301 -17.499 8.5s-0.833008 12.834 4.5 21.501l52 73c8 10.667 18 16 30 16h37c12 0 22.333 -5.33301 31 -16l51 -73
c6 -8.66699 8 -15.834 6 -21.501s-7.66699 -8.5 -17 -8.5h-17c-10.667 0 -19.667 5.66699 -27 17l-44 64h-2l-44 -64c-7.33301 -11.333 -16.666 -17 -27.999 -17z" />
    <glyph glyph-name="atilde" unicode="&#xe3;" horiz-adv-x="508" 
d="M34 135c0 115.333 102.333 172.999 307 172.999h29v16c0 86.667 -41.333 130 -124 130c-42 0 -82.667 -11.667 -122 -35c-14 -7.33301 -25.333 -4.66602 -34 8.00098l-6 10c-8.66699 14.667 -6.33398 26 6.99902 34c47.333 29.333 100.666 44 159.999 44
c60 0 106.167 -16.5 138.5 -49.5s48.5 -80.833 48.5 -143.5v-297c0 -16.667 -8 -25 -24 -25h-16c-16.667 -0 -25 8.33301 -25 25v40l3 38h-2c0.666992 0 -1 -4 -5 -12s-10.333 -17.5 -19 -28.5s-19.167 -22.167 -31.5 -33.5s-28.666 -21 -48.999 -29
s-42.166 -12 -65.499 -12c-46 0 -86 13 -120 39c-33.333 26 -50 62 -50 108zM104 140.999c0 -26.667 10.166 -49.333 30.499 -68s47.5 -28 81.5 -28c46 0 83 19.333 111 58c28.667 38.667 43 82 43 130v24h-28c-22 0 -37.333 -0.333008 -46 -1
c-47.333 -2 -81.666 -7 -102.999 -15c-28 -10 -49.833 -22.5 -65.5 -37.5s-23.5 -35.833 -23.5 -62.5zM126.999 588l-7 0.000976562c-14.667 0 -22 8.66699 -22 26c0 26.667 8.16699 48.5 24.5 65.5s37.5 25.5 63.5 25.5c19.333 0 36.5 -6 51.5 -18s28.667 -24 41 -36
s24.5 -18 36.5 -18c11.333 0 20.5 4.66699 27.5 14s10.833 21.333 11.5 36c0 12.667 7.66699 19 23 19h8c14 0 21 -7.66699 21 -23c0 -28.667 -7.83301 -51.5 -23.5 -68.5s-37.167 -25.5 -64.5 -25.5c-19.333 0 -36.5 5.83301 -51.5 17.5s-28.667 23.5 -41 35.5
s-24.5 18 -36.5 18s-21.5 -4.83301 -28.5 -14.5s-10.5 -21.834 -10.5 -36.501c-1.33301 -11.333 -9 -17 -23 -17z" />
    <glyph glyph-name="adieresis" unicode="&#xe4;" horiz-adv-x="508" 
d="M34 135c0 115.333 102.333 172.999 307 172.999h29v16c0 86.667 -41.333 130 -124 130c-42 0 -82.667 -11.667 -122 -35c-14 -7.33301 -25.333 -4.66602 -34 8.00098l-6 10c-8.66699 14.667 -6.33398 26 6.99902 34c47.333 29.333 100.666 44 159.999 44
c60 0 106.167 -16.5 138.5 -49.5s48.5 -80.833 48.5 -143.5v-297c0 -16.667 -8 -25 -24 -25h-16c-16.667 -0 -25 8.33301 -25 25v40l3 38h-2c0.666992 0 -1 -4 -5 -12s-10.333 -17.5 -19 -28.5s-19.167 -22.167 -31.5 -33.5s-28.666 -21 -48.999 -29
s-42.166 -12 -65.499 -12c-46 0 -86 13 -120 39c-33.333 26 -50 62 -50 108zM104 140.999c0 -26.667 10.166 -49.333 30.499 -68s47.5 -28 81.5 -28c46 0 83 19.333 111 58c28.667 38.667 43 82 43 130v24h-28c-22 0 -37.333 -0.333008 -46 -1
c-47.333 -2 -81.666 -7 -102.999 -15c-28 -10 -49.833 -22.5 -65.5 -37.5s-23.5 -35.833 -23.5 -62.5zM333.999 618h-13c-16 0 -24 8 -24 24v37c0 16.667 8 25 24 25h13c16.667 0 25 -8.33301 25 -25v-37c0 -16 -8.33301 -24 -25 -24zM182.999 618h-13c-16 0 -24 8 -24 24
v37c0 16.667 8 25 24 25h13c16 0 24 -8.33301 24 -25v-37c0 -16 -8 -24 -24 -24z" />
    <glyph glyph-name="aring" unicode="&#xe5;" horiz-adv-x="508" 
d="M34 135c0 115.333 102.333 172.999 307 172.999h29v16c0 86.667 -41.333 130 -124 130c-42 0 -82.667 -11.667 -122 -35c-14 -7.33301 -25.333 -4.66602 -34 8.00098l-6 10c-8.66699 14.667 -6.33398 26 6.99902 34c47.333 29.333 100.666 44 159.999 44
c60 0 106.167 -16.5 138.5 -49.5s48.5 -80.833 48.5 -143.5v-297c0 -16.667 -8 -25 -24 -25h-16c-16.667 -0 -25 8.33301 -25 25v40l3 38h-2c0.666992 0 -1 -4 -5 -12s-10.333 -17.5 -19 -28.5s-19.167 -22.167 -31.5 -33.5s-28.666 -21 -48.999 -29
s-42.166 -12 -65.499 -12c-46 0 -86 13 -120 39c-33.333 26 -50 62 -50 108zM104 140.999c0 -26.667 10.166 -49.333 30.499 -68s47.5 -28 81.5 -28c46 0 83 19.333 111 58c28.667 38.667 43 82 43 130v24h-28c-22 0 -37.333 -0.333008 -46 -1
c-47.333 -2 -81.666 -7 -102.999 -15c-28 -10 -49.833 -22.5 -65.5 -37.5s-23.5 -35.833 -23.5 -62.5zM304.999 594c-14.667 -13.333 -32.334 -20 -53.001 -20s-38.334 6.66699 -53.001 20s-22 30.333 -22 51s7.33301 37.667 22 51s32.334 20 53.001 20
s38.334 -6.66699 53.001 -20c15.333 -13.333 23 -30.333 23 -51s-7.66699 -37.667 -23 -51zM251.999 612c10 0 18 3.16699 24 9.5s9 14.166 9 23.499c0 10 -3 18.167 -9 24.5s-14 9.5 -24 9.5c-9.33301 0 -17 -3.16699 -23 -9.5s-9 -14.5 -9 -24.5
c0 -9.33301 3 -17.166 9 -23.499s13.667 -9.5 23 -9.5z" />
    <glyph glyph-name="ae" unicode="&#xe6;" horiz-adv-x="859" 
d="M36 137c0 64 28 108.664 84 133.997c30.667 14.667 67 24.334 109 29.001c30 3.33301 66.333 5 109 5h32v19c0 86.667 -42.667 130 -128 130c-41.333 0 -80.666 -11.667 -117.999 -35c-14 -7.33301 -25.333 -4.66602 -34 8.00098l-6 10
c-8.66699 14.667 -6.33398 26 6.99902 34c47.333 29.333 99.333 44 156 44c90 0 146.667 -34.667 170 -104h2c40 69.333 103 104 189 104c64.667 0 115.667 -21.667 153 -65s56 -100.333 56 -171c0 -7.33301 -2.5 -13.333 -7.5 -18s-11.167 -7 -18.5 -7h-354
c0.666992 -63.333 18.167 -113.333 52.5 -150s79.166 -55 134.499 -55c49.333 0 93.333 15.333 132 46c15.333 9.33301 26.666 7 33.999 -7l6 -10c8 -14 6 -25.333 -6 -34c-51.333 -37.333 -107.666 -56 -168.999 -56c-51.333 0 -96.166 12.167 -134.499 36.5
s-67.166 58.833 -86.499 103.5h-2c-6 -22 -21.667 -48.333 -47 -79c-32.667 -40.667 -80.334 -61 -143.001 -61c-49.333 0 -90.333 13 -123 39c-32.667 26.667 -49 63.334 -49 110.001zM441 304.997h306c-2 48 -16 85.333 -42 112s-59 40 -99 40
c-44 0 -80.5 -13.333 -109.5 -40s-47.5 -64 -55.5 -112zM105 140.997c0 -27.333 10.167 -50.167 30.5 -68.5s47.833 -27.5 82.5 -27.5c46 0 83 19.333 111 58c28 39.333 42 83 42 131v20h-59c-138 0 -207 -37.667 -207 -113z" />
    <glyph glyph-name="ccedilla" unicode="&#xe7;" horiz-adv-x="534" 
d="M258 -64l12.998 55.001c-65.333 6.66699 -120 34 -164 82c-42 48 -63 107.333 -63 178c0 76.667 25 139.667 75 189c51.333 50 114.333 75 189 75c64 0 119.667 -19 167 -57c12 -9.33301 13 -20.666 3 -33.999l-7 -11c-7.33301 -12.667 -18.666 -14.334 -33.999 -5.00098
c-39.333 30.667 -81.666 46 -126.999 46c-56 0 -102.667 -19 -140 -57c-37.333 -38.667 -56 -87.334 -56 -146.001c0 -58 18.667 -106.333 56 -145c38 -38 85 -57 141 -57c51.333 0 98.666 17.667 141.999 53c12.667 10 23.667 8 33 -6l7 -10
c6.66699 -12 4.66699 -23.333 -6 -34c-52 -42 -109.333 -63.333 -172 -64l-8 -43c21.333 -3.33301 38.333 -11.333 51 -24s19 -28.334 19 -47.001c0 -26.667 -8.66699 -46.5 -26 -59.5s-40.666 -19.5 -69.999 -19.5c-32 0 -48 8 -48 24c0 16.667 5.33301 25 16 25
c0.666992 0 4.33398 -0.5 11.001 -1.5s11.667 -1.5 15 -1.5c32.667 0 49 11.333 49 34c0 20.667 -16.333 32.334 -49 35.001c-14.667 1.33301 -20.334 10 -17.001 26z" />
    <glyph glyph-name="egrave" unicode="&#xe8;" horiz-adv-x="544" 
d="M44 251c0 79.333 23.6689 143.332 71.002 191.999c48 48 107 72 177 72c65.333 0 116.666 -21.667 153.999 -65s56 -101.666 56 -174.999c0 -7.33301 -2.5 -13.333 -7.5 -18s-11.167 -7 -18.5 -7h-362c0.666992 -61.333 20 -110.333 58 -147c37.333 -36 83 -54 137 -54
c49.333 0 93.333 15.333 132 46c14 8.66699 25 6.66699 33 -6l8 -12c7.33301 -13.333 5 -24.333 -7 -33c-51.333 -37.333 -107.333 -56 -168 -56c-74.667 0 -137.334 24.667 -188.001 74c-50 49.333 -75 112.333 -75 189zM117.002 300.999h316
c-2 49.333 -16.167 88 -42.5 116s-59.833 42 -100.5 42c-44 0 -81.833 -14.167 -113.5 -42.5s-51.5 -66.833 -59.5 -115.5zM297.002 584.999l-14.001 -0.000976562c-12 0 -22 5.33301 -30 16l-53 73c-6 8.66699 -7.83301 15.834 -5.5 21.501s8.83301 8.5 19.5 8.5h23
c12 0 21.667 -5.66699 29 -17l44 -74c4.66699 -7.33301 5.83398 -13.833 3.50098 -19.5s-7.83301 -8.5 -16.5 -8.5z" />
    <glyph glyph-name="eacute" unicode="&#xe9;" horiz-adv-x="544" 
d="M44 251c0 79.333 23.6689 143.332 71.002 191.999c48 48 107 72 177 72c65.333 0 116.666 -21.667 153.999 -65s56 -101.666 56 -174.999c0 -7.33301 -2.5 -13.333 -7.5 -18s-11.167 -7 -18.5 -7h-362c0.666992 -61.333 20 -110.333 58 -147c37.333 -36 83 -54 137 -54
c49.333 0 93.333 15.333 132 46c14 8.66699 25 6.66699 33 -6l8 -12c7.33301 -13.333 5 -24.333 -7 -33c-51.333 -37.333 -107.333 -56 -168 -56c-74.667 0 -137.334 24.667 -188.001 74c-50 49.333 -75 112.333 -75 189zM117.002 300.999h316
c-2 49.333 -16.167 88 -42.5 116s-59.833 42 -100.5 42c-44 0 -81.833 -14.167 -113.5 -42.5s-51.5 -66.833 -59.5 -115.5zM302.002 584.999l-11.001 0.000976562c-9.33301 0 -15.666 2.83301 -18.999 8.5s-2.33301 12.167 3 19.5l44 74c7.33301 11.333 17 17 29 17h23
c10.667 0 17.167 -2.83301 19.5 -8.5s0.5 -12.834 -5.5 -21.501l-53 -73c-8 -10.667 -18 -16 -30 -16z" />
    <glyph glyph-name="ecircumflex" unicode="&#xea;" horiz-adv-x="544" 
d="M44 251c0 79.333 23.6689 143.332 71.002 191.999c48 48 107 72 177 72c65.333 0 116.666 -21.667 153.999 -65s56 -101.666 56 -174.999c0 -7.33301 -2.5 -13.333 -7.5 -18s-11.167 -7 -18.5 -7h-362c0.666992 -61.333 20 -110.333 58 -147c37.333 -36 83 -54 137 -54
c49.333 0 93.333 15.333 132 46c14 8.66699 25 6.66699 33 -6l8 -12c7.33301 -13.333 5 -24.333 -7 -33c-51.333 -37.333 -107.333 -56 -168 -56c-74.667 0 -137.334 24.667 -188.001 74c-50 49.333 -75 112.333 -75 189zM117.002 300.999h316
c-2 49.333 -16.167 88 -42.5 116s-59.833 42 -100.5 42c-44 0 -81.833 -14.167 -113.5 -42.5s-51.5 -66.833 -59.5 -115.5zM219.002 584.999h-15.002c-9.33301 0 -15.166 2.83301 -17.499 8.5s-0.833008 12.834 4.5 21.501l52 73c8 10.667 18 16 30 16h37
c12 0 22.333 -5.33301 31 -16l51 -73c6 -8.66699 8 -15.834 6 -21.501s-7.66699 -8.5 -17 -8.5h-17c-10.667 0 -19.667 5.66699 -27 17l-44 64h-2l-44 -64c-7.33301 -11.333 -16.666 -17 -27.999 -17z" />
    <glyph glyph-name="edieresis" unicode="&#xeb;" horiz-adv-x="544" 
d="M44 251c0 79.333 23.6689 143.332 71.002 191.999c48 48 107 72 177 72c65.333 0 116.666 -21.667 153.999 -65s56 -101.666 56 -174.999c0 -7.33301 -2.5 -13.333 -7.5 -18s-11.167 -7 -18.5 -7h-362c0.666992 -61.333 20 -110.333 58 -147c37.333 -36 83 -54 137 -54
c49.333 0 93.333 15.333 132 46c14 8.66699 25 6.66699 33 -6l8 -12c7.33301 -13.333 5 -24.333 -7 -33c-51.333 -37.333 -107.333 -56 -168 -56c-74.667 0 -137.334 24.667 -188.001 74c-50 49.333 -75 112.333 -75 189zM117.002 300.999h316
c-2 49.333 -16.167 88 -42.5 116s-59.833 42 -100.5 42c-44 0 -81.833 -14.167 -113.5 -42.5s-51.5 -66.833 -59.5 -115.5zM374.002 617.999h-13c-16 0 -24 8 -24 24v37c0 16.667 8 25 24 25h13c16.667 0 25 -8.33301 25 -25v-37c0 -16 -8.33301 -24 -25 -24z
M223.002 617.999h-13c-16 0 -24 8 -24 24v37c0 16.667 8 25 24 25h13c16 0 24 -8.33301 24 -25v-37c0 -16 -8 -24 -24 -24z" />
    <glyph glyph-name="igrave" unicode="&#xec;" horiz-adv-x="223" 
d="M118 585l-14.001 -0.000976562c-12 0 -22 5.33301 -30 16l-53 73c-6 8.66699 -7.83301 15.834 -5.5 21.501s8.83301 8.5 19.5 8.5h23c12 0 21.667 -5.66699 29 -17l44 -74c4.66699 -7.33301 5.83398 -13.833 3.50098 -19.5s-7.83301 -8.5 -16.5 -8.5zM79.999 24.999v453
c0 16.667 8.33301 25 25 25h19c16 0 24 -8.33301 24 -25v-453c0 -16.667 -8 -25 -24 -25h-19c-16.667 0 -25 8.33301 -25 25z" />
    <glyph glyph-name="iacute" unicode="&#xed;" horiz-adv-x="223" 
d="M123 585l-11.001 0.000976562c-9.33301 0 -15.666 2.83301 -18.999 8.5s-2.33301 12.167 3 19.5l44 74c7.33301 11.333 17 17 29 17h23c10.667 0 17.167 -2.83301 19.5 -8.5s0.5 -12.834 -5.5 -21.501l-53 -73c-8 -10.667 -18 -16 -30 -16zM76.999 25.001v453
c0 16.667 8.33301 25 25 25h19c16 0 24 -8.33301 24 -25v-453c0 -16.667 -8 -25 -24 -25h-19c-16.667 0 -25 8.33301 -25 25z" />
    <glyph glyph-name="icircumflex" unicode="&#xee;" horiz-adv-x="223" 
d="M43 585h-15.002c-9.33301 0 -15.166 2.83301 -17.499 8.5s-0.833008 12.834 4.5 21.501l52 73c8 10.667 18 16 30 16h37c12 0 22.333 -5.33301 31 -16l51 -73c6 -8.66699 8 -15.834 6 -21.501s-7.66699 -8.5 -17 -8.5h-17c-10.667 0 -19.667 5.66699 -27 17l-44 64h-2
l-44 -64c-7.33301 -11.333 -16.666 -17 -27.999 -17zM79.998 25v453c0 16.667 8.33301 25 25 25h19c16 0 24 -8.33301 24 -25v-453c0 -16.667 -8 -25 -24 -25h-19c-16.667 -0 -25 8.33301 -25 25z" />
    <glyph glyph-name="idieresis" unicode="&#xef;" horiz-adv-x="223" 
d="M195 618h-13c-16 0 -24 8 -24 24v37c0 16.667 8 25 24 25h13c16.667 0 25 -8.33301 25 -25v-37c0 -16 -8.33301 -24 -25 -24zM44 618h-13c-16 0 -24 8 -24 24v37c0 16.667 8 25 24 25h13c16 0 24 -8.33301 24 -25v-37c0 -16 -8 -24 -24 -24zM77 25v453
c0 16.667 8.33301 25 25 25h19c16 0 24 -8.33301 24 -25v-453c0 -16.667 -8 -25 -24 -25h-19c-16.667 -0 -25 8.33301 -25 25z" />
    <glyph glyph-name="eth" unicode="&#xf0;" horiz-adv-x="578" 
d="M45 232c0 64 21 119.002 63 165.002c42.667 46.667 101.334 70 176.001 70c27.333 0 53.166 -4.33301 77.499 -13s41.833 -18.334 52.5 -29.001l15 -14h2c-23.333 67.333 -65 121 -125 161l-152 -69c-13.333 -7.33301 -23 -4.33301 -29 9l-4 8
c-5.33301 12.667 -1 22.334 13 29.001l117 54c-31.333 16.667 -70.333 31.667 -117 45c-16 5.33301 -21.333 15.666 -16 30.999l3 10c5.33301 15.333 15.666 21 30.999 17c66.667 -18.667 124.667 -42.334 174 -71.001l106 48c14.667 6.66699 24.334 3.66699 29.001 -9l4 -9
c5.33301 -13.333 1 -22.333 -13 -27l-79 -37c100 -79.333 150 -188.666 150 -327.999c0 -34.667 -4.83301 -68.334 -14.5 -101.001s-24 -63 -43 -91s-44.833 -50.5 -77.5 -67.5s-70 -25.5 -112 -25.5c-70.667 0 -127 24.333 -169 73c-41.333 49.333 -62 106.333 -62 171z
M115 231.002c0 -48.667 14.666 -91.332 43.999 -127.999c28.667 -36 68.334 -54 119.001 -54c56.667 0 100 21.333 130 64c30 43.333 45 92.333 45 147c0 43.333 -15 79 -45 107s-69.333 42 -118 42c-56.667 0 -100 -17.667 -130 -53c-30 -34.667 -45 -76.334 -45 -125.001z
" />
    <glyph glyph-name="ntilde" unicode="&#xf1;" horiz-adv-x="584" 
d="M77 25l-0.000976562 453.002c0 16.667 8.33301 25 25 25h18c16 0 24 -8.33301 24 -25v-58l-4 -36h2c13.333 31.333 37 60.666 71 87.999c34.667 28.667 78.667 43 132 43c59.333 0 102.333 -16 129 -48s40 -81 40 -147v-295c0 -16.667 -8.33301 -25 -25 -25h-19
c-16 0 -24 8.33301 -24 25v277c0 50.667 -7.83301 88.167 -23.5 112.5s-44.5 36.5 -86.5 36.5c-53.333 0 -98.666 -19.667 -135.999 -59c-36.667 -38.667 -55 -87.334 -55 -146.001v-221c0 -16.667 -8 -25 -24 -25h-19c-16.667 -0 -25 8.33301 -25 25zM179.999 588.002
l-7 0.000976562c-14.667 0 -22 8.66699 -22 26c0 26.667 8.16699 48.5 24.5 65.5s37.5 25.5 63.5 25.5c19.333 0 36.5 -6 51.5 -18s28.667 -24 41 -36s24.5 -18 36.5 -18c11.333 0 20.5 4.66699 27.5 14s10.833 21.333 11.5 36c0 12.667 7.66699 19 23 19h8
c14 0 21 -7.66699 21 -23c0 -28.667 -7.83301 -51.5 -23.5 -68.5s-37.167 -25.5 -64.5 -25.5c-19.333 0 -36.5 5.83301 -51.5 17.5s-28.667 23.5 -41 35.5s-24.5 18 -36.5 18s-21.5 -4.83301 -28.5 -14.5s-10.5 -21.834 -10.5 -36.501c-1.33301 -11.333 -9 -17 -23 -17z" />
    <glyph glyph-name="ograve" unicode="&#xf2;" horiz-adv-x="615" 
d="M42 254c0 74 25.667 136.001 77 186.001c52 50 114.667 75 188 75c74 0 136.667 -25 188 -75c52 -50 78 -112 78 -186c0 -76 -26 -139.333 -78 -190c-50.667 -50.667 -113 -76 -187 -76c-74.667 0 -137.667 25.333 -189 76c-51.333 51.333 -77 114.666 -77 189.999z
M112 254.001c0 -58.667 19 -107.334 57 -146.001c38 -39.333 84.333 -59 139 -59c54 0 100 19.667 138 59c38 38.667 57 87.334 57 146.001c0 56.667 -19 104 -57 142c-38 38.667 -84 58 -138 58c-54.667 0 -101 -19.333 -139 -58c-38 -38 -57 -85.333 -57 -142z
M310 585.001l-14.001 -0.000976562c-12 0 -22 5.33301 -30 16l-53 73c-6 8.66699 -7.83301 15.834 -5.5 21.501s8.83301 8.5 19.5 8.5h23c12 0 21.667 -5.66699 29 -17l44 -74c4.66699 -7.33301 5.83398 -13.833 3.50098 -19.5s-7.83301 -8.5 -16.5 -8.5z" />
    <glyph glyph-name="oacute" unicode="&#xf3;" horiz-adv-x="615" 
d="M42 254c0 74 25.667 136.001 77 186.001c52 50 114.667 75 188 75c74 0 136.667 -25 188 -75c52 -50 78 -112 78 -186c0 -76 -26 -139.333 -78 -190c-50.667 -50.667 -113 -76 -187 -76c-74.667 0 -137.667 25.333 -189 76c-51.333 51.333 -77 114.666 -77 189.999z
M112 254.001c0 -58.667 19 -107.334 57 -146.001c38 -39.333 84.333 -59 139 -59c54 0 100 19.667 138 59c38 38.667 57 87.334 57 146.001c0 56.667 -19 104 -57 142c-38 38.667 -84 58 -138 58c-54.667 0 -101 -19.333 -139 -58c-38 -38 -57 -85.333 -57 -142z
M318 585.001l-11.001 0.000976562c-9.33301 0 -15.666 2.83301 -18.999 8.5s-2.33301 12.167 3 19.5l44 74c7.33301 11.333 17 17 29 17h23c10.667 0 17.167 -2.83301 19.5 -8.5s0.5 -12.834 -5.5 -21.501l-53 -73c-8 -10.667 -18 -16 -30 -16z" />
    <glyph glyph-name="ocircumflex" unicode="&#xf4;" horiz-adv-x="615" 
d="M234 585h-15.002c-9.33301 0 -15.166 2.83301 -17.499 8.5s-0.833008 12.834 4.5 21.501l52 73c8 10.667 18 16 30 16h37c12 0 22.333 -5.33301 31 -16l51 -73c6 -8.66699 8 -15.834 6 -21.501s-7.66699 -8.5 -17 -8.5h-17c-10.667 0 -19.667 5.66699 -27 17l-44 64h-2
l-44 -64c-7.33301 -11.333 -16.666 -17 -27.999 -17zM41.998 254c0 74 25.667 136.001 77 186.001c52 50 114.667 75 188 75c74 0 136.667 -25 188 -75c52 -50 78 -112 78 -186c0 -76 -26 -139.333 -78 -190c-50.667 -50.667 -113 -76 -187 -76
c-74.667 0 -137.667 25.333 -189 76c-51.333 51.333 -77 114.666 -77 189.999zM111.998 254.001c0 -58.667 19 -107.334 57 -146.001c38 -39.333 84.333 -59 139 -59c54 0 100 19.667 138 59c38 38.667 57 87.334 57 146.001c0 56.667 -19 104 -57 142
c-38 38.667 -84 58 -138 58c-54.667 0 -101 -19.333 -139 -58c-38 -38 -57 -85.333 -57 -142z" />
    <glyph glyph-name="otilde" unicode="&#xf5;" horiz-adv-x="615" 
d="M42 254c0 74 25.667 136.001 77 186.001c52 50 114.667 75 188 75c74 0 136.667 -25 188 -75c52 -50 78 -112 78 -186c0 -76 -26 -139.333 -78 -190c-50.667 -50.667 -113 -76 -187 -76c-74.667 0 -137.667 25.333 -189 76c-51.333 51.333 -77 114.666 -77 189.999z
M112 254.001c0 -58.667 19 -107.334 57 -146.001c38 -39.333 84.333 -59 139 -59c54 0 100 19.667 138 59c38 38.667 57 87.334 57 146.001c0 56.667 -19 104 -57 142c-38 38.667 -84 58 -138 58c-54.667 0 -101 -19.333 -139 -58c-38 -38 -57 -85.333 -57 -142z
M182 588.001l-7 0.000976562c-14.667 0 -22 8.66699 -22 26c0 26.667 8.16699 48.5 24.5 65.5s37.5 25.5 63.5 25.5c19.333 0 36.5 -6 51.5 -18s28.667 -24 41 -36s24.5 -18 36.5 -18c11.333 0 20.5 4.66699 27.5 14s10.833 21.333 11.5 36c0 12.667 7.66699 19 23 19h8
c14 0 21 -7.66699 21 -23c0 -28.667 -7.83301 -51.5 -23.5 -68.5s-37.167 -25.5 -64.5 -25.5c-19.333 0 -36.5 5.83301 -51.5 17.5s-28.667 23.5 -41 35.5s-24.5 18 -36.5 18s-21.5 -4.83301 -28.5 -14.5s-10.5 -21.834 -10.5 -36.501c-1.33301 -11.333 -9 -17 -23 -17z" />
    <glyph glyph-name="odieresis" unicode="&#xf6;" horiz-adv-x="615" 
d="M42 254c0 74 25.667 136.001 77 186.001c52 50 114.667 75 188 75c74 0 136.667 -25 188 -75c52 -50 78 -112 78 -186c0 -76 -26 -139.333 -78 -190c-50.667 -50.667 -113 -76 -187 -76c-74.667 0 -137.667 25.333 -189 76c-51.333 51.333 -77 114.666 -77 189.999z
M112 254.001c0 -58.667 19 -107.334 57 -146.001c38 -39.333 84.333 -59 139 -59c54 0 100 19.667 138 59c38 38.667 57 87.334 57 146.001c0 56.667 -19 104 -57 142c-38 38.667 -84 58 -138 58c-54.667 0 -101 -19.333 -139 -58c-38 -38 -57 -85.333 -57 -142z
M389 618.001h-13c-16 0 -24 8 -24 24v37c0 16.667 8 25 24 25h13c16.667 0 25 -8.33301 25 -25v-37c0 -16 -8.33301 -24 -25 -24zM238 618.001h-13c-16 0 -24 8 -24 24v37c0 16.667 8 25 24 25h13c16 0 24 -8.33301 24 -25v-37c0 -16 -8 -24 -24 -24z" />
    <glyph glyph-name="divide" unicode="&#xf7;" horiz-adv-x="606" 
d="M315 433h-25c-16.667 0 -25 8 -25 24v25c0 16.667 8.33301 25 25 25h25c16.667 0 25 -8.33301 25 -25v-25c0 -16 -8.33301 -24 -25 -24zM523 255h-440c-16.667 0 -25 8 -25 24v9c0 16.667 8.33301 25 25 25h440c16.667 0 25 -8.33301 25 -25v-9
c0 -16 -8.33301 -24 -25 -24zM265 85v25c0 16.667 8.33301 25 25 25h25c16.667 0 25 -8.33301 25 -25v-25c0 -16 -8.33301 -24 -25 -24h-25c-16.667 0 -25 8 -25 24z" />
    <glyph glyph-name="oslash" unicode="&#xf8;" horiz-adv-x="616" 
d="M113 14l25.001 34.999c-63.333 51.333 -95 119.666 -95 204.999c0 74 25.667 136 77 186c52 50 114.667 75 188 75c49.333 0 95 -12 137 -36l24 34c9.33301 13.333 21.333 15 36 5c14 -9.33301 16.333 -19.666 7 -30.999l-26 -38c58.667 -50.667 88 -115.667 88 -195
c0 -76 -26 -139.333 -78 -190c-50.667 -50.667 -113 -76 -187 -76c-48 0 -91 11 -129 33l-24 -34c-9.33301 -13.333 -21 -15 -35 -5c-12.667 10.667 -15.334 21.334 -8.00098 32.001zM176.001 101.999l232 324c-31.333 18.667 -64.333 28 -99 28
c-54.667 0 -101 -19.333 -139 -58c-38 -38 -57 -85.333 -57 -142c0 -60 21 -110.667 63 -152zM446.001 393.999l-229.001 -321.002c28.667 -16 59.334 -24 92.001 -24c54 0 100 19.667 138 59c38 38.667 57 87.334 57 146.001c0 56.667 -19.333 103.334 -58 140.001z" />
    <glyph glyph-name="ugrave" unicode="&#xf9;" horiz-adv-x="580" 
d="M71 183v294.999c0 16.667 8 25 24 25h19c16.667 0 25 -8.33301 25 -25v-277c0 -51.333 7.66699 -89 23 -113s44 -36 86 -36c55.333 0 100 20.667 134 62c34.667 40.667 52 90 52 148v216c0 16.667 8.33301 25 25 25h19c16 0 24 -8.33301 24 -25v-453
c0 -16.667 -8 -25 -24 -25h-18c-16 0 -24 8.33301 -24 25v58l3 36h-2c-12 -31.333 -35.667 -61 -71 -89c-34.667 -28 -77 -42 -127 -42c-58 0 -100.5 15.833 -127.5 47.5s-40.5 80.834 -40.5 147.501zM290 584.999l-14.001 -0.000976562c-12 0 -22 5.33301 -30 16l-53 73
c-6 8.66699 -7.83301 15.834 -5.5 21.501s8.83301 8.5 19.5 8.5h23c12 0 21.667 -5.66699 29 -17l44 -74c4.66699 -7.33301 5.83398 -13.833 3.50098 -19.5s-7.83301 -8.5 -16.5 -8.5z" />
    <glyph glyph-name="uacute" unicode="&#xfa;" horiz-adv-x="580" 
d="M71 183v294.999c0 16.667 8 25 24 25h19c16.667 0 25 -8.33301 25 -25v-277c0 -51.333 7.66699 -89 23 -113s44 -36 86 -36c55.333 0 100 20.667 134 62c34.667 40.667 52 90 52 148v216c0 16.667 8.33301 25 25 25h19c16 0 24 -8.33301 24 -25v-453
c0 -16.667 -8 -25 -24 -25h-18c-16 0 -24 8.33301 -24 25v58l3 36h-2c-12 -31.333 -35.667 -61 -71 -89c-34.667 -28 -77 -42 -127 -42c-58 0 -100.5 15.833 -127.5 47.5s-40.5 80.834 -40.5 147.501zM296 584.999l-11.001 0.000976562
c-9.33301 0 -15.666 2.83301 -18.999 8.5s-2.33301 12.167 3 19.5l44 74c7.33301 11.333 17 17 29 17h23c10.667 0 17.167 -2.83301 19.5 -8.5s0.5 -12.834 -5.5 -21.501l-53 -73c-8 -10.667 -18 -16 -30 -16z" />
    <glyph glyph-name="ucircumflex" unicode="&#xfb;" horiz-adv-x="580" 
d="M213 585h-15.002c-9.33301 0 -15.166 2.83301 -17.499 8.5s-0.833008 12.834 4.5 21.501l52 73c8 10.667 18 16 30 16h37c12 0 22.333 -5.33301 31 -16l51 -73c6 -8.66699 8 -15.834 6 -21.501s-7.66699 -8.5 -17 -8.5h-17c-10.667 0 -19.667 5.66699 -27 17l-44 64h-2
l-44 -64c-7.33301 -11.333 -16.666 -17 -27.999 -17zM70.998 183v294.999c0 16.667 8 25 24 25h19c16.667 0 25 -8.33301 25 -25v-277c0 -51.333 7.66699 -89 23 -113s44 -36 86 -36c55.333 0 100 20.667 134 62c34.667 40.667 52 90 52 148v216c0 16.667 8.33301 25 25 25
h19c16 0 24 -8.33301 24 -25v-453c0 -16.667 -8 -25 -24 -25h-18c-16 0 -24 8.33301 -24 25v58l3 36h-2c-12 -31.333 -35.667 -61 -71 -89c-34.667 -28 -77 -42 -127 -42c-58 0 -100.5 15.833 -127.5 47.5s-40.5 80.834 -40.5 147.501z" />
    <glyph glyph-name="udieresis" unicode="&#xfc;" horiz-adv-x="580" 
d="M71 183v294.999c0 16.667 8 25 24 25h19c16.667 0 25 -8.33301 25 -25v-277c0 -51.333 7.66699 -89 23 -113s44 -36 86 -36c55.333 0 100 20.667 134 62c34.667 40.667 52 90 52 148v216c0 16.667 8.33301 25 25 25h19c16 0 24 -8.33301 24 -25v-453
c0 -16.667 -8 -25 -24 -25h-18c-16 0 -24 8.33301 -24 25v58l3 36h-2c-12 -31.333 -35.667 -61 -71 -89c-34.667 -28 -77 -42 -127 -42c-58 0 -100.5 15.833 -127.5 47.5s-40.5 80.834 -40.5 147.501zM368 617.999h-13c-16 0 -24 8 -24 24v37c0 16.667 8 25 24 25h13
c16.667 0 25 -8.33301 25 -25v-37c0 -16 -8.33301 -24 -25 -24zM217 617.999h-13c-16 0 -24 8 -24 24v37c0 16.667 8 25 24 25h13c16 0 24 -8.33301 24 -25v-37c0 -16 -8 -24 -24 -24z" />
    <glyph glyph-name="yacute" unicode="&#xfd;" horiz-adv-x="491" 
d="M22 -160l6.00195 10.999c6.66699 12.667 16.667 16.667 30 12c18 -8.66699 32.667 -13 44 -13c38.667 0 70 27.667 94 83l30 71l-198 470c-3.33301 8.66699 -3.33301 15.667 0 21s9.66602 8 18.999 8h23c14 0 23.333 -6.33301 28 -19l141 -348l18 -53h2
c6 21.333 11.667 39 17 53l138 347c5.33301 13.333 14.666 20 27.999 20h22c19.333 0 26 -9.66699 20 -29l-237 -576c-13.333 -34 -32.833 -60.5 -58.5 -79.5s-54.5 -28.5 -86.5 -28.5c-22 0 -45 6 -69 18c-14 6.66699 -17.667 17.334 -11 32.001zM268.002 583.999
l-11.001 0.000976562c-9.33301 0 -15.666 2.83301 -18.999 8.5s-2.33301 12.167 3 19.5l44 74c7.33301 11.333 17 17 29 17h23c10.667 0 17.167 -2.83301 19.5 -8.5s0.5 -12.834 -5.5 -21.501l-53 -73c-8 -10.667 -18 -16 -30 -16z" />
    <glyph glyph-name="thorn" unicode="&#xfe;" horiz-adv-x="582" 
d="M79 -175v853.001c0 16.667 8 25 24 25h19c16.667 0 25 -8.33301 25 -25v-219l-2 -40h2l7 12c38 56 92.333 84 163 84c66.667 0 120 -24.333 160 -73s60 -112 60 -190c0 -78.667 -21 -142.334 -63 -191.001s-96 -73 -162 -73c-42 0 -76.667 9.5 -104 28.5
s-46 38.167 -56 57.5l-5 10h-2c1.33301 -16 2 -30.667 2 -44v-215c0 -16.667 -8.33301 -25 -25 -25h-19c-16 0 -24 8.33301 -24 25zM145 251.001c0 -57.333 14.332 -105.332 42.999 -143.999s67.667 -58 117 -58c46 0 84.333 18.333 115 55
c31.333 37.333 47 86.666 47 147.999c0 60 -14.667 108.667 -44 146s-67.666 56 -114.999 56c-48.667 0 -88 -17.5 -118 -52.5s-45 -85.167 -45 -150.5z" />
    <glyph glyph-name="ydieresis" unicode="&#xff;" horiz-adv-x="491" 
d="M22 -160l6.00195 10.999c6.66699 12.667 16.667 16.667 30 12c18 -8.66699 32.667 -13 44 -13c38.667 0 70 27.667 94 83l30 71l-198 470c-3.33301 8.66699 -3.33301 15.667 0 21s9.66602 8 18.999 8h23c14 0 23.333 -6.33301 28 -19l141 -348l18 -53h2
c6 21.333 11.667 39 17 53l138 347c5.33301 13.333 14.666 20 27.999 20h22c19.333 0 26 -9.66699 20 -29l-237 -576c-13.333 -34 -32.833 -60.5 -58.5 -79.5s-54.5 -28.5 -86.5 -28.5c-22 0 -45 6 -69 18c-14 6.66699 -17.667 17.334 -11 32.001zM341.002 616.999h-13
c-16 0 -24 8 -24 24v37c0 16.667 8 25 24 25h13c16.667 0 25 -8.33301 25 -25v-37c0 -16 -8.33301 -24 -25 -24zM190.002 616.999h-13c-16 0 -24 8 -24 24v37c0 16.667 8 25 24 25h13c16 0 24 -8.33301 24 -25v-37c0 -16 -8 -24 -24 -24z" />
    <glyph glyph-name="Amacron" unicode="&#x100;" horiz-adv-x="609" 
d="M27 29l242.001 654c4 13.333 13 20 27 20h33c14 0 23 -6.66699 27 -20l242 -654c5.33301 -19.333 -1.33398 -29 -20.001 -29h-22c-14.667 0 -24 6.66699 -28 20l-75 204h-282l-74 -204c-4 -13.333 -13.333 -20 -28 -20h-21c-19.333 0 -26.333 9.66699 -21 29z
M285.001 539l-94 -255h242l-93 255l-26 92h-2c-12 -42 -21 -72.667 -27 -92zM411.001 785h-197c-16.667 0 -25 8 -25 24v7c0 16 8.33301 24 25 24h197c16 0 24 -8 24 -24v-7c0 -16 -8 -24 -24 -24z" />
    <glyph glyph-name="amacron" unicode="&#x101;" horiz-adv-x="508" 
d="M34 135c0 115.333 102.333 172.999 307 172.999h29v16c0 86.667 -41.333 130 -124 130c-42 0 -82.667 -11.667 -122 -35c-14 -7.33301 -25.333 -4.66602 -34 8.00098l-6 10c-8.66699 14.667 -6.33398 26 6.99902 34c47.333 29.333 100.666 44 159.999 44
c60 0 106.167 -16.5 138.5 -49.5s48.5 -80.833 48.5 -143.5v-297c0 -16.667 -8 -25 -24 -25h-16c-16.667 -0 -25 8.33301 -25 25v40l3 38h-2c0.666992 0 -1 -4 -5 -12s-10.333 -17.5 -19 -28.5s-19.167 -22.167 -31.5 -33.5s-28.666 -21 -48.999 -29
s-42.166 -12 -65.499 -12c-46 0 -86 13 -120 39c-33.333 26 -50 62 -50 108zM104 140.999c0 -26.667 10.166 -49.333 30.499 -68s47.5 -28 81.5 -28c46 0 83 19.333 111 58c28.667 38.667 43 82 43 130v24h-28c-22 0 -37.333 -0.333008 -46 -1
c-47.333 -2 -81.666 -7 -102.999 -15c-28 -10 -49.833 -22.5 -65.5 -37.5s-23.5 -35.833 -23.5 -62.5zM350.999 618h-197c-16.667 0 -25 8 -25 24v7c0 16 8.33301 24 25 24h197c16 0 24 -8 24 -24v-7c0 -16 -8 -24 -24 -24z" />
    <glyph glyph-name="Abreve" unicode="&#x102;" horiz-adv-x="609" 
d="M27 29l242.001 654c4 13.333 13 20 27 20h33c14 0 23 -6.66699 27 -20l242 -654c5.33301 -19.333 -1.33398 -29 -20.001 -29h-22c-14.667 0 -24 6.66699 -28 20l-75 204h-282l-74 -204c-4 -13.333 -13.333 -20 -28 -20h-21c-19.333 0 -26.333 9.66699 -21 29z
M285.001 539l-94 -255h242l-93 255l-26 92h-2c-12 -42 -21 -72.667 -27 -92zM312.001 749c-30 0 -56.668 9.66699 -80.001 29c-23.333 20 -35 44.667 -35 74c0 12.667 7.66699 19 23 19h10c13.333 0 21 -6 23 -18c4 -38 23.667 -57 59 -57c36 0 56 19 60 57
c2.66699 12 10.334 18 23.001 18h10c15.333 0 23 -6.33301 23 -19c0 -28.667 -11.667 -53 -35 -73s-50.333 -30 -81 -30z" />
    <glyph glyph-name="abreve" unicode="&#x103;" horiz-adv-x="508" 
d="M34 135c0 115.333 102.333 172.999 307 172.999h29v16c0 86.667 -41.333 130 -124 130c-42 0 -82.667 -11.667 -122 -35c-14 -7.33301 -25.333 -4.66602 -34 8.00098l-6 10c-8.66699 14.667 -6.33398 26 6.99902 34c47.333 29.333 100.666 44 159.999 44
c60 0 106.167 -16.5 138.5 -49.5s48.5 -80.833 48.5 -143.5v-297c0 -16.667 -8 -25 -24 -25h-16c-16.667 -0 -25 8.33301 -25 25v40l3 38h-2c0.666992 0 -1 -4 -5 -12s-10.333 -17.5 -19 -28.5s-19.167 -22.167 -31.5 -33.5s-28.666 -21 -48.999 -29
s-42.166 -12 -65.499 -12c-46 0 -86 13 -120 39c-33.333 26 -50 62 -50 108zM104 140.999c0 -26.667 10.166 -49.333 30.499 -68s47.5 -28 81.5 -28c46 0 83 19.333 111 58c28.667 38.667 43 82 43 130v24h-28c-22 0 -37.333 -0.333008 -46 -1
c-47.333 -2 -81.666 -7 -102.999 -15c-28 -10 -49.833 -22.5 -65.5 -37.5s-23.5 -35.833 -23.5 -62.5zM251.999 582c-30 0 -56.668 9.66699 -80.001 29c-23.333 20 -35 44.667 -35 74c0 12.667 7.66699 19 23 19h10c13.333 0 21 -6 23 -18c4 -38 23.667 -57 59 -57
c36 0 56 19 60 57c2.66699 12 10.334 18 23.001 18h10c15.333 0 23 -6.33301 23 -19c0 -28.667 -11.667 -53 -35 -73s-50.333 -30 -81 -30z" />
    <glyph glyph-name="Aogonek" unicode="&#x104;" horiz-adv-x="609" 
d="M27 29l242.001 654c5.33301 13.333 14.333 20 27 20h33c12.667 0 21.667 -6.66699 27 -20l242 -654c5.33301 -18.667 4 -31.334 -4 -38.001c-42.667 -36 -64 -66.333 -64 -91c0 -22 15.333 -38 46 -48c11.333 -4 15.666 -12.333 12.999 -25l-1 -11
c-2 -15.333 -10.667 -21.333 -26 -18c-26.667 4.66699 -49 14.334 -67 29.001s-27 35 -27 61c0 43.333 25.333 83.333 76 120c-10 4 -16.667 11.667 -20 23l-71 193h-282l-74 -204c-4 -13.333 -13.333 -20 -28 -20h-21c-19.333 0 -26.333 9.66699 -21 29zM285.001 539
l-94 -255h242l-93 255l-26 92h-2c-12 -42 -21 -72.667 -27 -92z" />
    <glyph glyph-name="aogonek" unicode="&#x105;" horiz-adv-x="510" 
d="M34 135c0 115.333 102.334 172.997 307.001 172.997h29v16c0 86.667 -41.333 130 -124 130c-42 0 -82.667 -11.667 -122 -35c-14 -7.33301 -25.333 -4.66602 -34 8.00098l-6 10c-8.66699 14.667 -6.33398 26 6.99902 34c47.333 29.333 100.666 44 159.999 44
c60 0 106.167 -16.5 138.5 -49.5s48.5 -80.833 48.5 -143.5v-297c0.666992 -8 -5.5 -18.833 -18.5 -32.5s-26 -28.667 -39 -45s-19.167 -32.166 -18.5 -47.499c0 -22 15.333 -38 46 -48c11.333 -4 15.666 -12.333 12.999 -25l-1 -11c-3.33301 -14 -12 -20 -26 -18
c-26.667 4.66699 -49 14.334 -67 29.001s-27 35 -27 61c0 22.667 7.5 44.5 22.5 65.5s33.5 39.167 55.5 54.5c-3.33301 3.33301 -5 9 -5 17v40l3 38h-2c0.666992 0 -1 -4 -5 -12s-10.333 -17.5 -19 -28.5s-19.167 -22.167 -31.5 -33.5s-28.666 -21 -48.999 -29
s-42.166 -12 -65.499 -12c-46 0 -86 13 -120 39c-33.333 26 -50 62 -50 108zM104.001 140.997c0 -26.667 10.166 -49.333 30.499 -68s47.5 -28 81.5 -28c46 0 83 19.333 111 58c28.667 38.667 43 82 43 130v24h-28c-22 0 -37.333 -0.333008 -46 -1
c-47.333 -2 -81.666 -7 -102.999 -15c-28 -10 -49.833 -22.5 -65.5 -37.5s-23.5 -35.833 -23.5 -62.5z" />
    <glyph glyph-name="Cacute" unicode="&#x106;" horiz-adv-x="710" 
d="M51 356c0 102.667 32.998 188.001 98.998 256.001c66.667 68.667 151.334 103 254.001 103c93.333 0 172 -25 236 -75c11.333 -9.33301 12.666 -21 3.99902 -35l-9 -13c-9.33301 -12 -20.666 -13.333 -33.999 -4c-59.333 41.333 -124.333 62 -195 62
c-84 0 -152.333 -28 -205 -84c-52 -54.667 -78 -124.334 -78 -209.001c0 -85.333 26.333 -157.333 79 -216s121.667 -88 207 -88c76.667 0 146.334 25.333 209.001 76c12.667 10.667 24 9.66699 34 -3l9 -11c10 -12 9.33301 -23.667 -2 -35
c-72.667 -61.333 -156.667 -92 -252 -92c-105.333 0 -191 35 -257 105c-66 71.333 -99 159 -99 263zM407.998 752.001l-11.001 0.000976562c-9.33301 0 -15.666 2.83301 -18.999 8.5s-2.33301 12.167 3 19.5l44 74c7.33301 11.333 17 17 29 17h23
c10.667 0 17.167 -2.83301 19.5 -8.5s0.5 -12.834 -5.5 -21.501l-53 -73c-8 -10.667 -18 -16 -30 -16z" />
    <glyph glyph-name="cacute" unicode="&#x107;" horiz-adv-x="532" 
d="M43 251c0 76.667 25.001 139.668 75.001 189.001c50.667 50 113.667 75 189 75c64 0 119.667 -19 167 -57c12 -9.33301 13 -20.666 3 -33.999l-7 -11c-7.33301 -12.667 -18.666 -14.334 -33.999 -5.00098c-39.333 30.667 -81.666 46 -126.999 46
c-56.667 0 -103.334 -19 -140.001 -57c-37.333 -38.667 -56 -87.334 -56 -146.001c0 -58 18.667 -106.333 56 -145c38 -38 85 -57 141 -57c51.333 0 98.666 17.667 141.999 53c13.333 10 24.333 8 33 -6l7 -10c6.66699 -12 4.66699 -23.333 -6 -34
c-52.667 -42.667 -112.334 -64 -179.001 -64c-76.667 0 -139.667 24.333 -189 73c-50 48.667 -75 112 -75 190zM298.001 585.001l-11.001 0.000976562c-9.33301 0 -15.666 2.83301 -18.999 8.5s-2.33301 12.167 3 19.5l44 74c7.33301 11.333 17 17 29 17h23
c10.667 0 17.167 -2.83301 19.5 -8.5s0.5 -12.834 -5.5 -21.501l-53 -73c-8 -10.667 -18 -16 -30 -16z" />
    <glyph glyph-name="Ccircumflex" unicode="&#x108;" horiz-adv-x="710" 
d="M324 752h-15.002c-9.33301 0 -15.166 2.83301 -17.499 8.5s-0.833008 12.834 4.5 21.501l52 73c8 10.667 18 16 30 16h37c12 0 22.333 -5.33301 31 -16l51 -73c6 -8.66699 8 -15.834 6 -21.501s-7.66699 -8.5 -17 -8.5h-17c-10.667 0 -19.667 5.66699 -27 17l-44 64h-2
l-44 -64c-7.33301 -11.333 -16.666 -17 -27.999 -17zM50.998 356c0 102.667 32.998 188.001 98.998 256.001c66.667 68.667 151.334 103 254.001 103c93.333 0 172 -25 236 -75c11.333 -9.33301 12.666 -21 3.99902 -35l-9 -13c-9.33301 -12 -20.666 -13.333 -33.999 -4
c-59.333 41.333 -124.333 62 -195 62c-84 0 -152.333 -28 -205 -84c-52 -54.667 -78 -124.334 -78 -209.001c0 -85.333 26.333 -157.333 79 -216s121.667 -88 207 -88c76.667 0 146.334 25.333 209.001 76c12.667 10.667 24 9.66699 34 -3l9 -11
c10 -12 9.33301 -23.667 -2 -35c-72.667 -61.333 -156.667 -92 -252 -92c-105.333 0 -191 35 -257 105c-66 71.333 -99 159 -99 263z" />
    <glyph glyph-name="ccircumflex" unicode="&#x109;" horiz-adv-x="532" 
d="M215 585h-15.002c-9.33301 0 -15.166 2.83301 -17.499 8.5s-0.833008 12.834 4.5 21.501l52 73c8 10.667 18 16 30 16h37c12 0 22.333 -5.33301 31 -16l51 -73c6 -8.66699 8 -15.834 6 -21.501s-7.66699 -8.5 -17 -8.5h-17c-10.667 0 -19.667 5.66699 -27 17l-44 64h-2
l-44 -64c-7.33301 -11.333 -16.666 -17 -27.999 -17zM42.998 251c0 76.667 25.001 139.668 75.001 189.001c50.667 50 113.667 75 189 75c64 0 119.667 -19 167 -57c12 -9.33301 13 -20.666 3 -33.999l-7 -11c-7.33301 -12.667 -18.666 -14.334 -33.999 -5.00098
c-39.333 30.667 -81.666 46 -126.999 46c-56.667 0 -103.334 -19 -140.001 -57c-37.333 -38.667 -56 -87.334 -56 -146.001c0 -58 18.667 -106.333 56 -145c38 -38 85 -57 141 -57c51.333 0 98.666 17.667 141.999 53c13.333 10 24.333 8 33 -6l7 -10
c6.66699 -12 4.66699 -23.333 -6 -34c-52.667 -42.667 -112.334 -64 -179.001 -64c-76.667 0 -139.667 24.333 -189 73c-50 48.667 -75 112 -75 190z" />
    <glyph glyph-name="Cdotaccent" unicode="&#x10a;" horiz-adv-x="710" 
d="M51 356c0 102.667 32.998 188.001 98.998 256.001c66.667 68.667 151.334 103 254.001 103c93.333 0 172 -25 236 -75c11.333 -9.33301 12.666 -21 3.99902 -35l-9 -13c-9.33301 -12 -20.666 -13.333 -33.999 -4c-59.333 41.333 -124.333 62 -195 62
c-84 0 -152.333 -28 -205 -84c-52 -54.667 -78 -124.334 -78 -209.001c0 -85.333 26.333 -157.333 79 -216s121.667 -88 207 -88c76.667 0 146.334 25.333 209.001 76c12.667 10.667 24 9.66699 34 -3l9 -11c10 -12 9.33301 -23.667 -2 -35
c-72.667 -61.333 -156.667 -92 -252 -92c-105.333 0 -191 35 -257 105c-66 71.333 -99 159 -99 263zM405.998 786.001h-17c-16 0 -24 8.33301 -24 25v35c0 16.667 8 25 24 25h17c16 0 24 -8.33301 24 -25v-35c0 -16.667 -8 -25 -24 -25z" />
    <glyph glyph-name="cdotaccent" unicode="&#x10b;" horiz-adv-x="532" 
d="M43 251c0 76.667 25.001 139.668 75.001 189.001c50.667 50 113.667 75 189 75c64 0 119.667 -19 167 -57c12 -9.33301 13 -20.666 3 -33.999l-7 -11c-7.33301 -12.667 -18.666 -14.334 -33.999 -5.00098c-39.333 30.667 -81.666 46 -126.999 46
c-56.667 0 -103.334 -19 -140.001 -57c-37.333 -38.667 -56 -87.334 -56 -146.001c0 -58 18.667 -106.333 56 -145c38 -38 85 -57 141 -57c51.333 0 98.666 17.667 141.999 53c13.333 10 24.333 8 33 -6l7 -10c6.66699 -12 4.66699 -23.333 -6 -34
c-52.667 -42.667 -112.334 -64 -179.001 -64c-76.667 0 -139.667 24.333 -189 73c-50 48.667 -75 112 -75 190zM296.001 619.001h-17c-16 0 -24 8.33301 -24 25v35c0 16.667 8 25 24 25h17c16 0 24 -8.33301 24 -25v-35c0 -16.667 -8 -25 -24 -25z" />
    <glyph glyph-name="Ccaron" unicode="&#x10c;" horiz-adv-x="710" 
d="M415 752h-36.998c-12 0 -22 5.33301 -30 16l-52 73c-5.33301 8.66699 -6.83301 15.834 -4.5 21.501s8.16602 8.5 17.499 8.5h15c12 0 21.333 -5.33301 28 -16l44 -64h2l44 64c6.66699 10.667 15.667 16 27 16h16c9.33301 0 15.166 -2.83301 17.499 -8.5
s0.5 -12.834 -5.5 -21.501l-51 -73c-8.66699 -10.667 -19 -16 -31 -16zM51.002 356c0 102.667 32.998 188.001 98.998 256.001c66.667 68.667 151.334 103 254.001 103c93.333 0 172 -25 236 -75c11.333 -9.33301 12.666 -21 3.99902 -35l-9 -13
c-9.33301 -12 -20.666 -13.333 -33.999 -4c-59.333 41.333 -124.333 62 -195 62c-84 0 -152.333 -28 -205 -84c-52 -54.667 -78 -124.334 -78 -209.001c0 -85.333 26.333 -157.333 79 -216s121.667 -88 207 -88c76.667 0 146.334 25.333 209.001 76
c12.667 10.667 24 9.66699 34 -3l9 -11c10 -12 9.33301 -23.667 -2 -35c-72.667 -61.333 -156.667 -92 -252 -92c-105.333 0 -191 35 -257 105c-66 71.333 -99 159 -99 263z" />
    <glyph glyph-name="ccaron" unicode="&#x10d;" horiz-adv-x="532" 
d="M306 585h-36.998c-12 0 -22 5.33301 -30 16l-52 73c-5.33301 8.66699 -6.83301 15.834 -4.5 21.501s8.16602 8.5 17.499 8.5h15c12 0 21.333 -5.33301 28 -16l44 -64h2l44 64c6.66699 10.667 15.667 16 27 16h16c9.33301 0 15.166 -2.83301 17.499 -8.5
s0.5 -12.834 -5.5 -21.501l-51 -73c-8.66699 -10.667 -19 -16 -31 -16zM43.002 251c0 76.667 25.001 139.668 75.001 189.001c50.667 50 113.667 75 189 75c64 0 119.667 -19 167 -57c12 -9.33301 13 -20.666 3 -33.999l-7 -11
c-7.33301 -12.667 -18.666 -14.334 -33.999 -5.00098c-39.333 30.667 -81.666 46 -126.999 46c-56.667 0 -103.334 -19 -140.001 -57c-37.333 -38.667 -56 -87.334 -56 -146.001c0 -58 18.667 -106.333 56 -145c38 -38 85 -57 141 -57c51.333 0 98.666 17.667 141.999 53
c13.333 10 24.333 8 33 -6l7 -10c6.66699 -12 4.66699 -23.333 -6 -34c-52.667 -42.667 -112.334 -64 -179.001 -64c-76.667 0 -139.667 24.333 -189 73c-50 48.667 -75 112 -75 190z" />
    <glyph glyph-name="Dcaron" unicode="&#x10e;" horiz-adv-x="731" 
d="M355 752h-36.998c-12 0 -22 5.33301 -30 16l-52 73c-5.33301 8.66699 -6.83301 15.834 -4.5 21.501s8.16602 8.5 17.499 8.5h15c12 0 21.333 -5.33301 28 -16l44 -64h2l44 64c6.66699 10.667 15.667 16 27 16h16c9.33301 0 15.166 -2.83301 17.499 -8.5
s0.5 -12.834 -5.5 -21.501l-51 -73c-8.66699 -10.667 -19 -16 -31 -16zM98.002 25l0.000976562 653c0 16.667 8 25 24 25h203c107.333 0 192.666 -31.333 255.999 -94c64.667 -62 97 -147.667 97 -257c0 -110.667 -32 -197 -96 -259s-149.667 -93 -257 -93h-203
c-16 -0 -24 8.33301 -24 25zM167.003 641v-579h151c88.667 0 158.834 25.5 210.501 76.5s77.5 122.167 77.5 213.5s-25.833 162.333 -77.5 213s-121.834 76 -210.501 76h-151z" />
    <glyph glyph-name="dcaron" unicode="&#x10f;" horiz-adv-x="581" 
d="M567 685c0 11.333 7.33301 17.001 22 17.001h15c19.333 0 29 -17 29 -51c0 -20.667 -4 -41.334 -12 -62.001c-8 -20 -18.667 -30 -32 -30h-6c-14.667 0 -22 5.33301 -22 16l3 9c1.33301 6.66699 2.83301 15 4.5 25s2.5 19.667 2.5 29c0 8 -0.666992 17.333 -2 28
s-2 17 -2 19zM271 515.001c42 0 76.999 -10.168 104.999 -30.501s46.333 -40.5 55 -60.5l5 -10h2c-2 10.667 -3 23.334 -3 38.001v226c0 16.667 8.33301 25 25 25h19c16 0 24 -8.33301 24 -25v-653c0 -16.667 -8 -25 -24 -25h-17c-16.667 0 -25 8 -25 24v38l4 31h-2
c-11.333 -18.667 -19.333 -31 -24 -37c-31.333 -43.333 -81.666 -66 -150.999 -68c-66.667 0 -120 24.333 -160 73c-39.333 49.333 -59 113 -59 191c0 78.667 21 142 63 190c42 48.667 96.333 73 163 73zM273.999 49c48 0 87.168 17.5 117.501 52.5s45.5 85.167 45.5 150.5
c0 56 -14 103.333 -42 142c-27.333 39.333 -66.666 59 -117.999 59c-46.667 0 -85.334 -18.333 -116.001 -55c-30.667 -35.333 -46 -84 -46 -146c0 -61.333 14.667 -110.5 44 -147.5s67.666 -55.5 114.999 -55.5z" />
    <glyph glyph-name="Dcroat" unicode="&#x110;" horiz-adv-x="731" 
d="M98 25l0.000976562 298h-35c-16 0 -24 8.33301 -24 25v11c0 16 6.33301 24 19 24h40v295c0 16.667 8.33301 25 25 25h202c107.333 0 192.666 -31.333 255.999 -94c64.667 -62 97 -147.667 97 -257c0 -110.667 -32 -197 -96 -259s-149.667 -93 -257 -93h-202
c-16.667 -0 -25 8.33301 -25 25zM167.001 323v-261h151c88.667 0 158.834 25.5 210.501 76.5s77.5 122.167 77.5 213.5s-25.833 162.333 -77.5 213s-121.834 76 -210.501 76h-151v-258h143c16.667 0 25 -8 25 -24v-11c0 -16.667 -8 -25 -24 -25h-144z" />
    <glyph glyph-name="dslash" unicode="&#x111;" horiz-adv-x="581" 
d="M271 515c41.333 0 75.667 -9.66895 103 -29.002s46 -38.666 56 -57.999l5 -10h2c-1.33301 14.667 -2 27.334 -2 38.001v110h-107c-16.667 0 -25 7.66699 -25 23v6c0 14.667 8.33301 22 25 22h107v61c0 16.667 8.33301 25 25 25h19c16 0 24 -8.33301 24 -25v-61h55
c16.667 0 25 -7.33301 25 -22v-6c0 -15.333 -6.66699 -23 -20 -23h-60v-541c0 -16.667 -8 -25 -24 -25h-17c-16.667 0 -25 8 -25 24v34l2 31h-2c-11.333 -19.333 -19 -31.333 -23 -36c-36 -43.333 -86 -65 -150 -65c-66.667 0 -120 24.333 -160 73
c-39.333 49.333 -59 113 -59 191c0 78.667 21 142 63 190c42 48.667 96.333 73 163 73zM274.001 48.998c48 0 87.1689 17.5 117.502 52.5s45.5 85.167 45.5 150.5c0 56 -14 103.333 -42 142c-28 40 -67.333 60 -118 60c-46.667 0 -85.334 -18.333 -116.001 -55
s-46 -85.667 -46 -147s14.667 -110.5 44 -147.5s67.666 -55.5 114.999 -55.5z" />
    <glyph glyph-name="Emacron" unicode="&#x112;" horiz-adv-x="553" 
d="M98 25v653c0 16.667 8 25 24 25h347c16.667 0 25 -8.33301 25 -25v-12c0 -16.667 -8.33301 -25 -25 -25h-302v-256h242c16.667 0 25 -8 25 -24v-13c0 -16.667 -8.33301 -25 -25 -25h-242v-261h320c16.667 0 25 -8.33301 25 -25v-12c0 -16.667 -8.33301 -25 -25 -25h-365
c-16 -0 -24 8.33301 -24 25zM406 785h-197c-16.667 0 -25 8 -25 24v7c0 16 8.33301 24 25 24h197c16 0 24 -8 24 -24v-7c0 -16 -8 -24 -24 -24z" />
    <glyph glyph-name="emacron" unicode="&#x113;" horiz-adv-x="544" 
d="M44 251c0 79.333 23.6689 143.332 71.002 191.999c48 48 107 72 177 72c65.333 0 116.666 -21.667 153.999 -65s56 -101.666 56 -174.999c0 -7.33301 -2.5 -13.333 -7.5 -18s-11.167 -7 -18.5 -7h-362c0.666992 -61.333 20 -110.333 58 -147c37.333 -36 83 -54 137 -54
c49.333 0 93.333 15.333 132 46c14 8.66699 25 6.66699 33 -6l8 -12c7.33301 -13.333 5 -24.333 -7 -33c-51.333 -37.333 -107.333 -56 -168 -56c-74.667 0 -137.334 24.667 -188.001 74c-50 49.333 -75 112.333 -75 189zM117.002 300.999h316
c-2 49.333 -16.167 88 -42.5 116s-59.833 42 -100.5 42c-44 0 -81.833 -14.167 -113.5 -42.5s-51.5 -66.833 -59.5 -115.5zM391.002 617.999h-197c-16.667 0 -25 8 -25 24v7c0 16 8.33301 24 25 24h197c16 0 24 -8 24 -24v-7c0 -16 -8 -24 -24 -24z" />
    <glyph glyph-name="Ebreve" unicode="&#x114;" horiz-adv-x="553" 
d="M98 25v653c0 16.667 8 25 24 25h347c16.667 0 25 -8.33301 25 -25v-12c0 -16.667 -8.33301 -25 -25 -25h-302v-256h242c16.667 0 25 -8 25 -24v-13c0 -16.667 -8.33301 -25 -25 -25h-242v-261h320c16.667 0 25 -8.33301 25 -25v-12c0 -16.667 -8.33301 -25 -25 -25h-365
c-16 -0 -24 8.33301 -24 25zM306 749c-30 0 -56.668 9.66699 -80.001 29c-23.333 20 -35 44.667 -35 74c0 12.667 7.66699 19 23 19h10c13.333 0 21 -6 23 -18c4 -38 23.667 -57 59 -57c36 0 56 19 60 57c2.66699 12 10.334 18 23.001 18h10c15.333 0 23 -6.33301 23 -19
c0 -28.667 -11.667 -53 -35 -73s-50.333 -30 -81 -30z" />
    <glyph glyph-name="ebreve" unicode="&#x115;" horiz-adv-x="544" 
d="M44 251c0 79.333 23.6689 143.332 71.002 191.999c48 48 107 72 177 72c65.333 0 116.666 -21.667 153.999 -65s56 -101.666 56 -174.999c0 -7.33301 -2.5 -13.333 -7.5 -18s-11.167 -7 -18.5 -7h-362c0.666992 -61.333 20 -110.333 58 -147c37.333 -36 83 -54 137 -54
c49.333 0 93.333 15.333 132 46c14 8.66699 25 6.66699 33 -6l8 -12c7.33301 -13.333 5 -24.333 -7 -33c-51.333 -37.333 -107.333 -56 -168 -56c-74.667 0 -137.334 24.667 -188.001 74c-50 49.333 -75 112.333 -75 189zM117.002 300.999h316
c-2 49.333 -16.167 88 -42.5 116s-59.833 42 -100.5 42c-44 0 -81.833 -14.167 -113.5 -42.5s-51.5 -66.833 -59.5 -115.5zM291.002 581.999c-30 0 -56.667 9.66699 -80 29c-23.333 20 -35 44.667 -35 74c0 12.667 7.66699 19 23 19h10c13.333 0 21 -6 23 -18
c4 -38 23.667 -57 59 -57c36 0 56 19 60 57c3.33301 12 11 18 23 18h10c15.333 0 23 -6.33301 23 -19c0 -28.667 -11.667 -53 -35 -73c-22.667 -20 -49.667 -30 -81 -30z" />
    <glyph glyph-name="Edotaccent" unicode="&#x116;" horiz-adv-x="553" 
d="M98 25v653c0 16.667 8 25 24 25h347c16.667 0 25 -8.33301 25 -25v-12c0 -16.667 -8.33301 -25 -25 -25h-302v-256h242c16.667 0 25 -8 25 -24v-13c0 -16.667 -8.33301 -25 -25 -25h-242v-261h320c16.667 0 25 -8.33301 25 -25v-12c0 -16.667 -8.33301 -25 -25 -25h-365
c-16 -0 -24 8.33301 -24 25zM315 786h-17c-16 0 -24 8.33301 -24 25v35c0 16.667 8 25 24 25h17c16 0 24 -8.33301 24 -25v-35c0 -16.667 -8 -25 -24 -25z" />
    <glyph glyph-name="edotaccent" unicode="&#x117;" horiz-adv-x="544" 
d="M44 251c0 79.333 23.6689 143.332 71.002 191.999c48 48 107 72 177 72c65.333 0 116.666 -21.667 153.999 -65s56 -101.666 56 -174.999c0 -7.33301 -2.5 -13.333 -7.5 -18s-11.167 -7 -18.5 -7h-362c0.666992 -61.333 20 -110.333 58 -147c37.333 -36 83 -54 137 -54
c49.333 0 93.333 15.333 132 46c14 8.66699 25 6.66699 33 -6l8 -12c7.33301 -13.333 5 -24.333 -7 -33c-51.333 -37.333 -107.333 -56 -168 -56c-74.667 0 -137.334 24.667 -188.001 74c-50 49.333 -75 112.333 -75 189zM117.002 300.999h316
c-2 49.333 -16.167 88 -42.5 116s-59.833 42 -100.5 42c-44 0 -81.833 -14.167 -113.5 -42.5s-51.5 -66.833 -59.5 -115.5zM300.002 618.999h-17c-16 0 -24 8.33301 -24 25v35c0 16.667 8 25 24 25h17c16 0 24 -8.33301 24 -25v-35c0 -16.667 -8 -25 -24 -25z" />
    <glyph glyph-name="Eogonek" unicode="&#x118;" horiz-adv-x="553" 
d="M98 25l0.000976562 653c0 16.667 8 25 24 25h347c16.667 0 25 -8.33301 25 -25v-12c0 -16.667 -8.33301 -25 -25 -25h-302v-256h242c16.667 0 25 -8 25 -24v-13c0 -16.667 -8.33301 -25 -25 -25h-242v-261h320c16.667 0 25 -8.33301 25 -25v-14
c0.666992 -6.66699 -5.83301 -16.667 -19.5 -30s-27.334 -28.5 -41.001 -45.5s-20.167 -32.833 -19.5 -47.5c0 -22 15.333 -38 46 -48c11.333 -4 16 -12.333 14 -25l-2 -11c-2 -15.333 -10.667 -21.333 -26 -18c-26.667 4.66699 -49 14.334 -67 29.001s-27 35 -27 61
c0 39.333 21.667 76.666 65 111.999h-313c-16 -0 -24 8.33301 -24 25z" />
    <glyph glyph-name="eogonek" unicode="&#x119;" horiz-adv-x="544" 
d="M44 251c0 79.333 23.668 143.332 71.001 191.999c48 48 107 72 177 72c66 0 117.667 -22.667 155 -68c36.667 -44.667 55 -102.334 55 -173.001c0 -16 -8.33301 -24 -25 -24h-363c0.666992 -61.333 20 -110.333 58 -147c37.333 -36 83 -54 137 -54
c49.333 0 93.333 15.333 132 46c14.667 8.66699 26 6.33398 34 -6.99902l6 -10c7.33301 -13.333 5.66602 -24.666 -5.00098 -33.999l-37 -29c-26 -19.333 -41.333 -31 -46 -35c-11.333 -10 -21.833 -22.667 -31.5 -38s-14.5 -29.333 -14.5 -42c0 -22 15.333 -38 46 -48
c12 -4 16.667 -12.333 14 -25l-2 -11c-3.33301 -14 -12 -20 -26 -18c-22.667 2.66699 -44 11.667 -64 27s-30 36 -30 62c0 34.667 18.667 69.667 56 105c-13.333 -2.66699 -24.666 -4 -33.999 -4c-74.667 0 -137.334 24.667 -188.001 74c-50 49.333 -75 112.333 -75 189z
M117.001 300.999h316c-2 49.333 -16.167 87.833 -42.5 115.5s-59.833 41.5 -100.5 41.5c-44 0 -81.833 -14 -113.5 -42s-51.5 -66.333 -59.5 -115z" />
    <glyph glyph-name="Ecaron" unicode="&#x11a;" horiz-adv-x="553" 
d="M325 752h-36.998c-12 0 -22 5.33301 -30 16l-52 73c-5.33301 8.66699 -6.83301 15.834 -4.5 21.501s8.16602 8.5 17.499 8.5h15c12 0 21.333 -5.33301 28 -16l44 -64h2l44 64c6.66699 10.667 15.667 16 27 16h16c9.33301 0 15.166 -2.83301 17.499 -8.5
s0.5 -12.834 -5.5 -21.501l-51 -73c-8.66699 -10.667 -19 -16 -31 -16zM98.002 25v653c0 16.667 8 25 24 25h347c16.667 0 25 -8.33301 25 -25v-12c0 -16.667 -8.33301 -25 -25 -25h-302v-256h242c16.667 0 25 -8 25 -24v-13c0 -16.667 -8.33301 -25 -25 -25h-242v-261h320
c16.667 0 25 -8.33301 25 -25v-12c0 -16.667 -8.33301 -25 -25 -25h-365c-16 -0 -24 8.33301 -24 25z" />
    <glyph glyph-name="ecaron" unicode="&#x11b;" horiz-adv-x="544" 
d="M44 251c0 79.333 23.6689 143.332 71.002 191.999c48 48 107 72 177 72c65.333 0 116.666 -21.667 153.999 -65s56 -101.666 56 -174.999c0 -7.33301 -2.5 -13.333 -7.5 -18s-11.167 -7 -18.5 -7h-362c0.666992 -61.333 20 -110.333 58 -147c37.333 -36 83 -54 137 -54
c49.333 0 93.333 15.333 132 46c14 8.66699 25 6.66699 33 -6l8 -12c7.33301 -13.333 5 -24.333 -7 -33c-51.333 -37.333 -107.333 -56 -168 -56c-74.667 0 -137.334 24.667 -188.001 74c-50 49.333 -75 112.333 -75 189zM117.002 300.999h316
c-2 49.333 -16.167 88 -42.5 116s-59.833 42 -100.5 42c-44 0 -81.833 -14.167 -113.5 -42.5s-51.5 -66.833 -59.5 -115.5zM310.002 584.999h-36.998c-12 0 -22 5.33301 -30 16l-52 73c-5.33301 8.66699 -6.83301 15.834 -4.5 21.501s8.16602 8.5 17.499 8.5h15
c12 0 21.333 -5.33301 28 -16l44 -64h2l44 64c6.66699 10.667 15.667 16 27 16h16c9.33301 0 15.166 -2.83301 17.499 -8.5s0.5 -12.834 -5.5 -21.501l-51 -73c-8.66699 -10.667 -19 -16 -31 -16z" />
    <glyph glyph-name="Gcircumflex" unicode="&#x11c;" horiz-adv-x="748" 
d="M51 351c0 102 33.666 188.333 100.999 259c68 70 152.667 105 254 105c90.667 0 167.667 -22.333 231 -67c13.333 -10 14.666 -21.333 3.99902 -34l-9 -13c-9.33301 -13.333 -20.666 -15.333 -33.999 -6c-57.333 36.667 -120.666 55 -189.999 55
c-84 0 -152.667 -28.667 -206 -86c-52.667 -56.667 -79 -127 -79 -211c0 -86.667 26.333 -158.334 79 -215.001s119.334 -85 200.001 -85c48 0 91.167 10.333 129.5 31s66.166 41.334 83.499 62.001l9 10v118h-96c-16 0 -24 8.33301 -24 25v12c0 16.667 8 25 24 25h137
c16 0 24 -8.33301 24 -25v-286c0 -16.667 -8 -25 -24 -25h-14c-16.667 -0 -25 7.33301 -25 22v36l1 26h-2c-5.33301 -7.33301 -18 -18.666 -38 -33.999c-52 -39.333 -115.667 -60 -191 -62c-96.667 0 -178.667 34.667 -246 104c-66 69.333 -99 155.666 -99 258.999z
M320.999 752h-15.002c-9.33301 0 -15.166 2.83301 -17.499 8.5s-0.833008 12.834 4.5 21.501l52 73c8 10.667 18 16 30 16h37c12 0 22.333 -5.33301 31 -16l51 -73c6 -8.66699 8 -15.834 6 -21.501s-7.66699 -8.5 -17 -8.5h-17c-10.667 0 -19.667 5.66699 -27 17l-44 64h-2
l-44 -64c-7.33301 -11.333 -16.666 -17 -27.999 -17z" />
    <glyph glyph-name="gcircumflex" unicode="&#x11d;" horiz-adv-x="574" 
d="M101 -148l5.99902 13.998c6.66699 12 17.334 15.667 32.001 11c38.667 -17.333 77.667 -26 117 -26c52 0 93.833 13.667 125.5 41s47.5 66.333 47.5 117v52l3 36h-2c-32.667 -62.667 -86 -94 -160 -94c-68 0 -122.333 24 -163 72c-40.667 47.333 -61 110.333 -61 189
c0 74.667 19.667 135.334 59 182.001c40 46 94.333 69 163 69c73.333 0 126.666 -27.667 159.999 -83l4 -9h2c-1.33301 6.66699 -2 12.334 -2 17.001v41c0 14.667 8 22 24 22h16c16.667 0 25 -8.33301 25 -25v-466c0 -74.667 -23.333 -130.334 -70 -167.001
c-45.333 -36.667 -101.666 -55 -168.999 -55c-52.667 0 -101 10 -145 30c-14.667 6.66699 -18.667 17.334 -12 32.001zM279.999 63.998c46 0 82.501 16.167 109.501 48.5s40.5 81.166 40.5 146.499c0 66.667 -13.833 115.834 -41.5 147.501s-65.834 47.5 -114.501 47.5
c-50 0 -88.833 -16.667 -116.5 -50s-41.5 -79.333 -41.5 -138c0 -62 14.833 -111.167 44.5 -147.5s69.5 -54.5 119.5 -54.5zM207 584.998h-15.002c-9.33301 0 -15.166 2.83301 -17.499 8.5s-0.833008 12.834 4.5 21.501l52 73c8 10.667 18 16 30 16h37
c12 0 22.333 -5.33301 31 -16l51 -73c6 -8.66699 8 -15.834 6 -21.501s-7.66699 -8.5 -17 -8.5h-17c-10.667 0 -19.667 5.66699 -27 17l-44 64h-2l-44 -64c-7.33301 -11.333 -16.666 -17 -27.999 -17z" />
    <glyph glyph-name="Gbreve" unicode="&#x11e;" horiz-adv-x="748" 
d="M51 351c0 102 33.666 188.333 100.999 259c68 70 152.667 105 254 105c90.667 0 167.667 -22.333 231 -67c13.333 -10 14.666 -21.333 3.99902 -34l-9 -13c-9.33301 -13.333 -20.666 -15.333 -33.999 -6c-57.333 36.667 -120.666 55 -189.999 55
c-84 0 -152.667 -28.667 -206 -86c-52.667 -56.667 -79 -127 -79 -211c0 -86.667 26.333 -158.334 79 -215.001s119.334 -85 200.001 -85c48 0 91.167 10.333 129.5 31s66.166 41.334 83.499 62.001l9 10v118h-96c-16 0 -24 8.33301 -24 25v12c0 16.667 8 25 24 25h137
c16 0 24 -8.33301 24 -25v-286c0 -16.667 -8 -25 -24 -25h-14c-16.667 -0 -25 7.33301 -25 22v36l1 26h-2c-5.33301 -7.33301 -18 -18.666 -38 -33.999c-52 -39.333 -115.667 -60 -191 -62c-96.667 0 -178.667 34.667 -246 104c-66 69.333 -99 155.666 -99 258.999z
M393.999 749c-30 0 -56.668 9.66699 -80.001 29c-23.333 20 -35 44.667 -35 74c0 12.667 7.66699 19 23 19h10c13.333 0 21 -6 23 -18c4 -38 23.667 -57 59 -57c36 0 56 19 60 57c2.66699 12 10.334 18 23.001 18h10c15.333 0 23 -6.33301 23 -19
c0 -28.667 -11.667 -53 -35 -73s-50.333 -30 -81 -30z" />
    <glyph glyph-name="gbreve" unicode="&#x11f;" horiz-adv-x="574" 
d="M101 -148l5.99902 13.998c6.66699 12 17.334 15.667 32.001 11c38.667 -17.333 77.667 -26 117 -26c52 0 93.833 13.667 125.5 41s47.5 66.333 47.5 117v52l3 36h-2c-32.667 -62.667 -86 -94 -160 -94c-68 0 -122.333 24 -163 72c-40.667 47.333 -61 110.333 -61 189
c0 74.667 19.667 135.334 59 182.001c40 46 94.333 69 163 69c73.333 0 126.666 -27.667 159.999 -83l4 -9h2c-1.33301 6.66699 -2 12.334 -2 17.001v41c0 14.667 8 22 24 22h16c16.667 0 25 -8.33301 25 -25v-466c0 -74.667 -23.333 -130.334 -70 -167.001
c-45.333 -36.667 -101.666 -55 -168.999 -55c-52.667 0 -101 10 -145 30c-14.667 6.66699 -18.667 17.334 -12 32.001zM279.999 63.998c46 0 82.501 16.167 109.501 48.5s40.5 81.166 40.5 146.499c0 66.667 -13.833 115.834 -41.5 147.501s-65.834 47.5 -114.501 47.5
c-50 0 -88.833 -16.667 -116.5 -50s-41.5 -79.333 -41.5 -138c0 -62 14.833 -111.167 44.5 -147.5s69.5 -54.5 119.5 -54.5zM279 581.998c-30 0 -56.667 9.66699 -80 29c-23.333 20 -35 44.667 -35 74c0 12.667 7.66699 19 23 19h10c13.333 0 21 -6 23 -18
c4 -38 23.667 -57 59 -57c36 0 56 19 60 57c3.33301 12 11 18 23 18h10c15.333 0 23 -6.33301 23 -19c0 -28.667 -11.667 -53 -35 -73c-22.667 -20 -49.667 -30 -81 -30z" />
    <glyph glyph-name="Gdotaccent" unicode="&#x120;" horiz-adv-x="748" 
d="M51 351c0 102 33.666 188.333 100.999 259c68 70 152.667 105 254 105c90.667 0 167.667 -22.333 231 -67c13.333 -10 14.666 -21.333 3.99902 -34l-9 -13c-9.33301 -13.333 -20.666 -15.333 -33.999 -6c-57.333 36.667 -120.666 55 -189.999 55
c-84 0 -152.667 -28.667 -206 -86c-52.667 -56.667 -79 -127 -79 -211c0 -86.667 26.333 -158.334 79 -215.001s119.334 -85 200.001 -85c48 0 91.167 10.333 129.5 31s66.166 41.334 83.499 62.001l9 10v118h-96c-16 0 -24 8.33301 -24 25v12c0 16.667 8 25 24 25h137
c16 0 24 -8.33301 24 -25v-286c0 -16.667 -8 -25 -24 -25h-14c-16.667 -0 -25 7.33301 -25 22v36l1 26h-2c-5.33301 -7.33301 -18 -18.666 -38 -33.999c-52 -39.333 -115.667 -60 -191 -62c-96.667 0 -178.667 34.667 -246 104c-66 69.333 -99 155.666 -99 258.999z
M402.999 786h-17c-16 0 -24 8.33301 -24 25v35c0 16.667 8 25 24 25h17c16 0 24 -8.33301 24 -25v-35c0 -16.667 -8 -25 -24 -25z" />
    <glyph glyph-name="gdotaccent" unicode="&#x121;" horiz-adv-x="574" 
d="M101 -148l5.99902 13.998c6.66699 12 17.334 15.667 32.001 11c38.667 -17.333 77.667 -26 117 -26c52 0 93.833 13.667 125.5 41s47.5 66.333 47.5 117v52l3 36h-2c-32.667 -62.667 -86 -94 -160 -94c-68 0 -122.333 24 -163 72c-40.667 47.333 -61 110.333 -61 189
c0 74.667 19.667 135.334 59 182.001c40 46 94.333 69 163 69c73.333 0 126.666 -27.667 159.999 -83l4 -9h2c-1.33301 6.66699 -2 12.334 -2 17.001v41c0 14.667 8 22 24 22h16c16.667 0 25 -8.33301 25 -25v-466c0 -74.667 -23.333 -130.334 -70 -167.001
c-45.333 -36.667 -101.666 -55 -168.999 -55c-52.667 0 -101 10 -145 30c-14.667 6.66699 -18.667 17.334 -12 32.001zM279.999 63.998c46 0 82.501 16.167 109.501 48.5s40.5 81.166 40.5 146.499c0 66.667 -13.833 115.834 -41.5 147.501s-65.834 47.5 -114.501 47.5
c-50 0 -88.833 -16.667 -116.5 -50s-41.5 -79.333 -41.5 -138c0 -62 14.833 -111.167 44.5 -147.5s69.5 -54.5 119.5 -54.5zM288 618.998h-17c-16 0 -24 8.33301 -24 25v35c0 16.667 8 25 24 25h17c16 0 24 -8.33301 24 -25v-35c0 -16.667 -8 -25 -24 -25z" />
    <glyph glyph-name="Gcommaaccent" unicode="&#x122;" horiz-adv-x="748" 
d="M51 351c0 102 33.666 188.333 100.999 259c68 70 152.667 105 254 105c90.667 0 167.667 -22.333 231 -67c13.333 -10 14.666 -21.333 3.99902 -34l-9 -13c-9.33301 -13.333 -20.666 -15.333 -33.999 -6c-57.333 36.667 -120.666 55 -189.999 55
c-84 0 -152.667 -28.667 -206 -86c-52.667 -56.667 -79 -127 -79 -211c0 -86.667 26.333 -158.334 79 -215.001s119.334 -85 200.001 -85c48 0 91.167 10.333 129.5 31s66.166 41.334 83.499 62.001l9 10v118h-96c-16 0 -24 8.33301 -24 25v12c0 16.667 8 25 24 25h137
c16 0 24 -8.33301 24 -25v-286c0 -16.667 -8 -25 -24 -25h-14c-16.667 -0 -25 7.33301 -25 22v36l1 26h-2c-5.33301 -7.33301 -18 -18.666 -38 -33.999c-52 -39.333 -115.667 -60 -191 -62c-96.667 0 -178.667 34.667 -246 104c-66 69.333 -99 155.666 -99 258.999z
M362.999 -80c0 11.333 7.33301 17 22 17h15c19.333 0 29 -17 29 -51c0 -20.667 -4 -41 -12 -61c-8 -20.667 -18.667 -31 -32 -31h-6c-14.667 0 -22 5.33301 -22 16l3 10c1.33301 6 2.83301 14 4.5 24s2.5 19.667 2.5 29c0 8.66699 -0.666992 18.167 -2 28.5s-2 16.5 -2 18.5
z" />
    <glyph glyph-name="gcommaaccent" unicode="&#x123;" horiz-adv-x="574" 
d="M313 583c0 -11.333 -7.33301 -17 -22 -17h-15c-19.333 0 -29 17 -29 51c0 20.667 4 41 12 61c8 20.667 18.667 31 32 31h6c14.667 0 22 -5.33301 22 -16l-3 -9c-1.33301 -6.66699 -2.83301 -15 -4.5 -25s-2.5 -19.667 -2.5 -29c0 -8 0.666992 -17.333 2 -28s2 -17 2 -19z
M101 -148l5.99902 13.998c6.66699 12 17.334 15.667 32.001 11c38.667 -17.333 77.667 -26 117 -26c52 0 93.833 13.667 125.5 41s47.5 66.333 47.5 117v52l3 36h-2c-32.667 -62.667 -86 -94 -160 -94c-68 0 -122.333 24 -163 72c-40.667 47.333 -61 110.333 -61 189
c0 74.667 19.667 135.334 59 182.001c40 46 94.333 69 163 69c73.333 0 126.666 -27.667 159.999 -83l4 -9h2c-1.33301 6.66699 -2 12.334 -2 17.001v41c0 14.667 8 22 24 22h16c16.667 0 25 -8.33301 25 -25v-466c0 -74.667 -23.333 -130.334 -70 -167.001
c-45.333 -36.667 -101.666 -55 -168.999 -55c-52.667 0 -101 10 -145 30c-14.667 6.66699 -18.667 17.334 -12 32.001zM279.999 63.998c46 0 82.501 16.167 109.501 48.5s40.5 81.166 40.5 146.499c0 66.667 -13.833 115.834 -41.5 147.501s-65.834 47.5 -114.501 47.5
c-50 0 -88.833 -16.667 -116.5 -50s-41.5 -79.333 -41.5 -138c0 -62 14.833 -111.167 44.5 -147.5s69.5 -54.5 119.5 -54.5z" />
    <glyph glyph-name="Hcircumflex" unicode="&#x124;" horiz-adv-x="742" 
d="M297 752h-15.002c-9.33301 0 -15.166 2.83301 -17.499 8.5s-0.833008 12.834 4.5 21.501l52 73c8 10.667 18 16 30 16h37c12 0 22.333 -5.33301 31 -16l51 -73c6 -8.66699 8 -15.834 6 -21.501s-7.66699 -8.5 -17 -8.5h-17c-10.667 0 -19.667 5.66699 -27 17l-44 64h-2
l-44 -64c-7.33301 -11.333 -16.666 -17 -27.999 -17zM97.998 25v653c0 16.667 8 25 24 25h21c16 0 24 -8.33301 24 -25v-295h408v295c0 16.667 8 25 24 25h20c16.667 0 25 -8.33301 25 -25v-653c0 -16.667 -8.33301 -25 -25 -25h-20c-16 -0 -24 8.33301 -24 25v296h-408
v-296c0 -16.667 -8 -25 -24 -25h-21c-16 -0 -24 8.33301 -24 25z" />
    <glyph glyph-name="hcircumflex" unicode="&#x125;" horiz-adv-x="585" 
d="M43 752h-15.002c-9.33301 0 -15.166 2.83301 -17.499 8.5s-0.833008 12.834 4.5 21.501l52 73c8 10.667 18 16 30 16h37c12 0 22.333 -5.33301 31 -16l51 -73c6 -8.66699 8 -15.834 6 -21.501s-7.66699 -8.5 -17 -8.5h-17c-10.667 0 -19.667 5.66699 -27 17l-44 64h-2
l-44 -64c-7.33301 -11.333 -16.666 -17 -27.999 -17zM80.998 25l0.000976562 653.002c0 16.667 8 25 24 25h19c16.667 0 25 -8.33301 25 -25v-251l-4 -41h2c12 30.667 35.667 59.667 71 87c36 28 79.333 42 130 42c59.333 0 102.333 -16 129 -48s40 -81 40 -147v-295
c0 -16.667 -8 -25 -24 -25h-19c-16.667 0 -25 8.33301 -25 25v277c0 45.333 -6 79.666 -18 102.999c-14.667 30.667 -45.334 46 -92.001 46c-52.667 0 -97.667 -19.667 -135 -59c-36.667 -38.667 -55 -88.334 -55 -149.001v-218c0 -16.667 -8.33301 -25 -25 -25h-19
c-16 -0 -24 8.33301 -24 25z" />
    <glyph glyph-name="Hbar" unicode="&#x126;" horiz-adv-x="741" 
d="M99 25v487h-41c-16.667 0 -25 8 -25 24v6c0 15.333 8.33301 23 25 23h41v113c0 16.667 8 25 24 25h21c16.667 0 25 -7.66699 25 -23v-115h404v113c0 16.667 8 25 24 25h21c16.667 0 25 -7.66699 25 -23v-115h40c16.667 0 25 -7.66699 25 -23v-6
c0 -16 -8.33301 -24 -25 -24h-40v-487c0 -16.667 -8.33301 -25 -25 -25h-21c-16 -0 -24 8.33301 -24 25v296h-404v-296c0 -16.667 -8.33301 -25 -25 -25h-21c-16 -0 -24 8.33301 -24 25zM169 512v-129h404v129h-404z" />
    <glyph glyph-name="hbar" unicode="&#x127;" horiz-adv-x="585" 
d="M78 25l0.000976562 541.001h-52c-16.667 0 -25 7.66699 -25 23v6c0 14.667 8.33301 22 25 22h52v61c0 16.667 8 25 24 25h19c16.667 0 25 -6.66699 25 -20v-66h108c16.667 0 25 -7.33301 25 -22v-6c0 -15.333 -8.33301 -23 -25 -23h-108v-135l-2 -41h2
c12 30 35.333 58.333 70 85s77.667 40 129 40c59.333 0 102.333 -16 129 -48s40 -81 40 -147v-295c0 -16.667 -8 -25 -24 -25h-19c-16.667 0 -25 8.33301 -25 25v277c0 45.333 -6 79.666 -18 102.999c-14.667 30.667 -45.334 46 -92.001 46c-54.667 0 -100 -20 -136 -60
s-54 -88.333 -54 -145v-221c0 -16.667 -8.33301 -25 -25 -25h-19c-16 -0 -24 8.33301 -24 25z" />
    <glyph glyph-name="Itilde" unicode="&#x128;" horiz-adv-x="265" 
d="M9 755l-7.00098 0.000976562c-14.667 0 -22 8.66699 -22 26c0 26.667 8.16699 48.5 24.5 65.5s37.5 25.5 63.5 25.5c19.333 0 36.5 -6 51.5 -18s28.667 -24 41 -36s24.5 -18 36.5 -18c11.333 0 20.5 4.66699 27.5 14s10.833 21.333 11.5 36c0 12.667 7.66699 19 23 19h8
c14 0 21 -7.66699 21 -23c0 -28.667 -7.83301 -51.5 -23.5 -68.5s-37.167 -25.5 -64.5 -25.5c-25.333 0 -56.333 17.667 -93 53c-19.333 18 -36.666 22.667 -51.999 14s-23 -24.334 -23 -47.001c-1.33301 -11.333 -9 -17 -23 -17zM97.999 25.001v653c0 16.667 8 25 24 25h21
c16 0 24 -8.33301 24 -25v-653c0 -16.667 -8 -25 -24 -25h-21c-16 0 -24 8.33301 -24 25z" />
    <glyph glyph-name="itilde" unicode="&#x129;" horiz-adv-x="223" 
d="M77 25v453c0 16.667 8.33301 25 25 25h19c16 0 24 -8.33301 24 -25v-453c0 -16.667 -8 -25 -24 -25h-19c-16.667 -0 -25 8.33301 -25 25zM-12 588l-7 0.000976562c-14.667 0 -22 8.66699 -22 26c0 26.667 8.16699 48.5 24.5 65.5s37.5 25.5 63.5 25.5
c19.333 0 36.5 -6 51.5 -18s28.667 -24 41 -36s24.5 -18 36.5 -18c11.333 0 20.5 4.66699 27.5 14s10.833 21.333 11.5 36c0 12.667 7.66699 19 23 19h8c14 0 21 -7.66699 21 -23c0 -28.667 -7.83301 -51.5 -23.5 -68.5s-37.167 -25.5 -64.5 -25.5
c-19.333 0 -36.5 5.83301 -51.5 17.5s-28.667 23.5 -41 35.5s-24.5 18 -36.5 18s-21.5 -4.83301 -28.5 -14.5s-10.5 -21.834 -10.5 -36.501c-1.33301 -11.333 -9 -17 -23 -17z" />
    <glyph glyph-name="Imacron" unicode="&#x12a;" horiz-adv-x="265" 
d="M98 25v653c0 16.667 8 25 24 25h21c16 0 24 -8.33301 24 -25v-653c0 -16.667 -8 -25 -24 -25h-21c-16 -0 -24 8.33301 -24 25zM233 785h-197c-16.667 0 -25 8 -25 24v7c0 16 8.33301 24 25 24h197c16 0 24 -8 24 -24v-7c0 -16 -8 -24 -24 -24z" />
    <glyph glyph-name="imacron" unicode="&#x12b;" horiz-adv-x="223" 
d="M77 25v453c0 16.667 8.33301 25 25 25h19c16 0 24 -8.33301 24 -25v-453c0 -16.667 -8 -25 -24 -25h-19c-16.667 -0 -25 8.33301 -25 25zM212 618h-197c-16.667 0 -25 8 -25 24v7c0 16 8.33301 24 25 24h197c16 0 24 -8 24 -24v-7c0 -16 -8 -24 -24 -24z" />
    <glyph glyph-name="Ibreve" unicode="&#x12c;" horiz-adv-x="265" 
d="M133 749c-30 0 -56.667 9.66699 -80 29c-23.333 20 -35 44.667 -35 74c0 12.667 7.66699 19 23 19h10c13.333 0 21 -6 23 -18c4 -38 23.667 -57 59 -57c36 0 56 19 60 57c3.33301 12 11 18 23 18h10c15.333 0 23 -6.33301 23 -19c0 -28.667 -11.667 -53 -35 -73
c-22.667 -20 -49.667 -30 -81 -30zM98 25v653c0 16.667 8 25 24 25h21c16 0 24 -8.33301 24 -25v-653c0 -16.667 -8 -25 -24 -25h-21c-16 -0 -24 8.33301 -24 25z" />
    <glyph glyph-name="ibreve" unicode="&#x12d;" horiz-adv-x="223" 
d="M112 582c-30 0 -56.668 9.66699 -80.001 29c-23.333 20 -35 44.667 -35 74c0 12.667 7.66699 19 23 19h10c13.333 0 21 -6 23 -18c4 -38 23.667 -57 59 -57c36 0 56 19 60 57c2.66699 12 10.334 18 23.001 18h10c15.333 0 23 -6.33301 23 -19
c0 -28.667 -11.667 -53 -35 -73s-50.333 -30 -81 -30zM76.999 25v453c0 16.667 8.33301 25 25 25h19c16 0 24 -8.33301 24 -25v-453c0 -16.667 -8 -25 -24 -25h-19c-16.667 -0 -25 8.33301 -25 25z" />
    <glyph glyph-name="Iogonek" unicode="&#x12e;" horiz-adv-x="265" 
d="M98 25v652.999c0 16.667 8 25 24 25h21c16 0 24 -8.33301 24 -25v-653c0 -8 -4 -17 -12 -27s-16.833 -19 -26.5 -27s-18.5 -18.5 -26.5 -31.5s-12 -26.167 -12 -39.5c0 -22 15.333 -38 46 -48c12 -4 16.667 -12.333 14 -25l-2 -11c-3.33301 -14 -11.666 -20 -24.999 -18
c-26.667 4.66699 -49 14.334 -67 29.001s-27 35 -27 61c0 22 7.66699 43.667 23 65s33.666 39 54.999 53c-6 2.66699 -9 9 -9 19z" />
    <glyph glyph-name="iogonek" unicode="&#x12f;" horiz-adv-x="224" 
d="M125 618h-25c-16.667 0 -25 8 -25 24v36c0 16.667 8.33301 25 25 25h25c16 0 24 -8.33301 24 -25v-36c0 -16 -8 -24 -24 -24zM78 25l0.000976562 453.002c0 16.667 8.33301 25 25 25h19c16 0 24 -8.33301 24 -25v-453c0.666992 -8 -5.5 -18.833 -18.5 -32.5
s-26 -28.834 -39 -45.501s-19.167 -32.334 -18.5 -47.001c0 -22 15 -38 45 -48c12 -4 16.667 -12.333 14 -25l-1 -11c-3.33301 -14 -12 -20 -26 -18c-26.667 4.66699 -49 14.334 -67 29.001s-27 35 -27 61c0 22 7.66699 43.667 23 65s33.666 39 54.999 53
c-5.33301 3.33301 -8 9.66602 -8 18.999z" />
    <glyph glyph-name="Idot" unicode="&#x130;" horiz-adv-x="265" 
d="M98 25v653c0 16.667 8 25 24 25h21c16 0 24 -8.33301 24 -25v-653c0 -16.667 -8 -25 -24 -25h-21c-16 -0 -24 8.33301 -24 25zM142 786h-17c-16 0 -24 8.33301 -24 25v35c0 16.667 8 25 24 25h17c16 0 24 -8.33301 24 -25v-35c0 -16.667 -8 -25 -24 -25z" />
    <glyph glyph-name="dotlessi" unicode="&#x131;" horiz-adv-x="223" 
d="M77 25v453c0 16.667 8.33301 25 25 25h19c16 0 24 -8.33301 24 -25v-453c0 -16.667 -8 -25 -24 -25h-19c-16.667 -0 -25 8.33301 -25 25z" />
    <glyph glyph-name="IJ" unicode="&#x132;" horiz-adv-x="574" 
d="M268 21v15.998c0 14 7.66699 22.667 23 26c82 8.66699 123 63.667 123 165v450c0 16.667 8.33301 25 25 25h21c16 0 24 -8.33301 24 -25v-452c0 -42.667 -5.83301 -79.667 -17.5 -111s-27.167 -55.166 -46.5 -71.499s-39.5 -28.166 -60.5 -35.499s-43.167 -11 -66.5 -11
c-16.667 0 -25 8 -25 24zM98 24.998v653c0 16.667 8 25 24 25h21c16 0 24 -8.33301 24 -25v-653c0 -16.667 -8 -25 -24 -25h-21c-16 0 -24 8.33301 -24 25z" />
    <glyph glyph-name="ij" unicode="&#x133;" horiz-adv-x="455" 
d="M355 618h-25c-16 0 -24 8 -24 24v36c0 16.667 8 25 24 25h25c16 0 24 -8.33301 24 -25v-36c0 -16 -8 -24 -24 -24zM309 -16v494c0 16.667 8 25 24 25h19c16.667 0 25 -8.33301 25 -25v-496c0 -37.333 -6.16699 -69.5 -18.5 -96.5s-28.833 -46.833 -49.5 -59.5
c-35.333 -21.333 -69.333 -32 -102 -32h-10c-16.667 0 -25 8.33301 -25 25v11c0 15.333 8.33301 23.333 25 24c25.333 0.666992 49 8.66699 71 24c27.333 16 41 51.333 41 106zM124 618h-25c-16 0 -24 8 -24 24v36c0 16.667 8 25 24 25h25c16 0 24 -8.33301 24 -25v-36
c0 -16 -8 -24 -24 -24zM77 25v453c0 16.667 8.33301 25 25 25h19c16 0 24 -8.33301 24 -25v-453c0 -16.667 -8 -25 -24 -25h-19c-16.667 -0 -25 8.33301 -25 25z" />
    <glyph glyph-name="Jcircumflex" unicode="&#x134;" horiz-adv-x="511" 
d="M226 752h-15.002c-9.33301 0 -15.166 2.83301 -17.499 8.5s-0.833008 12.834 4.5 21.501l52 73c8 10.667 18 16 30 16h37c12 0 22.333 -5.33301 31 -16l51 -73c6 -8.66699 8 -15.834 6 -21.501s-7.66699 -8.5 -17 -8.5h-17c-10.667 0 -19.667 5.66699 -27 17l-44 64h-2
l-44 -64c-7.33301 -11.333 -16.666 -17 -27.999 -17zM25.998 201c0 16 8 24.001 24 24.001h22c8 0 13.5 -1.83301 16.5 -5.5s5.16699 -10.834 6.5 -21.501c4.66699 -96.667 47.334 -145 128.001 -145c38 0 68.833 12 92.5 36s35.5 60 35.5 108v444h-147
c-16 0 -24 8.33301 -24 25v12c0 16.667 8 25 24 25h192c16.667 0 25 -8.33301 25 -25v-481c0 -70.667 -19.333 -123.334 -58 -158.001c-39.333 -34 -86 -51 -140 -51c-54.667 0 -101.334 17.333 -140.001 52c-38 34.667 -57 88.334 -57 161.001z" />
    <glyph glyph-name="jcircumflex" unicode="&#x135;" horiz-adv-x="223" 
d="M36 584h-15.001c-9.33301 0 -15.166 2.83301 -17.499 8.5s-0.833008 12.834 4.5 21.501l52 73c8 10.667 18 16 30 16h37c12 0 22 -5.33301 30 -16l52 -73c5.33301 -8.66699 6.83301 -15.834 4.5 -21.501s-7.83301 -8.5 -16.5 -8.5h-16c-10.667 0 -19.667 5.66699 -27 17
l-44 64h-2l-45 -64c-7.33301 -11.333 -16.333 -17 -27 -17zM77.999 -16v494.001c0 16.667 8 25 24 25h19c16.667 0 25 -8.33301 25 -25v-496c0 -37.333 -6.16699 -69.5 -18.5 -96.5s-28.833 -46.833 -49.5 -59.5c-35.333 -21.333 -69.333 -32 -102 -32h-10
c-16.667 0 -25 8.33301 -25 25v11c0 15.333 8.33301 23.333 25 24c26 0.666992 50 8.66699 72 24c26.667 17.333 40 52.666 40 105.999z" />
    <glyph glyph-name="Kcommaaccent" unicode="&#x136;" horiz-adv-x="583" 
d="M98 25l-0.000976562 653.001c0 16.667 8 25 24 25h21c16 0 24 -8.33301 24 -25v-280h119l179 288c7.33301 11.333 17 17 29 17h25c10 0 16.667 -2.83301 20 -8.5s2.33301 -12.834 -3 -21.501l-192 -302v-2l206 -340c5.33301 -8 6.33301 -14.833 3 -20.5
s-9.66602 -8.5 -18.999 -8.5h-28c-12 0 -21.667 5.66699 -29 17l-191 319h-119v-311c0 -16.667 -8 -25 -24 -25h-21c-16 -0 -24 8.33301 -24 25zM272.999 -79.999c0 11.333 7.33301 17 22 17h15c19.333 0 29 -17 29 -51c0 -20.667 -4 -41 -12 -61
c-8 -20.667 -18.667 -31 -32 -31h-6c-14.667 0 -22 5.33301 -22 16l3 10c1.33301 6 2.83301 14 4.5 24s2.5 19.667 2.5 29c0 8.66699 -0.666992 18.167 -2 28.5s-2 16.5 -2 18.5z" />
    <glyph glyph-name="kcommaaccent" unicode="&#x137;" horiz-adv-x="486" 
d="M78 25v653.001c0 16.667 8 25 24 25h19c16.667 0 25 -8.33301 25 -25v-367h81l139 177c8 10 18 15 30 15h25c10 0 16.5 -3 19.5 -9s1.16699 -13 -5.5 -21l-152 -189v-2l174 -252c5.33301 -8.66699 6.5 -15.834 3.5 -21.501s-9.83301 -8.5 -20.5 -8.5h-26
c-12 0 -21.667 5.66699 -29 17l-157 234h-82v-226c0 -16.667 -8.33301 -25 -25 -25h-19c-16 -0 -24 8.33301 -24 25zM224 -79.999c0 11.333 7.33301 17 22 17h15c19.333 0 29 -17 29 -51c0 -20.667 -4 -41 -12 -61c-8 -20.667 -18.667 -31 -32 -31h-6
c-14.667 0 -22 5.33301 -22 16l2 10c2 6 3.83301 14 5.5 24s2.5 19.667 2.5 29c0 8.66699 -0.666992 18.167 -2 28.5s-2 16.5 -2 18.5z" />
    <glyph glyph-name="kgreenlandic" unicode="&#x138;" horiz-adv-x="485" 
d="M77 25v453.001c0 16.667 8.33301 25 25 25h19c16 0 24 -8.33301 24 -25v-181h79l149 190c8 10.667 18 16 30 16h26c10.667 0 17.5 -3 20.5 -9s1.5 -13 -4.5 -21l-162 -203v-2l164 -238c5.33301 -8.66699 6.5 -15.834 3.5 -21.501s-9.5 -8.5 -19.5 -8.5h-29
c-12 0 -21.667 5.66699 -29 17l-148 221h-80v-213c0 -16.667 -8 -25 -24 -25h-19c-16.667 -0 -25 8.33301 -25 25z" />
    <glyph glyph-name="Lacute" unicode="&#x139;" horiz-adv-x="499" 
d="M98 25v653c0 16.667 8 25 24 25h21c16 0 24 -8.33301 24 -25v-616h301c16.667 0 25 -8.33301 25 -25v-12c0 -16.667 -8.33301 -25 -25 -25h-346c-16 -0 -24 8.33301 -24 25zM144 752l-11.001 0.000976562c-9.33301 0 -15.666 2.83301 -18.999 8.5s-2.33301 12.167 3 19.5
l44 74c7.33301 11.333 17 17 29 17h23c10.667 0 17.167 -2.83301 19.5 -8.5s0.5 -12.834 -5.5 -21.501l-53 -73c-8 -10.667 -18 -16 -30 -16z" />
    <glyph glyph-name="lacute" unicode="&#x13a;" horiz-adv-x="244" 
d="M78 119l0.000976562 558.997c0 16.667 8 25 24 25h19c16.667 0 25 -8.33301 25 -25v-547c2 -28 7.33301 -46.833 16 -56.5s20.667 -15.167 36 -16.5c14 -1.33301 21 -8.66602 21 -21.999v-15c0 -16.667 -8.66699 -25 -26 -25c-10 0 -19.333 0.666992 -28 2
s-18.667 4.5 -30 9.5s-20.833 11.833 -28.5 20.5s-14.334 20.834 -20.001 36.501s-8.5 33.834 -8.5 54.501zM125.001 751.997l-11.001 0.000976562c-9.33301 0 -15.666 2.83301 -18.999 8.5s-2.33301 12.167 3 19.5l44 74c7.33301 11.333 17 17 29 17h23
c10.667 0 17.167 -2.83301 19.5 -8.5s0.5 -12.834 -5.5 -21.501l-53 -73c-8 -10.667 -18 -16 -30 -16z" />
    <glyph glyph-name="Lcommaaccent" unicode="&#x13b;" horiz-adv-x="499" 
d="M98 25v653c0 16.667 8 25 24 25h21c16 0 24 -8.33301 24 -25v-616h301c16.667 0 25 -8.33301 25 -25v-12c0 -16.667 -8.33301 -25 -25 -25h-346c-16 -0 -24 8.33301 -24 25zM269 -80c0 11.333 7.33301 17 22 17h15c19.333 0 29 -17 29 -51c0 -20.667 -4 -41 -12 -61
c-8 -20.667 -18.667 -31 -32 -31h-6c-14.667 0 -22 5.33301 -22 16l3 10c1.33301 6 2.83301 14 4.5 24s2.5 19.667 2.5 29c0 8.66699 -0.666992 18.167 -2 28.5s-2 16.5 -2 18.5z" />
    <glyph glyph-name="lcommaaccent" unicode="&#x13c;" horiz-adv-x="244" 
d="M78 119l0.000976562 558.997c0 16.667 8 25 24 25h19c16.667 0 25 -8.33301 25 -25v-547c2 -28 7.33301 -46.833 16 -56.5s20.667 -15.167 36 -16.5c14 -1.33301 21 -8.66602 21 -21.999v-15c0 -16.667 -8.66699 -25 -26 -25c-10 0 -19.333 0.666992 -28 2
s-18.667 4.5 -30 9.5s-20.833 11.833 -28.5 20.5s-14.334 20.834 -20.001 36.501s-8.5 33.834 -8.5 54.501zM114.001 -80.0029c0 11.333 7.33301 17 22 17h15c19.333 0 29 -17 29 -51c0 -20.667 -4 -41 -12 -61c-8 -20.667 -18.667 -31 -32 -31h-6
c-14.667 0 -22 5.33301 -22 16l2 10c2 6 3.83301 14 5.5 24s2.5 19.667 2.5 29c0 8.66699 -0.666992 18.167 -2 28.5s-2 16.5 -2 18.5z" />
    <glyph glyph-name="Lcaron" unicode="&#x13d;" horiz-adv-x="499" 
d="M260 685c0 11.333 7.33301 17.001 22 17.001h15c19.333 0 29 -17 29 -51c0 -20.667 -4 -41.334 -12 -62.001c-8 -20 -18.667 -30 -32 -30h-6c-14.667 0 -22 5.33301 -22 16l2 9c2 6.66699 3.83301 15 5.5 25s2.5 19.667 2.5 29c0 8 -0.666992 17.333 -2 28s-2 17 -2 19z
M98 25.001v653c0 16.667 8 25 24 25h21c16 0 24 -8.33301 24 -25v-616h301c16.667 0 25 -8.33301 25 -25v-12c0 -16.667 -8.33301 -25 -25 -25h-346c-16 0 -24 8.33301 -24 25z" />
    <glyph glyph-name="lcaron" unicode="&#x13e;" horiz-adv-x="244" 
d="M211 685c0 11.333 7.33301 17.001 22 17.001h15c19.333 0 29 -17 29 -51c0 -20.667 -4 -41.334 -12 -62.001c-8 -20 -18.667 -30 -32 -30h-6c-14.667 0 -22 5.33301 -22 16l3 9c1.33301 6.66699 2.83301 15 4.5 25s2.5 19.667 2.5 29c0 8 -0.666992 17.333 -2 28
s-2 17 -2 19zM78 119.001l0.000976562 558.997c0 16.667 8 25 24 25h19c16.667 0 25 -8.33301 25 -25v-547c2 -28 7.33301 -46.833 16 -56.5s20.667 -15.167 36 -16.5c14 -1.33301 21 -8.66602 21 -21.999v-15c0 -16.667 -8.66699 -25 -26 -25c-10 0 -19.333 0.666992 -28 2
s-18.667 4.5 -30 9.5s-20.833 11.833 -28.5 20.5s-14.334 20.834 -20.001 36.501s-8.5 33.834 -8.5 54.501z" />
    <glyph glyph-name="Ldot" unicode="&#x13f;" horiz-adv-x="499" 
d="M98 25v653c0 16.667 8 25 24 25h21c16 0 24 -8.33301 24 -25v-616h301c16.667 0 25 -8.33301 25 -25v-12c0 -16.667 -8.33301 -25 -25 -25h-346c-16 -0 -24 8.33301 -24 25zM348 330h-31c-16.667 0 -25 8 -25 24v34c0 16.667 8.33301 25 25 25h31
c16 0 24 -8.33301 24 -25v-34c0 -16 -8 -24 -24 -24z" />
    <glyph glyph-name="ldot" unicode="&#x140;" horiz-adv-x="277" 
d="M78 119l0.000976562 558.997c0 16.667 8 25 24 25h19c16.667 0 25 -8.33301 25 -25v-547c2 -28 7.33301 -46.833 16 -56.5s20.667 -15.167 36 -16.5c14 -1.33301 21 -8.66602 21 -21.999v-15c0 -16.667 -8.66699 -25 -26 -25c-10 0 -19.333 0.666992 -28 2
s-18.667 4.5 -30 9.5s-20.833 11.833 -28.5 20.5s-14.334 20.834 -20.001 36.501s-8.5 33.834 -8.5 54.501zM266.001 329.997h-31c-16.667 0 -25 8 -25 24v34c0 16.667 8.33301 25 25 25h31c16 0 24 -8.33301 24 -25v-34c0 -16 -8 -24 -24 -24z" />
    <glyph glyph-name="Lslash" unicode="&#x141;" horiz-adv-x="499" 
d="M98 25v312.001l-37 -20c-6.66699 -4 -12.5 -4.33301 -17.5 -1s-7.5 9.66602 -7.5 18.999v17c0 13.333 5 23 15 29l47 27v270c0 16.667 8.33301 25 25 25h20c16 0 24 -8.33301 24 -25v-230l84 48c8 5.33301 14.833 6.33301 20.5 3s8.5 -10 8.5 -20v-17
c0 -12.667 -5.66699 -22.667 -17 -30l-96 -55v-315h302c16 0 24 -8.33301 24 -25v-12c0 -16.667 -8 -25 -24 -25h-346c-16.667 -0 -25 8.33301 -25 25z" />
    <glyph glyph-name="lslash" unicode="&#x142;" horiz-adv-x="253" 
d="M85 119l0.000976562 232.997l-56 -31c-7.33301 -4.66699 -13.333 -5.16699 -18 -1.5s-7 10.167 -7 19.5v17c0 14 4.66699 23.667 14 29l67 38v255c0 16.667 8 25 24 25h19c16.667 0 25 -8.33301 25 -25v-215l58 33c8.66699 5.33301 15.667 6.33301 21 3s8 -10 8 -20v-17
c0 -13.333 -5.33301 -23.333 -16 -30l-71 -41v-260c2 -28 7.33301 -46.833 16 -56.5s20.667 -15.167 36 -16.5c14 -1.33301 21 -8.66602 21 -21.999v-15c0 -16.667 -8.66699 -25 -26 -25c-10 0 -19.333 0.666992 -28 2s-18.667 4.5 -30 9.5s-20.833 11.833 -28.5 20.5
s-14.334 20.834 -20.001 36.501s-8.5 33.834 -8.5 54.501z" />
    <glyph glyph-name="Nacute" unicode="&#x143;" horiz-adv-x="745" 
d="M98 25l0.000976562 652.999c0 16.667 8 25 24 25h24c12 0 22 -5.33301 30 -16l348 -490l58 -95h2c-4 38.667 -6 70.334 -6 95.001v481c0 16.667 8.33301 25 25 25h20c16 0 24 -8.33301 24 -25v-653c0 -16.667 -8 -25 -24 -25h-24c-12.667 -0 -22.334 5.33301 -29.001 16
l-349 490l-58 95h-2c4 -39.333 6 -71 6 -95v-481c0 -16.667 -8 -25 -24 -25h-21c-16 -0 -24 8.33301 -24 25zM383.001 751.999l-11.001 0.000976562c-9.33301 0 -15.666 2.83301 -18.999 8.5s-2.33301 12.167 3 19.5l44 74c7.33301 11.333 17 17 29 17h23
c10.667 0 17.167 -2.83301 19.5 -8.5s0.5 -12.834 -5.5 -21.501l-53 -73c-8 -10.667 -18 -16 -30 -16z" />
    <glyph glyph-name="nacute" unicode="&#x144;" horiz-adv-x="584" 
d="M77 25l-0.000976562 453.002c0 16.667 8.33301 25 25 25h18c16 0 24 -8.33301 24 -25v-58l-4 -36h2c13.333 31.333 37 60.666 71 87.999c34.667 28.667 78.667 43 132 43c59.333 0 102.333 -16 129 -48s40 -81 40 -147v-295c0 -16.667 -8.33301 -25 -25 -25h-19
c-16 0 -24 8.33301 -24 25v277c0 50.667 -7.83301 88.167 -23.5 112.5s-44.5 36.5 -86.5 36.5c-53.333 0 -98.666 -19.667 -135.999 -59c-36.667 -38.667 -55 -87.334 -55 -146.001v-221c0 -16.667 -8 -25 -24 -25h-19c-16.667 -0 -25 8.33301 -25 25zM315.999 585.002
l-11.001 0.000976562c-9.33301 0 -15.666 2.83301 -18.999 8.5s-2.33301 12.167 3 19.5l44 74c7.33301 11.333 17 17 29 17h23c10.667 0 17.167 -2.83301 19.5 -8.5s0.5 -12.834 -5.5 -21.501l-53 -73c-8 -10.667 -18 -16 -30 -16z" />
    <glyph glyph-name="Ncommaaccent" unicode="&#x145;" horiz-adv-x="745" 
d="M98 25l0.000976562 652.999c0 16.667 8 25 24 25h24c12 0 22 -5.33301 30 -16l348 -490l58 -95h2c-4 38.667 -6 70.334 -6 95.001v481c0 16.667 8.33301 25 25 25h20c16 0 24 -8.33301 24 -25v-653c0 -16.667 -8 -25 -24 -25h-24c-12.667 -0 -22.334 5.33301 -29.001 16
l-349 490l-58 95h-2c4 -39.333 6 -71 6 -95v-481c0 -16.667 -8 -25 -24 -25h-21c-16 -0 -24 8.33301 -24 25zM339.001 -80.001c0 11.333 7.33301 17 22 17h15c19.333 0 29 -17 29 -51c0 -20.667 -4 -41 -12 -61c-8 -20.667 -18.667 -31 -32 -31h-6
c-14.667 0 -22 5.33301 -22 16l3 10c1.33301 6 2.83301 14 4.5 24s2.5 19.667 2.5 29c0 8.66699 -0.666992 18.167 -2 28.5s-2 16.5 -2 18.5z" />
    <glyph glyph-name="ncommaaccent" unicode="&#x146;" horiz-adv-x="584" 
d="M77 25l-0.000976562 453.002c0 16.667 8.33301 25 25 25h18c16 0 24 -8.33301 24 -25v-58l-4 -36h2c13.333 31.333 37 60.666 71 87.999c34.667 28.667 78.667 43 132 43c59.333 0 102.333 -16 129 -48s40 -81 40 -147v-295c0 -16.667 -8.33301 -25 -25 -25h-19
c-16 0 -24 8.33301 -24 25v277c0 50.667 -7.83301 88.167 -23.5 112.5s-44.5 36.5 -86.5 36.5c-53.333 0 -98.666 -19.667 -135.999 -59c-36.667 -38.667 -55 -87.334 -55 -146.001v-221c0 -16.667 -8 -25 -24 -25h-19c-16.667 -0 -25 8.33301 -25 25zM261.999 -79.998
c0 11.333 7.33301 17 22 17h15c19.333 0 29 -17 29 -51c0 -20.667 -4 -41 -12 -61c-8 -20.667 -18.667 -31 -32 -31h-6c-14.667 0 -22 5.33301 -22 16l2 10c2 6 3.83301 14 5.5 24s2.5 19.667 2.5 29c0 8.66699 -0.666992 18.167 -2 28.5s-2 16.5 -2 18.5z" />
    <glyph glyph-name="Ncaron" unicode="&#x147;" horiz-adv-x="745" 
d="M98 25l0.000976562 652.999c0 16.667 8 25 24 25h24c12 0 22 -5.33301 30 -16l348 -490l58 -95h2c-4 38.667 -6 70.334 -6 95.001v481c0 16.667 8.33301 25 25 25h20c16 0 24 -8.33301 24 -25v-653c0 -16.667 -8 -25 -24 -25h-24c-12.667 -0 -22.334 5.33301 -29.001 16
l-349 490l-58 95h-2c4 -39.333 6 -71 6 -95v-481c0 -16.667 -8 -25 -24 -25h-21c-16 -0 -24 8.33301 -24 25zM390.001 751.999h-36.998c-12 0 -22 5.33301 -30 16l-52 73c-5.33301 8.66699 -6.83301 15.834 -4.5 21.501s8.16602 8.5 17.499 8.5h15
c12 0 21.333 -5.33301 28 -16l44 -64h2l44 64c6.66699 10.667 15.667 16 27 16h16c9.33301 0 15.166 -2.83301 17.499 -8.5s0.5 -12.834 -5.5 -21.501l-51 -73c-8.66699 -10.667 -19 -16 -31 -16z" />
    <glyph glyph-name="ncaron" unicode="&#x148;" horiz-adv-x="584" 
d="M323 585h-36.998c-12 0 -22 5.33301 -30 16l-52 73c-5.33301 8.66699 -6.83301 15.834 -4.5 21.501s8.16602 8.5 17.499 8.5h15c12 0 21.333 -5.33301 28 -16l44 -64h2l44 64c6.66699 10.667 15.667 16 27 16h16c9.33301 0 15.166 -2.83301 17.499 -8.5
s0.5 -12.834 -5.5 -21.501l-51 -73c-8.66699 -10.667 -19 -16 -31 -16zM77.002 25l-0.000976562 453.002c0 16.667 8.33301 25 25 25h18c16 0 24 -8.33301 24 -25v-58l-4 -36h2c13.333 31.333 37 60.666 71 87.999c34.667 28.667 78.667 43 132 43
c59.333 0 102.333 -16 129 -48s40 -81 40 -147v-295c0 -16.667 -8.33301 -25 -25 -25h-19c-16 0 -24 8.33301 -24 25v277c0 50.667 -7.83301 88.167 -23.5 112.5s-44.5 36.5 -86.5 36.5c-53.333 0 -98.666 -19.667 -135.999 -59c-36.667 -38.667 -55 -87.334 -55 -146.001
v-221c0 -16.667 -8 -25 -24 -25h-19c-16.667 -0 -25 8.33301 -25 25z" />
    <glyph glyph-name="napostrophe" unicode="&#x149;" horiz-adv-x="584" 
d="M16 685c0 11.333 7.33301 17.001 22 17.001h15c19.333 0 29 -17 29 -51c0 -20.667 -4 -41.334 -12 -62.001c-8 -20 -18.667 -30 -32 -30h-6c-14.667 0 -22 5.33301 -22 16l2 9c2 6.66699 3.83301 15 5.5 25s2.5 19.667 2.5 29c0 8 -0.666992 17.333 -2 28s-2 17 -2 19z
M77 25.001l-0.000976562 453.002c0 16.667 8.33301 25 25 25h18c16 0 24 -8.33301 24 -25v-58l-4 -36h2c13.333 31.333 37 60.666 71 87.999c34.667 28.667 78.667 43 132 43c59.333 0 102.333 -16 129 -48s40 -81 40 -147v-295c0 -16.667 -8.33301 -25 -25 -25h-19
c-16 0 -24 8.33301 -24 25v277c0 50.667 -7.83301 88.167 -23.5 112.5s-44.5 36.5 -86.5 36.5c-53.333 0 -98.666 -19.667 -135.999 -59c-36.667 -38.667 -55 -87.334 -55 -146.001v-221c0 -16.667 -8 -25 -24 -25h-19c-16.667 0 -25 8.33301 -25 25z" />
    <glyph glyph-name="Eng" unicode="&#x14a;" horiz-adv-x="745" 
d="M98 25v652.999c0 16.667 8 25 24 25h24c12 0 22 -5.33301 30 -16l348 -490l58 -95h2c-4 38.667 -6 70.334 -6 95.001v481c0 16.667 8.33301 25 25 25h20c16 0 24 -8.33301 24 -25v-681c0 -68 -17.333 -118 -52 -150c-33.333 -31.333 -76.333 -48.666 -129 -51.999
c-17.333 -1.33301 -26 6.66699 -26 24v14c0 15.333 8 23.666 24 24.999c76.667 6.66699 115 55 115 145l-358 503l-58 95h-2c4 -39.333 6 -71 6 -95v-481c0 -16.667 -8 -25 -24 -25h-21c-16 -0 -24 8.33301 -24 25z" />
    <glyph glyph-name="eng" unicode="&#x14b;" horiz-adv-x="586" 
d="M77 25l-0.000976562 453.003c0 16.667 8.33301 25 25 25h18c16 0 24 -8.33301 24 -25v-58l-4 -36h2c13.333 31.333 37 60.666 71 87.999c34.667 28.667 78.667 43 132 43c59.333 0 102.333 -16 129 -48s40 -81 40 -147v-338c0 -37.333 -6.16699 -69.5 -18.5 -96.5
s-28.833 -46.833 -49.5 -59.5c-35.333 -21.333 -69.333 -32 -102 -32h-10c-16.667 0 -25 8.33301 -25 25v11c0 15.333 8.33301 23.333 25 24c26 0.666992 50 8.66699 72 24c26.667 17.333 40 52.666 40 105.999v318c0 50.667 -7.83301 88.167 -23.5 112.5
s-44.5 36.5 -86.5 36.5c-53.333 0 -98.666 -19.667 -135.999 -59c-36.667 -38.667 -55 -87.334 -55 -146.001v-221c0 -16.667 -8 -25 -24 -25h-19c-16.667 -0 -25 8.33301 -25 25z" />
    <glyph glyph-name="Omacron" unicode="&#x14c;" horiz-adv-x="817" 
d="M50 356c0 101.333 34.001 186.333 102.001 255c69.333 69.333 154.666 104 255.999 104c102.667 0 188 -34.667 256 -104c68 -68.667 102 -153.667 102 -255c0 -104 -34 -191.333 -102 -262s-153.333 -106 -256 -106c-102 0 -187.333 35.333 -256 106
c-68 70.667 -102 158 -102 262zM122.001 356c0 -86 27.001 -158 81.001 -216c55.333 -58 123.666 -87 204.999 -87c82 0 150 29 204 87c54.667 57.333 82 129.333 82 216c0 84.667 -27.333 154.667 -82 210c-54 56 -122 84 -204 84s-150.333 -28 -205 -84
c-54 -56 -81 -126 -81 -210zM507.002 785h-197c-16.667 0 -25 8 -25 24v7c0 16 8.33301 24 25 24h197c16 0 24 -8 24 -24v-7c0 -16 -8 -24 -24 -24z" />
    <glyph glyph-name="omacron" unicode="&#x14d;" horiz-adv-x="615" 
d="M42 254c0 74 25.667 136.001 77 186.001c52 50 114.667 75 188 75c74 0 136.667 -25 188 -75c52 -50 78 -112 78 -186c0 -76 -26 -139.333 -78 -190c-50.667 -50.667 -113 -76 -187 -76c-74.667 0 -137.667 25.333 -189 76c-51.333 51.333 -77 114.666 -77 189.999z
M112 254.001c0 -58.667 19 -107.334 57 -146.001c38 -39.333 84.333 -59 139 -59c54 0 100 19.667 138 59c38 38.667 57 87.334 57 146.001c0 56.667 -19 104 -57 142c-38 38.667 -84 58 -138 58c-54.667 0 -101 -19.333 -139 -58c-38 -38 -57 -85.333 -57 -142z
M406 618.001h-197c-16.667 0 -25 8 -25 24v7c0 16 8.33301 24 25 24h197c16 0 24 -8 24 -24v-7c0 -16 -8 -24 -24 -24z" />
    <glyph glyph-name="Obreve" unicode="&#x14e;" horiz-adv-x="817" 
d="M50 356c0 101.333 34.001 186.333 102.001 255c69.333 69.333 154.666 104 255.999 104c102.667 0 188 -34.667 256 -104c68 -68.667 102 -153.667 102 -255c0 -104 -34 -191.333 -102 -262s-153.333 -106 -256 -106c-102 0 -187.333 35.333 -256 106
c-68 70.667 -102 158 -102 262zM122.001 356c0 -86 27.001 -158 81.001 -216c55.333 -58 123.666 -87 204.999 -87c82 0 150 29 204 87c54.667 57.333 82 129.333 82 216c0 84.667 -27.333 154.667 -82 210c-54 56 -122 84 -204 84s-150.333 -28 -205 -84
c-54 -56 -81 -126 -81 -210zM407.002 749c-30 0 -56.668 9.66699 -80.001 29c-23.333 20 -35 44.667 -35 74c0 12.667 7.66699 19 23 19h10c13.333 0 21 -6 23 -18c4 -38 23.667 -57 59 -57c36 0 56 19 60 57c2.66699 12 10.334 18 23.001 18h10
c15.333 0 23 -6.33301 23 -19c0 -28.667 -11.667 -53 -35 -73s-50.333 -30 -81 -30z" />
    <glyph glyph-name="obreve" unicode="&#x14f;" horiz-adv-x="615" 
d="M42 254c0 74 25.667 136.001 77 186.001c52 50 114.667 75 188 75c74 0 136.667 -25 188 -75c52 -50 78 -112 78 -186c0 -76 -26 -139.333 -78 -190c-50.667 -50.667 -113 -76 -187 -76c-74.667 0 -137.667 25.333 -189 76c-51.333 51.333 -77 114.666 -77 189.999z
M112 254.001c0 -58.667 19 -107.334 57 -146.001c38 -39.333 84.333 -59 139 -59c54 0 100 19.667 138 59c38 38.667 57 87.334 57 146.001c0 56.667 -19 104 -57 142c-38 38.667 -84 58 -138 58c-54.667 0 -101 -19.333 -139 -58c-38 -38 -57 -85.333 -57 -142z
M307 582.001c-30 0 -56.667 9.66699 -80 29c-23.333 20 -35 44.667 -35 74c0 12.667 7.66699 19 23 19h10c13.333 0 21 -6 23 -18c4 -38 23.667 -57 59 -57c36 0 56 19 60 57c3.33301 12 11 18 23 18h10c15.333 0 23 -6.33301 23 -19c0 -28.667 -11.667 -53 -35 -73
c-22.667 -20 -49.667 -30 -81 -30z" />
    <glyph glyph-name="Ohungarumlaut" unicode="&#x150;" horiz-adv-x="817" 
d="M471 752l-9 0.000976562c-10 0 -16.5 2.83301 -19.5 8.5s-2.16699 12.5 2.5 20.5l44 73c7.33301 11.333 17 17 29 17h22c10 0 16.167 -2.83301 18.5 -8.5s0.5 -12.834 -5.5 -21.501l-52 -73c-8.66699 -10.667 -18.667 -16 -30 -16zM341 752.001h-13.001
c-9.33301 0 -15.666 2.83301 -18.999 8.5s-2.66602 12.5 2.00098 20.5l40 72c6 12 15.667 18 29 18h15c10 0 16.5 -2.83301 19.5 -8.5s1.83301 -12.5 -3.5 -20.5l-41 -72c-6.66699 -12 -16.334 -18 -29.001 -18zM49.999 356.001c0 101.333 34.001 186.333 102.001 255
c69.333 69.333 154.666 104 255.999 104c102.667 0 188 -34.667 256 -104c68 -68.667 102 -153.667 102 -255c0 -104 -34 -191.333 -102 -262s-153.333 -106 -256 -106c-102 0 -187.333 35.333 -256 106c-68 70.667 -102 158 -102 262zM122 356.001
c0 -86 27.001 -158 81.001 -216c55.333 -58 123.666 -87 204.999 -87c82 0 150 29 204 87c54.667 57.333 82 129.333 82 216c0 84.667 -27.333 154.667 -82 210c-54 56 -122 84 -204 84s-150.333 -28 -205 -84c-54 -56 -81 -126 -81 -210z" />
    <glyph glyph-name="ohungarumlaut" unicode="&#x151;" horiz-adv-x="615" 
d="M370 585l-9 0.000976562c-10 0 -16.5 2.83301 -19.5 8.5s-2.16699 12.5 2.5 20.5l44 73c7.33301 11.333 17 17 29 17h22c10 0 16.167 -2.83301 18.5 -8.5s0.5 -12.834 -5.5 -21.501l-52 -73c-8.66699 -10.667 -18.667 -16 -30 -16zM240 585.001h-13.002
c-9.33301 0 -15.666 2.83301 -18.999 8.5s-2.66602 12.5 2.00098 20.5l40 72c6 12 15.667 18 29 18h15c10 0 16.5 -2.83301 19.5 -8.5s1.83301 -12.5 -3.5 -20.5l-41 -72c-7.33301 -12 -17 -18 -29 -18zM41.998 254.001c0 74 25.667 136.001 77 186.001
c52 50 114.667 75 188 75c74 0 136.667 -25 188 -75c52 -50 78 -112 78 -186c0 -76 -26 -139.333 -78 -190c-50.667 -50.667 -113 -76 -187 -76c-74.667 0 -137.667 25.333 -189 76c-51.333 51.333 -77 114.666 -77 189.999zM111.998 254.002
c0 -58.667 19 -107.334 57 -146.001c38 -39.333 84.333 -59 139 -59c54 0 100 19.667 138 59c38 38.667 57 87.334 57 146.001c0 56.667 -19 104 -57 142c-38 38.667 -84 58 -138 58c-54.667 0 -101 -19.333 -139 -58c-38 -38 -57 -85.333 -57 -142z" />
    <glyph glyph-name="OE" unicode="&#x152;" horiz-adv-x="934" 
d="M50 352c0 102 33.999 187.667 101.999 257s153.667 104 257 104c12 0 33 -1.66699 63 -5s48.667 -5 56 -5h323c16 0 24 -8.33301 24 -25v-12c0 -16.667 -8 -25 -24 -25h-303v-256h243c16 0 24 -8 24 -24v-13c0 -16.667 -8 -25 -24 -25h-243v-261h321
c16 0 24 -8.33301 24 -25v-12c0 -16.667 -8 -25 -24 -25h-340c-6 -0 -24.667 -1.66699 -56 -5s-52.666 -5 -63.999 -5c-103.333 0 -189 34.667 -257 104s-102 155.333 -102 258zM408.999 53c24.667 0 45 1.99902 61 5.99902l9 2v581c-22.667 5.33301 -46 8 -70 8
c-85.333 0 -154.333 -28.333 -207 -85c-53.333 -57.333 -80 -128.333 -80 -213c0 -85.333 26.667 -156.666 80 -213.999c52.667 -56.667 121.667 -85 207 -85z" />
    <glyph glyph-name="oe" unicode="&#x153;" horiz-adv-x="1003" 
d="M43 250c0 78.667 25.333 142.331 76 190.998c51.333 49.333 113.666 74 186.999 74c50 0 95 -12 135 -36s70.667 -57 92 -99h2c20 42.667 48.833 75.834 86.5 99.501s80.834 35.5 129.501 35.5c65.333 0 116.833 -21.667 154.5 -65s56.5 -101.666 56.5 -174.999
c0 -6.66699 -2.5 -12.5 -7.5 -17.5s-11.167 -7.5 -18.5 -7.5h-362c3.33301 -64.667 23 -114 59 -148c37.333 -35.333 82.666 -53 135.999 -53c50.667 0 94.334 15.333 131.001 46c14.667 8.66699 26 6.66699 34 -6l6 -11c8 -14 6 -25.333 -6 -34
c-49.333 -37.333 -105.333 -56 -168 -56c-52 0 -98.167 12.167 -138.5 36.5s-70.5 57.833 -90.5 100.5h-2c-22 -42.667 -52.833 -76.167 -92.5 -100.5s-85.167 -36.5 -136.5 -36.5c-74 0 -136.333 24.333 -187 73s-76 111.667 -76 189zM577 300.997h315
c-2 48.667 -16 87 -42 115s-59.333 42 -100 42c-44 0 -81.833 -14 -113.5 -42s-51.5 -66.333 -59.5 -115zM113 249.997c0 -59.333 18.668 -107.667 56.001 -145c38.667 -37.333 84.667 -56 138 -56c55.333 0 101.666 18.667 138.999 56c38 38 57 87.667 57 149
c0 59.333 -19.333 107.333 -58 144c-38.667 37.333 -84.667 56 -138 56c-54 0 -100 -19 -138 -57c-37.333 -38.667 -56 -87.667 -56 -147z" />
    <glyph glyph-name="Racute" unicode="&#x154;" horiz-adv-x="609" 
d="M98 25l-0.00195312 652.998c0 16.667 8 25 24 25h190c55.333 0 98 -6.66699 128 -20c69.333 -33.333 104 -92 104 -176c0 -47.333 -12.167 -88.666 -36.5 -123.999s-56.5 -58.666 -96.5 -69.999v-2c5.33301 -6.66699 11.333 -16 18 -28l137 -254
c4.66699 -8.66699 5.33398 -15.667 2.00098 -21s-9.66602 -8 -18.999 -8h-26c-13.333 0 -23 5.66699 -29 17l-150 279h-177v-271c0 -16.667 -8 -25 -24 -25h-21c-16 -0 -24 8.33301 -24 25zM166.998 640.998v-283.001h167c42 0 75.667 13.5 101 40.5s38 62.5 38 106.5
c0 28 -6.5 52.833 -19.5 74.5s-31.167 37.834 -54.5 48.501c-18 8.66699 -48.667 13 -92 13h-140zM307.998 751.997l-11.001 0.000976562c-9.33301 0 -15.666 2.83301 -18.999 8.5s-2.33301 12.167 3 19.5l44 74c7.33301 11.333 17 17 29 17h23
c10.667 0 17.167 -2.83301 19.5 -8.5s0.5 -12.834 -5.5 -21.501l-53 -73c-8 -10.667 -18 -16 -30 -16z" />
    <glyph glyph-name="racute" unicode="&#x155;" horiz-adv-x="338" 
d="M77 25v453c0 16.667 8.33301 25 25 25h18c16 0 24 -8.33301 24 -25v-68l-4 -40h2c12.667 40 33.667 72.667 63 98s62.333 38 99 38c17.333 0 26 -8 26 -24v-18c0 -16.667 -9.33301 -25 -28 -25c-49.333 0 -88 -23 -116 -69c-27.333 -46.667 -41 -99 -41 -157v-188
c0 -16.667 -8 -25 -24 -25h-19c-16.667 -0 -25 8.33301 -25 25zM221 584l-11.001 0.000976562c-9.33301 0 -15.666 2.83301 -18.999 8.5s-2.33301 12.167 3 19.5l44 74c7.33301 11.333 17 17 29 17h23c10.667 0 17.167 -2.83301 19.5 -8.5s0.5 -12.834 -5.5 -21.501l-53 -73
c-8 -10.667 -18 -16 -30 -16z" />
    <glyph glyph-name="Rcommaaccent" unicode="&#x156;" horiz-adv-x="608" 
d="M98 25l-0.00195312 652.998c0 16.667 8 25 24 25h190c55.333 0 98 -6.66699 128 -20c69.333 -33.333 104 -92 104 -176c0 -47.333 -12.167 -88.666 -36.5 -123.999s-56.5 -58.666 -96.5 -69.999v-2c5.33301 -6.66699 11.333 -16 18 -28l137 -254
c4.66699 -8.66699 5.33398 -15.667 2.00098 -21s-9.66602 -8 -18.999 -8h-26c-13.333 0 -23 5.66699 -29 17l-150 279h-177v-271c0 -16.667 -8 -25 -24 -25h-21c-16 -0 -24 8.33301 -24 25zM166.998 640.998v-283.001h167c42 0 75.667 13.5 101 40.5s38 62.5 38 106.5
c0 28 -6.5 52.833 -19.5 74.5s-31.167 37.834 -54.5 48.501c-18 8.66699 -48.667 13 -92 13h-140zM284.998 -80.0029c0 11.333 7.33301 17 22 17h15c19.333 0 29 -17 29 -51c0 -20.667 -4 -41 -12 -61c-8 -20.667 -18.667 -31 -32 -31h-6c-14.667 0 -22 5.33301 -22 16l3 10
c1.33301 6 2.83301 14 4.5 24s2.5 19.667 2.5 29c0 8.66699 -0.666992 18.167 -2 28.5s-2 16.5 -2 18.5z" />
    <glyph glyph-name="rcommaaccent" unicode="&#x157;" horiz-adv-x="338" 
d="M77 25v453c0 16.667 8.33301 25 25 25h18c16 0 24 -8.33301 24 -25v-68l-4 -40h2c12.667 40 33.667 72.667 63 98s62.333 38 99 38c17.333 0 26 -8 26 -24v-18c0 -16.667 -9.33301 -25 -28 -25c-49.333 0 -88 -23 -116 -69c-27.333 -46.667 -41 -99 -41 -157v-188
c0 -16.667 -8 -25 -24 -25h-19c-16.667 -0 -25 8.33301 -25 25zM81 -80c0 11.333 7.33301 17 22 17h15c19.333 0 29 -17 29 -51c0 -20.667 -4 -41 -12 -61c-8 -20.667 -18.667 -31 -32 -31h-6c-14.667 0 -22 5.33301 -22 16l3 10c1.33301 6 2.83301 14 4.5 24
s2.5 19.667 2.5 29c0 8.66699 -0.666992 18.167 -2 28.5s-2 16.5 -2 18.5z" />
    <glyph glyph-name="Rcaron" unicode="&#x158;" horiz-adv-x="609" 
d="M98 25l-0.00195312 652.998c0 16.667 8 25 24 25h190c55.333 0 98 -6.66699 128 -20c69.333 -33.333 104 -92 104 -176c0 -47.333 -12.167 -88.666 -36.5 -123.999s-56.5 -58.666 -96.5 -69.999v-2c5.33301 -6.66699 11.333 -16 18 -28l137 -254
c4.66699 -8.66699 5.33398 -15.667 2.00098 -21s-9.66602 -8 -18.999 -8h-26c-13.333 0 -23 5.66699 -29 17l-150 279h-177v-271c0 -16.667 -8 -25 -24 -25h-21c-16 -0 -24 8.33301 -24 25zM166.998 640.998v-283.001h167c42 0 75.667 13.5 101 40.5s38 62.5 38 106.5
c0 28 -6.5 52.833 -19.5 74.5s-31.167 37.834 -54.5 48.501c-18 8.66699 -48.667 13 -92 13h-140zM315.998 751.997h-36.998c-12 0 -22 5.33301 -30 16l-52 73c-5.33301 8.66699 -6.83301 15.834 -4.5 21.501s8.16602 8.5 17.499 8.5h15c12 0 21.333 -5.33301 28 -16l44 -64
h2l44 64c6.66699 10.667 15.667 16 27 16h16c9.33301 0 15.166 -2.83301 17.499 -8.5s0.5 -12.834 -5.5 -21.501l-51 -73c-8.66699 -10.667 -19 -16 -31 -16z" />
    <glyph glyph-name="rcaron" unicode="&#x159;" horiz-adv-x="338" 
d="M229 584h-36.998c-12 0 -22 5.33301 -30 16l-52 73c-5.33301 8.66699 -6.83301 15.834 -4.5 21.501s8.16602 8.5 17.499 8.5h15c12 0 21.333 -5.33301 28 -16l44 -64h2l44 64c6.66699 10.667 15.667 16 27 16h16c9.33301 0 15.166 -2.83301 17.499 -8.5
s0.5 -12.834 -5.5 -21.501l-51 -73c-8.66699 -10.667 -19 -16 -31 -16zM77.002 25v453c0 16.667 8.33301 25 25 25h18c16 0 24 -8.33301 24 -25v-68l-4 -40h2c12.667 40 33.667 72.667 63 98s62.333 38 99 38c17.333 0 26 -8 26 -24v-18c0 -16.667 -9.33301 -25 -28 -25
c-49.333 0 -88 -23 -116 -69c-27.333 -46.667 -41 -99 -41 -157v-188c0 -16.667 -8 -25 -24 -25h-19c-16.667 -0 -25 8.33301 -25 25z" />
    <glyph glyph-name="Sacute" unicode="&#x15a;" horiz-adv-x="526" 
d="M72 62c-10.667 10.667 -11.665 22.335 -2.99805 35.002l12 15c10 12 21.667 13 35 3c48.667 -40.667 102.667 -61 162 -61c42.667 0 77.167 11 103.5 33s39.5 51 39.5 87c0 32 -12 59.5 -36 82.5s-53.167 41.833 -87.5 56.5l-103 46c-34.333 16 -63.5 38 -87.5 66
s-36 62 -36 102c0 56.667 21 102 63 136c41.333 34.667 93.666 52 156.999 52c67.333 0 124.333 -18.333 171 -55c12 -9.33301 14 -20.333 6 -33l-9 -16c-8.66699 -13.333 -20.334 -15.666 -35.001 -6.99902c-44 30 -89 45 -135 45c-42 0 -77 -10.833 -105 -32.5
s-42 -50.167 -42 -85.5c0 -22.667 6.5 -42.834 19.5 -60.501s29.667 -32.167 50 -43.5s43 -22.333 68 -33s50 -22 75 -34s47.667 -25.333 68 -40s37 -33.834 50 -57.501s19.5 -50.834 19.5 -81.501c0 -55.333 -19.333 -101.333 -58 -138s-90.667 -55 -156 -55
c-78 0 -146.667 24.667 -206 74zM288.002 752.001l-11.001 0.000976562c-9.33301 0 -15.666 2.83301 -18.999 8.5s-2.33301 12.167 3 19.5l44 74c7.33301 11.333 17 17 29 17h23c10.667 0 17.167 -2.83301 19.5 -8.5s0.5 -12.834 -5.5 -21.501l-53 -73
c-8 -10.667 -18 -16 -30 -16z" />
    <glyph glyph-name="sacute" unicode="&#x15b;" horiz-adv-x="431" 
d="M64 46c-12 9.33301 -13.333 20.667 -4 34l8 10c9.33301 11.333 20.666 12.666 33.999 3.99902c39.333 -30.667 83.666 -46 132.999 -46c30 0 54.5 7.16699 73.5 21.5s28.5 34.166 28.5 59.499c0 36 -31.667 65.333 -95 88l-40.5 15c-7 2.66699 -19.5 8 -37.5 16
s-31 15.333 -39 22s-17.333 15.334 -28 26.001s-18.167 22.5 -22.5 35.5s-6.5 27.167 -6.5 42.5c0 43.333 16 77.666 48 102.999s73 38 123 38c53.333 0 99.333 -13.667 138 -41c13.333 -8 15.666 -19 6.99902 -33l-7 -11c-7.33301 -14 -18.666 -16.333 -33.999 -7
c-31.333 21.333 -67.333 32 -108 32c-29.333 0 -53.166 -6.66699 -71.499 -20s-27.5 -32.666 -27.5 -57.999c0 -36 31.333 -66 94 -90c18.667 -6.66699 32.334 -11.667 41.001 -15s21.334 -8.66602 38.001 -15.999s29.334 -14.5 38.001 -21.5s18.167 -15.667 28.5 -26
s17.666 -22 21.999 -35s6.5 -27.5 6.5 -43.5c0 -41.333 -16 -75.333 -48 -102c-30.667 -26.667 -71.334 -40 -122.001 -40c-68 0 -124.667 19.333 -170 58zM242 585.001l-11.001 0.000976562c-9.33301 0 -15.666 2.83301 -18.999 8.5s-2.33301 12.167 3 19.5l44 74
c7.33301 11.333 17 17 29 17h23c10.667 0 17.167 -2.83301 19.5 -8.5s0.5 -12.834 -5.5 -21.501l-53 -73c-8 -10.667 -18 -16 -30 -16z" />
    <glyph glyph-name="Scircumflex" unicode="&#x15c;" horiz-adv-x="526" 
d="M72 62c-10.667 10.667 -11.665 22.335 -2.99805 35.002l12 15c10 12 21.667 13 35 3c48.667 -40.667 102.667 -61 162 -61c42.667 0 77.167 11 103.5 33s39.5 51 39.5 87c0 32 -12 59.5 -36 82.5s-53.167 41.833 -87.5 56.5l-103 46c-34.333 16 -63.5 38 -87.5 66
s-36 62 -36 102c0 56.667 21 102 63 136c41.333 34.667 93.666 52 156.999 52c67.333 0 124.333 -18.333 171 -55c12 -9.33301 14 -20.333 6 -33l-9 -16c-8.66699 -13.333 -20.334 -15.666 -35.001 -6.99902c-44 30 -89 45 -135 45c-42 0 -77 -10.833 -105 -32.5
s-42 -50.167 -42 -85.5c0 -22.667 6.5 -42.834 19.5 -60.501s29.667 -32.167 50 -43.5s43 -22.333 68 -33s50 -22 75 -34s47.667 -25.333 68 -40s37 -33.834 50 -57.501s19.5 -50.834 19.5 -81.501c0 -55.333 -19.333 -101.333 -58 -138s-90.667 -55 -156 -55
c-78 0 -146.667 24.667 -206 74zM205.002 752.001h-15.002c-9.33301 0 -15.166 2.83301 -17.499 8.5s-0.833008 12.834 4.5 21.501l52 73c8 10.667 18 16 30 16h37c12 0 22.333 -5.33301 31 -16l51 -73c6 -8.66699 8 -15.834 6 -21.501s-7.66699 -8.5 -17 -8.5h-17
c-10.667 0 -19.667 5.66699 -27 17l-44 64h-2l-44 -64c-7.33301 -11.333 -16.666 -17 -27.999 -17z" />
    <glyph glyph-name="scircumflex" unicode="&#x15d;" horiz-adv-x="431" 
d="M64 46c-12 9.33301 -13.333 20.667 -4 34l8 10c9.33301 11.333 20.666 12.666 33.999 3.99902c39.333 -30.667 83.666 -46 132.999 -46c30 0 54.5 7.16699 73.5 21.5s28.5 34.166 28.5 59.499c0 36 -31.667 65.333 -95 88l-40.5 15c-7 2.66699 -19.5 8 -37.5 16
s-31 15.333 -39 22s-17.333 15.334 -28 26.001s-18.167 22.5 -22.5 35.5s-6.5 27.167 -6.5 42.5c0 43.333 16 77.666 48 102.999s73 38 123 38c53.333 0 99.333 -13.667 138 -41c13.333 -8 15.666 -19 6.99902 -33l-7 -11c-7.33301 -14 -18.666 -16.333 -33.999 -7
c-31.333 21.333 -67.333 32 -108 32c-29.333 0 -53.166 -6.66699 -71.499 -20s-27.5 -32.666 -27.5 -57.999c0 -36 31.333 -66 94 -90c18.667 -6.66699 32.334 -11.667 41.001 -15s21.334 -8.66602 38.001 -15.999s29.334 -14.5 38.001 -21.5s18.167 -15.667 28.5 -26
s17.666 -22 21.999 -35s6.5 -27.5 6.5 -43.5c0 -41.333 -16 -75.333 -48 -102c-30.667 -26.667 -71.334 -40 -122.001 -40c-68 0 -124.667 19.333 -170 58zM161 585.001h-15.002c-9.33301 0 -15.166 2.83301 -17.499 8.5s-0.833008 12.834 4.5 21.501l52 73
c8 10.667 18 16 30 16h37c12 0 22.333 -5.33301 31 -16l51 -73c6 -8.66699 8 -15.834 6 -21.501s-7.66699 -8.5 -17 -8.5h-17c-10.667 0 -19.667 5.66699 -27 17l-44 64h-2l-44 -64c-7.33301 -11.333 -16.666 -17 -27.999 -17z" />
    <glyph glyph-name="Scedilla" unicode="&#x15e;" horiz-adv-x="528" 
d="M242 -64l12.001 53.001c-69.333 4.66699 -130 29 -182 73c-10.667 10.667 -11.667 22.334 -3 35.001l12 15c10 12 21.667 13 35 3c48.667 -40.667 102.667 -61 162 -61c42.667 0 77.167 11 103.5 33s39.5 51 39.5 87c0 32 -12 59.5 -36 82.5s-53.167 41.833 -87.5 56.5
l-103 46c-34.333 16 -63.5 38 -87.5 66s-36 62 -36 102c0 56.667 21 102 63 136c41.333 34.667 93.666 52 156.999 52c67.333 0 124.333 -18.333 171 -55c12 -9.33301 14 -20.333 6 -33l-9 -16c-8.66699 -13.333 -20.334 -15.666 -35.001 -6.99902c-44 30 -89 45 -135 45
c-42 0 -77 -10.833 -105 -32.5s-42 -50.167 -42 -85.5c0 -22.667 6.5 -42.834 19.5 -60.501s29.667 -32.167 50 -43.5s43 -22.333 68 -33s50 -22 75 -34s47.667 -25.333 68 -40s37 -33.834 50 -57.501s19.5 -50.834 19.5 -81.501c0 -52.667 -17.333 -96.667 -52 -132
c-34.667 -36 -81.667 -56 -141 -60l-8 -44c21.333 -3.33301 38.333 -11.333 51 -24s19 -28.334 19 -47.001c0 -26.667 -8.66699 -46.5 -26 -59.5s-40.666 -19.5 -69.999 -19.5c-32 0 -48 8 -48 24c0 16.667 5.33301 25 16 25c0.666992 0 4.33398 -0.5 11.001 -1.5
s11.667 -1.5 15 -1.5c32.667 0 49 11.333 49 34c0 20.667 -16.333 32.334 -49 35.001c-14.667 1.33301 -20.334 10 -17.001 26z" />
    <glyph glyph-name="scedilla" unicode="&#x15f;" horiz-adv-x="433" 
d="M195 -64l11.999 53.001c-58.667 5.33301 -106.334 24.333 -143.001 57c-12 9.33301 -13.333 20.666 -4 33.999l8 10c9.33301 11.333 20.666 12.666 33.999 3.99902c39.333 -30.667 83.666 -46 132.999 -46c30 0 54.5 7.16699 73.5 21.5s28.5 34.166 28.5 59.499
c0 36 -31.667 65.333 -95 88l-40.5 15c-7 2.66699 -19.5 8 -37.5 16s-31 15.333 -39 22s-17.333 15.334 -28 26.001s-18.167 22.5 -22.5 35.5s-6.5 27.167 -6.5 42.5c0 43.333 16 77.666 48 102.999s73 38 123 38c53.333 0 99.333 -13.667 138 -41
c13.333 -8 15.666 -19 6.99902 -33l-7 -11c-7.33301 -14 -18.666 -16.333 -33.999 -7c-31.333 21.333 -67.333 32 -108 32c-29.333 0 -53.166 -6.66699 -71.499 -20s-27.5 -32.666 -27.5 -57.999c0 -36 31.333 -66 94 -90c18.667 -6.66699 32.334 -11.667 41.001 -15
s21.334 -8.66602 38.001 -15.999s29.334 -14.5 38.001 -21.5s18.167 -15.667 28.5 -26s17.666 -22 21.999 -35s6.5 -27.5 6.5 -43.5c0 -38.667 -14 -71 -42 -97s-64.667 -40.667 -110 -44l-8 -44c21.333 -3.33301 38.333 -11.333 51 -24s19 -28.334 19 -47.001
c0 -26.667 -8.66699 -46.5 -26 -59.5s-40.666 -19.5 -69.999 -19.5c-32 0 -48 8 -48 24c0 16.667 5.33301 25 16 25c0.666992 0 4.33398 -0.5 11.001 -1.5s11.667 -1.5 15 -1.5c32.667 0 49 11.333 49 34c0 20.667 -16.333 32.334 -49 35.001
c-14.667 1.33301 -20.334 10 -17.001 26z" />
    <glyph glyph-name="Scaron" unicode="&#x160;" horiz-adv-x="526" 
d="M72 62c-10.667 10.667 -11.665 22.335 -2.99805 35.002l12 15c10 12 21.667 13 35 3c48.667 -40.667 102.667 -61 162 -61c42.667 0 77.167 11 103.5 33s39.5 51 39.5 87c0 32 -12 59.5 -36 82.5s-53.167 41.833 -87.5 56.5l-103 46c-34.333 16 -63.5 38 -87.5 66
s-36 62 -36 102c0 56.667 21 102 63 136c41.333 34.667 93.666 52 156.999 52c67.333 0 124.333 -18.333 171 -55c12 -9.33301 14 -20.333 6 -33l-9 -16c-8.66699 -13.333 -20.334 -15.666 -35.001 -6.99902c-44 30 -89 45 -135 45c-42 0 -77 -10.833 -105 -32.5
s-42 -50.167 -42 -85.5c0 -22.667 6.5 -42.834 19.5 -60.501s29.667 -32.167 50 -43.5s43 -22.333 68 -33s50 -22 75 -34s47.667 -25.333 68 -40s37 -33.834 50 -57.501s19.5 -50.834 19.5 -81.501c0 -55.333 -19.333 -101.333 -58 -138s-90.667 -55 -156 -55
c-78 0 -146.667 24.667 -206 74zM296.002 752.001h-36.998c-12 0 -22 5.33301 -30 16l-52 73c-5.33301 8.66699 -6.83301 15.834 -4.5 21.501s8.16602 8.5 17.499 8.5h15c12 0 21.333 -5.33301 28 -16l44 -64h2l44 64c6.66699 10.667 15.667 16 27 16h16
c9.33301 0 15.166 -2.83301 17.499 -8.5s0.5 -12.834 -5.5 -21.501l-51 -73c-8.66699 -10.667 -19 -16 -31 -16z" />
    <glyph glyph-name="scaron" unicode="&#x161;" horiz-adv-x="431" 
d="M64 46c-12 9.33301 -13.333 20.667 -4 34l8 10c9.33301 11.333 20.666 12.666 33.999 3.99902c39.333 -30.667 83.666 -46 132.999 -46c30 0 54.5 7.16699 73.5 21.5s28.5 34.166 28.5 59.499c0 36 -31.667 65.333 -95 88l-40.5 15c-7 2.66699 -19.5 8 -37.5 16
s-31 15.333 -39 22s-17.333 15.334 -28 26.001s-18.167 22.5 -22.5 35.5s-6.5 27.167 -6.5 42.5c0 43.333 16 77.666 48 102.999s73 38 123 38c53.333 0 99.333 -13.667 138 -41c13.333 -8 15.666 -19 6.99902 -33l-7 -11c-7.33301 -14 -18.666 -16.333 -33.999 -7
c-31.333 21.333 -67.333 32 -108 32c-29.333 0 -53.166 -6.66699 -71.499 -20s-27.5 -32.666 -27.5 -57.999c0 -36 31.333 -66 94 -90c18.667 -6.66699 32.334 -11.667 41.001 -15s21.334 -8.66602 38.001 -15.999s29.334 -14.5 38.001 -21.5s18.167 -15.667 28.5 -26
s17.666 -22 21.999 -35s6.5 -27.5 6.5 -43.5c0 -41.333 -16 -75.333 -48 -102c-30.667 -26.667 -71.334 -40 -122.001 -40c-68 0 -124.667 19.333 -170 58zM252 585.001h-36.998c-12 0 -22 5.33301 -30 16l-52 73c-5.33301 8.66699 -6.83301 15.834 -4.5 21.501
s8.16602 8.5 17.499 8.5h15c12 0 21.333 -5.33301 28 -16l44 -64h2l44 64c6.66699 10.667 15.667 16 27 16h16c9.33301 0 15.166 -2.83301 17.499 -8.5s0.5 -12.834 -5.5 -21.501l-51 -73c-8.66699 -10.667 -19 -16 -31 -16z" />
    </font>
</defs>
</svg>
